M48
; DRILL file {KiCad 7.0.11+dfsg-1build4} date Wed May 20 07:12:28 2026
; FORMAT={-:-/ absolute / metric / decimal}
; #@! TF.CreationDate,2026-05-20T07:12:28+00:00
; #@! TF.GenerationSoftware,Kicad,Pcbnew,7.0.11+dfsg-1build4
; #@! TF.FileFunction,Plated,1,2,PTH
FMAT,2
METRIC
; #@! TA.AperFunction,Plated,PTH,ComponentDrill
T1C0.200
; #@! TA.AperFunction,Plated,PTH,ViaDrill
T2C0.400
; #@! TA.AperFunction,Plated,PTH,ComponentDrill
T3C0.400
; #@! TA.AperFunction,Plated,PTH,ComponentDrill
T4C0.500
; #@! TA.AperFunction,Plated,PTH,ComponentDrill
T5C0.800
; #@! TA.AperFunction,Plated,PTH,ComponentDrill
T6C1.000
; #@! TA.AperFunction,Plated,PTH,ComponentDrill
T7C1.300
; #@! TA.AperFunction,Plated,PTH,ComponentDrill
T8C1.320
; #@! TA.AperFunction,Plated,PTH,ComponentDrill
T9C3.200
%
G90
G05
T1
X32.795Y-26.328
X32.795Y-27.852
X33.557Y-25.565
X33.557Y-27.09
X33.557Y-28.615
X34.32Y-26.328
X34.32Y-27.852
X35.082Y-25.565
X35.082Y-27.09
X35.082Y-28.615
X35.845Y-26.328
X35.845Y-27.852
T2
X4.5Y-46.0
X4.5Y-50.5
X10.5Y-84.0
X10.5Y-87.0
X10.5Y-90.0
X11.5Y-65.0
X11.5Y-67.5
X14.0Y-101.5
X16.0Y-50.0
X16.0Y-65.0
X16.0Y-66.5
X17.5Y-46.0
X17.5Y-48.0
X17.5Y-65.5
X18.5Y-100.5
X18.5Y-102.0
X19.0Y-48.5
X19.0Y-68.5
X20.5Y-37.5
X20.5Y-55.0
X20.5Y-62.5
X20.5Y-67.0
X20.5Y-71.5
X21.0Y-93.0
X22.0Y-27.0
X22.0Y-31.0
X22.0Y-48.0
X22.5Y-93.0
X23.0Y-27.0
X24.5Y-22.0
X24.5Y-34.5
X24.5Y-48.5
X24.5Y-51.5
X24.5Y-62.5
X25.5Y-85.5
X26.0Y-49.0
X27.5Y-33.5
X28.0Y-96.0
X28.0Y-97.0
X28.5Y-82.5
X29.5Y-73.5
X29.5Y-87.0
X29.5Y-93.0
X29.5Y-95.0
X30.0Y-96.0
X32.0Y-87.0
X32.0Y-97.5
X32.5Y-33.5
X32.5Y-38.5
X32.5Y-62.5
X33.5Y-95.0
X33.5Y-96.0
X37.0Y-93.5
X38.5Y-66.0
X38.5Y-87.0
X38.5Y-92.0
X39.0Y-33.5
X40.5Y-36.5
X41.0Y-31.0
X42.0Y-29.5
X42.0Y-35.0
X42.0Y-64.5
X42.0Y-73.5
X42.0Y-82.5
X42.0Y-85.5
X43.5Y-55.0
X43.5Y-82.5
X43.5Y-85.5
X45.0Y-19.5
X45.0Y-68.5
X45.0Y-73.5
X46.0Y-27.0
X46.5Y-22.0
X46.5Y-63.0
X46.5Y-73.5
X46.5Y-82.5
X46.5Y-85.5
X47.5Y-23.5
X48.0Y-27.0
X48.0Y-31.0
X49.0Y-27.0
X49.5Y-34.5
X50.5Y-65.0
X51.0Y-33.0
X54.5Y-68.5
X54.5Y-73.5
X56.0Y-63.0
X60.0Y-70.5
X60.0Y-82.5
T3
X6.29Y-47.2
X6.29Y-48.8
X6.29Y-49.6
X6.29Y-50.4
X6.29Y-51.2
X6.29Y-52.8
X6.99Y-47.6
X6.99Y-48.4
X6.99Y-49.2
X6.99Y-50.8
X6.99Y-51.6
X6.99Y-52.4
T5
X50.0Y-100.0
X50.0Y-102.54
X57.62Y-100.0
X57.62Y-102.54
T6
X32.0Y-67.0
X32.0Y-69.54
X55.0Y-84.0
X57.54Y-84.0
X60.0Y-87.895
X60.08Y-84.0
X62.54Y-87.895
X62.62Y-84.0
X65.08Y-87.895
X67.62Y-87.895
X70.16Y-87.895
X72.7Y-87.895
T7
X60.0Y-97.5
X60.0Y-105.0
X75.26Y-105.0
X80.3Y-97.5
X85.34Y-105.0
T8
X68.0Y-91.025
X68.0Y-96.025
X68.0Y-101.025
T9
X4.0Y-4.0
X4.0Y-106.0
X71.0Y-4.0
X71.0Y-106.0
T4
X6.59Y-45.87G85X7.19Y-45.87
G05
X6.59Y-54.13G85X7.19Y-54.13
G05
X12.54Y-45.51G85X13.14Y-45.51
G05
X12.54Y-54.49G85X13.14Y-54.49
G05
M30
