%TF.GenerationSoftware,KiCad,Pcbnew,7.0.11+dfsg-1build4*%
%TF.CreationDate,2026-05-20T07:12:28+00:00*%
%TF.ProjectId,paymentbox_v8_2,7061796d-656e-4746-926f-785f76385f32,rev?*%
%TF.SameCoordinates,Original*%
%TF.FileFunction,Paste,Top*%
%TF.FilePolarity,Positive*%
%FSLAX46Y46*%
G04 Gerber Fmt 4.6, Leading zero omitted, Abs format (unit mm)*
G04 Created by KiCad (PCBNEW 7.0.11+dfsg-1build4) date 2026-05-20 07:12:28*
%MOMM*%
%LPD*%
G01*
G04 APERTURE LIST*
G04 Aperture macros list*
%AMRoundRect*
0 Rectangle with rounded corners*
0 $1 Rounding radius*
0 $2 $3 $4 $5 $6 $7 $8 $9 X,Y pos of 4 corners*
0 Add a 4 corners polygon primitive as box body*
4,1,4,$2,$3,$4,$5,$6,$7,$8,$9,$2,$3,0*
0 Add four circle primitives for the rounded corners*
1,1,$1+$1,$2,$3*
1,1,$1+$1,$4,$5*
1,1,$1+$1,$6,$7*
1,1,$1+$1,$8,$9*
0 Add four rect primitives between the rounded corners*
20,1,$1+$1,$2,$3,$4,$5,0*
20,1,$1+$1,$4,$5,$6,$7,0*
20,1,$1+$1,$6,$7,$8,$9,0*
20,1,$1+$1,$8,$9,$2,$3,0*%
G04 Aperture macros list end*
%ADD10RoundRect,0.250000X-0.250000X-0.475000X0.250000X-0.475000X0.250000X0.475000X-0.250000X0.475000X0*%
%ADD11RoundRect,0.250000X0.450000X-0.262500X0.450000X0.262500X-0.450000X0.262500X-0.450000X-0.262500X0*%
%ADD12R,0.700000X1.200000*%
%ADD13R,1.000000X0.800000*%
%ADD14R,1.000000X1.200000*%
%ADD15R,1.000000X2.800000*%
%ADD16R,1.300000X1.900000*%
%ADD17RoundRect,0.150000X-0.825000X-0.150000X0.825000X-0.150000X0.825000X0.150000X-0.825000X0.150000X0*%
%ADD18RoundRect,0.250000X-0.312500X-1.450000X0.312500X-1.450000X0.312500X1.450000X-0.312500X1.450000X0*%
%ADD19R,0.700000X0.300000*%
%ADD20RoundRect,0.250000X-1.000000X-0.650000X1.000000X-0.650000X1.000000X0.650000X-1.000000X0.650000X0*%
%ADD21RoundRect,0.250000X-0.262500X-0.450000X0.262500X-0.450000X0.262500X0.450000X-0.262500X0.450000X0*%
%ADD22RoundRect,0.243750X-0.243750X-0.456250X0.243750X-0.456250X0.243750X0.456250X-0.243750X0.456250X0*%
%ADD23R,2.000000X4.200000*%
%ADD24RoundRect,0.150000X-0.587500X-0.150000X0.587500X-0.150000X0.587500X0.150000X-0.587500X0.150000X0*%
%ADD25RoundRect,0.218750X-0.218750X-0.381250X0.218750X-0.381250X0.218750X0.381250X-0.218750X0.381250X0*%
%ADD26RoundRect,0.150000X-0.512500X-0.150000X0.512500X-0.150000X0.512500X0.150000X-0.512500X0.150000X0*%
%ADD27R,1.500000X0.900000*%
%ADD28R,0.900000X1.500000*%
%ADD29R,1.050000X1.050000*%
%ADD30R,1.550000X1.300000*%
%ADD31RoundRect,0.250000X-1.000000X-0.900000X1.000000X-0.900000X1.000000X0.900000X-1.000000X0.900000X0*%
%ADD32RoundRect,0.375000X-0.625000X-0.375000X0.625000X-0.375000X0.625000X0.375000X-0.625000X0.375000X0*%
%ADD33RoundRect,0.500000X-0.500000X-1.400000X0.500000X-1.400000X0.500000X1.400000X-0.500000X1.400000X0*%
G04 APERTURE END LIST*
D10*
%TO.C,C4*%
X36050000Y-36000000D03*
X37950000Y-36000000D03*
%TD*%
D11*
%TO.C,R21*%
X22000000Y-32912500D03*
X22000000Y-31087500D03*
%TD*%
D12*
%TO.C,U5*%
X34775000Y-96275000D03*
X33675000Y-96275000D03*
X32575000Y-96275000D03*
X31475000Y-96275000D03*
X30375000Y-96275000D03*
X29275000Y-96275000D03*
X28175000Y-96275000D03*
X27075000Y-96275000D03*
X26125000Y-96275000D03*
D13*
X25175000Y-106775000D03*
D14*
X25175000Y-100575000D03*
D15*
X25175000Y-110925000D03*
D14*
X36325000Y-96275000D03*
D16*
X38675000Y-111375000D03*
%TD*%
D17*
%TO.C,U6*%
X11525000Y-64095000D03*
X11525000Y-65365000D03*
X11525000Y-66635000D03*
X11525000Y-67905000D03*
X16475000Y-67905000D03*
X16475000Y-66635000D03*
X16475000Y-65365000D03*
X16475000Y-64095000D03*
%TD*%
D10*
%TO.C,C5*%
X31050000Y-22000000D03*
X32950000Y-22000000D03*
%TD*%
%TO.C,C2*%
X39050000Y-52000000D03*
X40950000Y-52000000D03*
%TD*%
D18*
%TO.C,F1*%
X17862500Y-48000000D03*
X22137500Y-48000000D03*
%TD*%
D11*
%TO.C,R22*%
X48000000Y-32912500D03*
X48000000Y-31087500D03*
%TD*%
%TO.C,R6*%
X22000000Y-28912500D03*
X22000000Y-27087500D03*
%TD*%
D19*
%TO.C,J1*%
X4980000Y-52750000D03*
X4980000Y-52250000D03*
X4980000Y-51750000D03*
X4980000Y-51250000D03*
X4980000Y-50750000D03*
X4980000Y-50250000D03*
X4980000Y-49750000D03*
X4980000Y-49250000D03*
X4980000Y-48750000D03*
X4980000Y-48250000D03*
X4980000Y-47750000D03*
X4980000Y-47250000D03*
%TD*%
D10*
%TO.C,C9*%
X9050000Y-70000000D03*
X10950000Y-70000000D03*
%TD*%
%TO.C,C7*%
X65050000Y-72000000D03*
X66950000Y-72000000D03*
%TD*%
%TO.C,C13_SD*%
X23050000Y-98950000D03*
X24950000Y-98950000D03*
%TD*%
%TO.C,C3*%
X27800000Y-22000000D03*
X29700000Y-22000000D03*
%TD*%
D11*
%TO.C,R10*%
X48000000Y-28912500D03*
X48000000Y-27087500D03*
%TD*%
D20*
%TO.C,D4*%
X59050000Y-98100000D03*
X63050000Y-98100000D03*
%TD*%
D21*
%TO.C,R17*%
X49087500Y-65000000D03*
X50912500Y-65000000D03*
%TD*%
D10*
%TO.C,C10*%
X17050000Y-70000000D03*
X18950000Y-70000000D03*
%TD*%
%TO.C,C8*%
X17050000Y-104000000D03*
X18950000Y-104000000D03*
%TD*%
D11*
%TO.C,R19*%
X56000000Y-64912500D03*
X56000000Y-63087500D03*
%TD*%
D22*
%TO.C,LED2*%
X9062500Y-87000000D03*
X10937500Y-87000000D03*
%TD*%
D23*
%TO.C,BZ1*%
X24000000Y-87000000D03*
X32000000Y-87000000D03*
%TD*%
D21*
%TO.C,R13*%
X19087500Y-64000000D03*
X20912500Y-64000000D03*
%TD*%
D22*
%TO.C,LED3*%
X9062500Y-90000000D03*
X10937500Y-90000000D03*
%TD*%
D24*
%TO.C,Q3*%
X26062500Y-49050000D03*
X26062500Y-50950000D03*
X27937500Y-50000000D03*
%TD*%
D21*
%TO.C,R9*%
X37087500Y-87000000D03*
X38912500Y-87000000D03*
%TD*%
D25*
%TO.C,FB1*%
X34937500Y-50000000D03*
X37062500Y-50000000D03*
%TD*%
D26*
%TO.C,U7*%
X38862500Y-66050000D03*
X38862500Y-67000000D03*
X38862500Y-67950000D03*
X41137500Y-67950000D03*
X41137500Y-67000000D03*
X41137500Y-66050000D03*
%TD*%
D22*
%TO.C,LED4*%
X24062500Y-64000000D03*
X25937500Y-64000000D03*
%TD*%
D10*
%TO.C,C13_boost*%
X52050000Y-68000000D03*
X53950000Y-68000000D03*
%TD*%
D17*
%TO.C,U4*%
X9525000Y-98095000D03*
X9525000Y-99365000D03*
X9525000Y-100635000D03*
X9525000Y-101905000D03*
X14475000Y-101905000D03*
X14475000Y-100635000D03*
X14475000Y-99365000D03*
X14475000Y-98095000D03*
%TD*%
D10*
%TO.C,C11*%
X37050000Y-70000000D03*
X38950000Y-70000000D03*
%TD*%
D11*
%TO.C,R12*%
X3500000Y-58912500D03*
X3500000Y-57087500D03*
%TD*%
D10*
%TO.C,C12*%
X49050000Y-72000000D03*
X50950000Y-72000000D03*
%TD*%
D21*
%TO.C,R3*%
X14087500Y-90000000D03*
X15912500Y-90000000D03*
%TD*%
%TO.C,R7*%
X44087500Y-98000000D03*
X45912500Y-98000000D03*
%TD*%
%TO.C,R18*%
X48912500Y-68000000D03*
X50737500Y-68000000D03*
%TD*%
D11*
%TO.C,R20*%
X56000000Y-68912500D03*
X56000000Y-67087500D03*
%TD*%
D21*
%TO.C,R4*%
X21087500Y-92650000D03*
X22912500Y-92650000D03*
%TD*%
D27*
%TO.C,U1*%
X26250000Y-19750000D03*
X26250000Y-21020000D03*
X26250000Y-22290000D03*
X26250000Y-23560000D03*
X26250000Y-24830000D03*
X26250000Y-26100000D03*
X26250000Y-27370000D03*
X26250000Y-28640000D03*
X26250000Y-29910000D03*
X26250000Y-31180000D03*
X26250000Y-32450000D03*
X26250000Y-33720000D03*
X26250000Y-34990000D03*
X26250000Y-36260000D03*
D28*
X29290000Y-37510000D03*
X30560000Y-37510000D03*
X31830000Y-37510000D03*
X33100000Y-37510000D03*
X34370000Y-37510000D03*
X35640000Y-37510000D03*
X36910000Y-37510000D03*
X38180000Y-37510000D03*
X39450000Y-37510000D03*
X40720000Y-37510000D03*
D27*
X43750000Y-36260000D03*
X43750000Y-34990000D03*
X43750000Y-33720000D03*
X43750000Y-32450000D03*
X43750000Y-31180000D03*
X43750000Y-29910000D03*
X43750000Y-28640000D03*
X43750000Y-27370000D03*
X43750000Y-26100000D03*
X43750000Y-24830000D03*
X43750000Y-23560000D03*
X43750000Y-22290000D03*
X43750000Y-21020000D03*
X43750000Y-19750000D03*
D29*
X32795000Y-25565000D03*
X32795000Y-27090000D03*
X32795000Y-28615000D03*
X34320000Y-25565000D03*
X34320000Y-27090000D03*
X34320000Y-28615000D03*
X35845000Y-25565000D03*
X35845000Y-27090000D03*
X35845000Y-28615000D03*
%TD*%
D21*
%TO.C,R16*%
X20262500Y-70000000D03*
X22087500Y-70000000D03*
%TD*%
%TO.C,R15*%
X19087500Y-67000000D03*
X20912500Y-67000000D03*
%TD*%
D20*
%TO.C,D7*%
X43000000Y-70000000D03*
X47000000Y-70000000D03*
%TD*%
D24*
%TO.C,Q2*%
X24062500Y-92050000D03*
X24062500Y-93950000D03*
X25937500Y-93000000D03*
%TD*%
D21*
%TO.C,R5*%
X49087500Y-104340000D03*
X50912500Y-104340000D03*
%TD*%
D22*
%TO.C,LED1*%
X9062500Y-84000000D03*
X10937500Y-84000000D03*
%TD*%
D21*
%TO.C,R2*%
X14087500Y-87000000D03*
X15912500Y-87000000D03*
%TD*%
D30*
%TO.C,SW2*%
X54025000Y-37750000D03*
X61975000Y-37750000D03*
X54025000Y-42250000D03*
X61975000Y-42250000D03*
%TD*%
D10*
%TO.C,C6*%
X57050000Y-72000000D03*
X58950000Y-72000000D03*
%TD*%
D11*
%TO.C,R11*%
X2687500Y-55387500D03*
X2687500Y-53562500D03*
%TD*%
D21*
%TO.C,R8*%
X37087500Y-84000000D03*
X38912500Y-84000000D03*
%TD*%
D24*
%TO.C,Q1*%
X53907500Y-99050000D03*
X53907500Y-100950000D03*
X55782500Y-100000000D03*
%TD*%
D21*
%TO.C,R1*%
X14087500Y-84000000D03*
X15912500Y-84000000D03*
%TD*%
%TO.C,R24*%
X29087500Y-52000000D03*
X30912500Y-52000000D03*
%TD*%
D31*
%TO.C,D6*%
X17850000Y-53000000D03*
X22150000Y-53000000D03*
%TD*%
D21*
%TO.C,R23*%
X29087500Y-48000000D03*
X30912500Y-48000000D03*
%TD*%
D10*
%TO.C,C1*%
X39050000Y-48000000D03*
X40950000Y-48000000D03*
%TD*%
D30*
%TO.C,SW1*%
X8025000Y-37750000D03*
X15975000Y-37750000D03*
X8025000Y-42250000D03*
X15975000Y-42250000D03*
%TD*%
D22*
%TO.C,LED5*%
X24062500Y-67000000D03*
X25937500Y-67000000D03*
%TD*%
D32*
%TO.C,U2*%
X58850000Y-64700000D03*
X58850000Y-67000000D03*
D33*
X65150000Y-67000000D03*
D32*
X58850000Y-69300000D03*
%TD*%
D25*
%TO.C,L1*%
X43937500Y-64000000D03*
X46062500Y-64000000D03*
%TD*%
M02*
