%TF.GenerationSoftware,KiCad,Pcbnew,7.0.11+dfsg-1build4*%
%TF.CreationDate,2026-05-20T07:12:28+00:00*%
%TF.ProjectId,paymentbox_v8_2,7061796d-656e-4746-926f-785f76385f32,rev?*%
%TF.SameCoordinates,Original*%
%TF.FileFunction,Copper,L2,Bot*%
%TF.FilePolarity,Positive*%
%FSLAX46Y46*%
G04 Gerber Fmt 4.6, Leading zero omitted, Abs format (unit mm)*
G04 Created by KiCad (PCBNEW 7.0.11+dfsg-1build4) date 2026-05-20 07:12:28*
%MOMM*%
%LPD*%
G01*
G04 APERTURE LIST*
%TA.AperFunction,ComponentPad*%
%ADD10C,5.600000*%
%TD*%
%TA.AperFunction,ComponentPad*%
%ADD11R,1.700000X1.700000*%
%TD*%
%TA.AperFunction,ComponentPad*%
%ADD12O,1.700000X1.700000*%
%TD*%
%TA.AperFunction,ComponentPad*%
%ADD13C,0.650000*%
%TD*%
%TA.AperFunction,ComponentPad*%
%ADD14O,1.400000X0.800000*%
%TD*%
%TA.AperFunction,ComponentPad*%
%ADD15O,2.000000X3.000000*%
%TD*%
%TA.AperFunction,ComponentPad*%
%ADD16R,3.000000X2.000000*%
%TD*%
%TA.AperFunction,ComponentPad*%
%ADD17O,3.000000X2.000000*%
%TD*%
%TA.AperFunction,ComponentPad*%
%ADD18R,1.600000X1.600000*%
%TD*%
%TA.AperFunction,ComponentPad*%
%ADD19O,1.600000X1.600000*%
%TD*%
%TA.AperFunction,ComponentPad*%
%ADD20R,3.960000X1.980000*%
%TD*%
%TA.AperFunction,ComponentPad*%
%ADD21O,3.960000X1.980000*%
%TD*%
%TA.AperFunction,HeatsinkPad*%
%ADD22C,0.600000*%
%TD*%
%TA.AperFunction,ViaPad*%
%ADD23C,0.800000*%
%TD*%
%TA.AperFunction,Conductor*%
%ADD24C,0.250000*%
%TD*%
G04 APERTURE END LIST*
D10*
%TO.P,MH1,1*%
%TO.N,GND*%
X4000000Y-4000000D03*
%TD*%
%TO.P,MH2,1*%
%TO.N,GND*%
X71000000Y-4000000D03*
%TD*%
D11*
%TO.P,J5,1*%
%TO.N,BAT+*%
X32000000Y-67000000D03*
D12*
%TO.P,J5,2*%
%TO.N,GND*%
X32000000Y-69540000D03*
%TD*%
D13*
%TO.P,J1,B1*%
%TO.N,GND*%
X6290000Y-47200000D03*
%TO.P,J1,B2*%
%TO.N,N/C*%
X6990000Y-47600000D03*
%TO.P,J1,B3*%
X6990000Y-48400000D03*
%TO.P,J1,B4*%
%TO.N,+5V_USB_RAW*%
X6290000Y-48800000D03*
%TO.P,J1,B5*%
%TO.N,USB_CC2*%
X6990000Y-49200000D03*
%TO.P,J1,B6*%
%TO.N,N/C*%
X6290000Y-49600000D03*
%TO.P,J1,B7*%
X6290000Y-50400000D03*
%TO.P,J1,B8*%
X6990000Y-50800000D03*
%TO.P,J1,B9*%
%TO.N,+5V_USB_RAW*%
X6290000Y-51200000D03*
%TO.P,J1,B10*%
%TO.N,N/C*%
X6990000Y-51600000D03*
%TO.P,J1,B11*%
X6990000Y-52400000D03*
%TO.P,J1,B12*%
%TO.N,GND*%
X6290000Y-52800000D03*
D14*
%TO.P,J1,S1*%
%TO.N,N/C*%
X12840000Y-54490000D03*
X6890000Y-54130000D03*
X6890000Y-45870000D03*
%TO.N,GND*%
X12840000Y-45510000D03*
%TD*%
D15*
%TO.P,K1,11*%
%TO.N,RELAY_COM*%
X80300000Y-97500000D03*
%TO.P,K1,12*%
%TO.N,RELAY_NC*%
X75260000Y-105000000D03*
%TO.P,K1,14*%
%TO.N,RELAY_NO*%
X85340000Y-105000000D03*
D16*
%TO.P,K1,A1*%
%TO.N,+5V_SYS*%
X60000000Y-105000000D03*
D17*
%TO.P,K1,A2*%
%TO.N,RELAY_COIL_LOW*%
X60000000Y-97500000D03*
%TD*%
D11*
%TO.P,J2,1*%
%TO.N,GND*%
X55000000Y-84000000D03*
D12*
%TO.P,J2,2*%
%TO.N,UART_TX*%
X57540000Y-84000000D03*
%TO.P,J2,3*%
%TO.N,UART_RX*%
X60080000Y-84000000D03*
%TO.P,J2,4*%
%TO.N,+3V3*%
X62620000Y-84000000D03*
%TD*%
D10*
%TO.P,MH4,1*%
%TO.N,GND*%
X71000000Y-106000000D03*
%TD*%
%TO.P,MH3,1*%
%TO.N,GND*%
X4000000Y-106000000D03*
%TD*%
D18*
%TO.P,OPT1,1*%
%TO.N,RELAY_OPTO_LED*%
X50000000Y-100000000D03*
D19*
%TO.P,OPT1,2*%
%TO.N,GND*%
X50000000Y-102540000D03*
%TO.P,OPT1,3*%
%TO.N,N/C*%
X57620000Y-102540000D03*
%TO.P,OPT1,4*%
%TO.N,RELAY_OPTO_OUT*%
X57620000Y-100000000D03*
%TD*%
D20*
%TO.P,J4,1*%
%TO.N,RELAY_COM*%
X68000000Y-101025000D03*
D21*
%TO.P,J4,2*%
%TO.N,RELAY_NC*%
X68000000Y-96025000D03*
%TO.P,J4,3*%
%TO.N,RELAY_NO*%
X68000000Y-91025000D03*
%TD*%
D22*
%TO.P,U1,39*%
%TO.N,N/C*%
X32795000Y-26327500D03*
X32795000Y-27852500D03*
X33557500Y-25565000D03*
X33557500Y-27090000D03*
X33557500Y-28615000D03*
X34320000Y-26327500D03*
X34320000Y-27852500D03*
X35082500Y-25565000D03*
X35082500Y-27090000D03*
X35082500Y-28615000D03*
X35845000Y-26327500D03*
X35845000Y-27852500D03*
%TD*%
D11*
%TO.P,J3,1*%
%TO.N,+5V_SYS*%
X60000000Y-87895000D03*
D12*
%TO.P,J3,2*%
%TO.N,+3V3*%
X62540000Y-87895000D03*
%TO.P,J3,3*%
%TO.N,GND*%
X65080000Y-87895000D03*
%TO.P,J3,4*%
%TO.N,I2C_SDA*%
X67620000Y-87895000D03*
%TO.P,J3,5*%
%TO.N,I2C_SCL*%
X70160000Y-87895000D03*
%TO.P,J3,6*%
%TO.N,EXP_GPIO*%
X72700000Y-87895000D03*
%TD*%
D23*
%TO.N,+5V_USB_RAW*%
X17500000Y-48000000D03*
X4500000Y-46000000D03*
X17500000Y-46000000D03*
%TO.N,+5V_PROT_RAW*%
X22000000Y-48000000D03*
%TO.N,Q3_GATE*%
X26000000Y-49000000D03*
%TO.N,+5V_SAFE*%
X11500000Y-67500000D03*
%TO.N,BOOST_SW*%
X38500000Y-66000000D03*
%TO.N,BOOST_FB*%
X50500000Y-65000000D03*
%TO.N,ADC_BAT*%
X56000000Y-63000000D03*
%TO.N,USB_CC1*%
X4500000Y-50500000D03*
%TO.N,CHRG_N*%
X19000000Y-68500000D03*
X17500000Y-65500000D03*
X16000000Y-65000000D03*
%TO.N,DONE_N*%
X16000000Y-66500000D03*
%TO.N,DONE_LED*%
X20500000Y-71500000D03*
X20500000Y-67000000D03*
X20500000Y-62500000D03*
%TO.N,EN_RST*%
X24500000Y-22000000D03*
X22000000Y-27000000D03*
X23000000Y-27000000D03*
%TO.N,GPIO0_BOOT*%
X49000000Y-27000000D03*
X48000000Y-27000000D03*
X49500000Y-34500000D03*
%TO.N,I2C_SDA*%
X37000000Y-93500000D03*
X18500000Y-102000000D03*
X14000000Y-101500000D03*
%TO.N,I2C_SCL*%
X18500000Y-100500000D03*
X38500000Y-92000000D03*
X38500000Y-87000000D03*
%TO.N,SPI_SCK*%
X30000000Y-96000000D03*
X24500000Y-34500000D03*
X24500000Y-62500000D03*
X29500000Y-95000000D03*
X25500000Y-85500000D03*
X24500000Y-51500000D03*
X24500000Y-48500000D03*
%TO.N,SPI_MOSI*%
X45000000Y-68500000D03*
X43500000Y-82500000D03*
X45000000Y-73500000D03*
X45000000Y-19500000D03*
X43500000Y-85500000D03*
X32000000Y-97500000D03*
%TO.N,SPI_MISO*%
X46500000Y-85500000D03*
X28000000Y-96000000D03*
X46500000Y-82500000D03*
X46500000Y-63000000D03*
X46000000Y-27000000D03*
X46500000Y-73500000D03*
X28000000Y-97000000D03*
%TO.N,SPI_CS_SD*%
X42000000Y-82500000D03*
X33500000Y-95000000D03*
X42000000Y-85500000D03*
X42000000Y-64500000D03*
X42000000Y-73500000D03*
X33500000Y-96000000D03*
X42000000Y-29500000D03*
%TO.N,UART_TX*%
X54500000Y-68500000D03*
X54500000Y-73500000D03*
X46500000Y-22000000D03*
%TO.N,UART_RX*%
X60000000Y-82500000D03*
X47500000Y-23500000D03*
X60000000Y-70500000D03*
%TO.N,LED_R_DRV*%
X22000000Y-31000000D03*
%TO.N,LED_R_ANODE*%
X10500000Y-84000000D03*
%TO.N,LED_G_DRV*%
X20500000Y-37500000D03*
X19000000Y-48500000D03*
X42000000Y-35000000D03*
X16000000Y-50000000D03*
%TO.N,LED_G_ANODE*%
X10500000Y-87000000D03*
%TO.N,LED_B_DRV*%
X20500000Y-55000000D03*
X43500000Y-55000000D03*
%TO.N,LED_B_ANODE*%
X10500000Y-90000000D03*
%TO.N,BUZZ_DRV*%
X32500000Y-38500000D03*
X28500000Y-82500000D03*
X32500000Y-62500000D03*
X21000000Y-93000000D03*
X29500000Y-73500000D03*
%TO.N,BUZZ_BASE*%
X22500000Y-93000000D03*
%TO.N,BUZZ_COLLECTOR*%
X32000000Y-87000000D03*
X29500000Y-93000000D03*
X29500000Y-87000000D03*
%TO.N,RELAY_DRV*%
X40500000Y-36500000D03*
X41000000Y-31000000D03*
X48000000Y-31000000D03*
%TO.N,EXP_GPIO*%
X27500000Y-33500000D03*
X39000000Y-33500000D03*
X51000000Y-33000000D03*
X32500000Y-33500000D03*
%TO.N,PROG*%
X11500000Y-65000000D03*
%TD*%
D24*
%TO.N,+5V_USB_RAW*%
X4500000Y-46000000D02*
X4500000Y-48500000D01*
X17500000Y-48000000D02*
X17500000Y-46000000D01*
%TO.N,+5V_PROT_RAW*%
X22000000Y-48000000D02*
X27500000Y-50000000D01*
%TO.N,Q3_GATE*%
X26000000Y-49000000D02*
X30500000Y-48000000D01*
%TO.N,+5V_SAFE*%
X11500000Y-67500000D02*
X9000000Y-70000000D01*
%TO.N,BAT+*%
X16000000Y-67500000D02*
X17000000Y-70000000D01*
%TO.N,BOOST_SW*%
X38500000Y-66000000D02*
X43000000Y-70000000D01*
%TO.N,BOOST_FB*%
X50500000Y-65000000D02*
X52000000Y-68000000D01*
%TO.N,ADC_BAT*%
X56000000Y-63000000D02*
X56000000Y-68500000D01*
%TO.N,USB_CC1*%
X4500000Y-50500000D02*
X3500000Y-55500000D01*
%TO.N,CHRG_N*%
X19000000Y-68500000D02*
X19000000Y-70000000D01*
X16000000Y-65000000D02*
X17500000Y-65500000D01*
%TO.N,CHRG_LED*%
X24000000Y-64000000D02*
X20500000Y-70000000D01*
%TO.N,DONE_N*%
X16000000Y-66500000D02*
X19000000Y-67000000D01*
%TO.N,DONE_LED*%
X20500000Y-71500000D02*
X24000000Y-67000000D01*
X20500000Y-67000000D02*
X20500000Y-62500000D01*
%TO.N,EN_RST*%
X24500000Y-22000000D02*
X26000000Y-22000000D01*
X22000000Y-27000000D02*
X23000000Y-27000000D01*
%TO.N,GPIO0_BOOT*%
X49500000Y-34500000D02*
X43500000Y-34500000D01*
X48000000Y-27000000D02*
X49000000Y-27000000D01*
%TO.N,I2C_SDA*%
X37000000Y-93500000D02*
X38500000Y-84000000D01*
X14000000Y-101500000D02*
X18500000Y-102000000D01*
%TO.N,I2C_SCL*%
X18500000Y-100500000D02*
X14000000Y-100500000D01*
X38500000Y-87000000D02*
X38500000Y-92000000D01*
%TO.N,SPI_SCK*%
X24500000Y-51500000D02*
X24500000Y-48500000D01*
X24500000Y-34500000D02*
X26000000Y-34500000D01*
X25500000Y-85500000D02*
X24500000Y-62500000D01*
X30000000Y-96000000D02*
X29500000Y-95000000D01*
%TO.N,SPI_MOSI*%
X45000000Y-19500000D02*
X43500000Y-19500000D01*
X43500000Y-85500000D02*
X43500000Y-82500000D01*
X45000000Y-73500000D02*
X45000000Y-68500000D01*
X32500000Y-96000000D02*
X32000000Y-97500000D01*
%TO.N,SPI_MISO*%
X46000000Y-27000000D02*
X43500000Y-27000000D01*
X46500000Y-85500000D02*
X46500000Y-82500000D01*
X28000000Y-96000000D02*
X28000000Y-97000000D01*
X46500000Y-73500000D02*
X46500000Y-63000000D01*
%TO.N,SPI_CS_SD*%
X42000000Y-29500000D02*
X43500000Y-29500000D01*
X33500000Y-96000000D02*
X33500000Y-95000000D01*
X42000000Y-73500000D02*
X42000000Y-64500000D01*
X42000000Y-85500000D02*
X42000000Y-82500000D01*
%TO.N,UART_TX*%
X54500000Y-73500000D02*
X54500000Y-68500000D01*
X46500000Y-22000000D02*
X43500000Y-22000000D01*
%TO.N,UART_RX*%
X60000000Y-82500000D02*
X60000000Y-70500000D01*
X47500000Y-23500000D02*
X43500000Y-23500000D01*
%TO.N,LED_R_DRV*%
X22000000Y-31000000D02*
X26000000Y-36000000D01*
%TO.N,LED_R_ANODE*%
X10500000Y-84000000D02*
X15500000Y-84000000D01*
%TO.N,LED_G_DRV*%
X19000000Y-48500000D02*
X16000000Y-50000000D01*
X42000000Y-35000000D02*
X20500000Y-37500000D01*
%TO.N,LED_G_ANODE*%
X10500000Y-87000000D02*
X15500000Y-87000000D01*
%TO.N,LED_B_DRV*%
X20500000Y-55000000D02*
X43500000Y-55000000D01*
%TO.N,LED_B_ANODE*%
X10500000Y-90000000D02*
X15500000Y-90000000D01*
%TO.N,BUZZ_DRV*%
X21000000Y-93000000D02*
X28500000Y-82500000D01*
X29500000Y-73500000D02*
X32500000Y-62500000D01*
X32500000Y-38500000D02*
X30500000Y-37500000D01*
%TO.N,BUZZ_BASE*%
X22500000Y-93000000D02*
X24000000Y-92000000D01*
%TO.N,BUZZ_COLLECTOR*%
X29500000Y-93000000D02*
X25500000Y-93000000D01*
X32000000Y-87000000D02*
X29500000Y-87000000D01*
%TO.N,RELAY_DRV*%
X48000000Y-31000000D02*
X41000000Y-31000000D01*
X40500000Y-36500000D02*
X40500000Y-37500000D01*
%TO.N,EXP_GPIO*%
X39000000Y-33500000D02*
X51000000Y-33000000D01*
X27500000Y-33500000D02*
X32500000Y-33500000D01*
%TO.N,PROG*%
X11500000Y-65000000D02*
X19000000Y-64000000D01*
%TD*%
%TA.AperFunction,Conductor*%
%TO.N,GND*%
G36*
X705703Y-106480934D02*
G01*
X743477Y-106539712D01*
X746866Y-106554586D01*
X772415Y-106710431D01*
X772421Y-106710457D01*
X868147Y-107055232D01*
X868149Y-107055239D01*
X1000597Y-107387659D01*
X1000606Y-107387677D01*
X1168218Y-107703827D01*
X1369024Y-107999994D01*
X1369035Y-108000008D01*
X1496441Y-108150002D01*
X1496442Y-108150002D01*
X2702265Y-106944179D01*
X2865130Y-107134870D01*
X3055819Y-107297733D01*
X1847257Y-108506294D01*
X1860495Y-108518836D01*
X2145367Y-108735388D01*
X2145370Y-108735390D01*
X2451990Y-108919876D01*
X2776739Y-109070122D01*
X2776744Y-109070123D01*
X3115857Y-109184384D01*
X3433934Y-109254399D01*
X3495175Y-109288035D01*
X3528509Y-109349440D01*
X3523353Y-109419120D01*
X3481344Y-109474950D01*
X3415819Y-109499205D01*
X3407278Y-109499500D01*
X3003751Y-109499500D01*
X2996264Y-109499274D01*
X2706205Y-109481728D01*
X2691340Y-109479923D01*
X2409201Y-109428219D01*
X2394663Y-109424635D01*
X2120832Y-109339306D01*
X2106831Y-109333997D01*
X1845263Y-109216275D01*
X1832004Y-109209316D01*
X1630926Y-109087760D01*
X1586537Y-109060926D01*
X1574217Y-109052422D01*
X1348426Y-108875526D01*
X1337218Y-108865596D01*
X1134403Y-108662781D01*
X1124473Y-108651573D01*
X1020480Y-108518836D01*
X947573Y-108425776D01*
X939075Y-108413465D01*
X790680Y-108167989D01*
X783727Y-108154743D01*
X666000Y-107893163D01*
X660693Y-107879167D01*
X575364Y-107605336D01*
X571780Y-107590798D01*
X520076Y-107308659D01*
X518271Y-107293794D01*
X500726Y-107003736D01*
X500500Y-106996249D01*
X500500Y-106574647D01*
X520185Y-106507608D01*
X572989Y-106461853D01*
X642147Y-106451909D01*
X705703Y-106480934D01*
G37*
%TD.AperFunction*%
%TA.AperFunction,Conductor*%
G36*
X10943039Y-520185D02*
G01*
X10988794Y-572989D01*
X11000000Y-624500D01*
X11000000Y-18200000D01*
X59000000Y-18200000D01*
X59000000Y-624500D01*
X59019685Y-557461D01*
X59072489Y-511706D01*
X59124000Y-500500D01*
X70407278Y-500500D01*
X70474317Y-520185D01*
X70520072Y-572989D01*
X70530016Y-642147D01*
X70500991Y-705703D01*
X70442213Y-743477D01*
X70433934Y-745601D01*
X70115857Y-815615D01*
X69776744Y-929876D01*
X69776739Y-929877D01*
X69451990Y-1080123D01*
X69145370Y-1264609D01*
X69145367Y-1264611D01*
X68860486Y-1481170D01*
X68860485Y-1481171D01*
X68847257Y-1493702D01*
X68847256Y-1493703D01*
X70055819Y-2702266D01*
X69865130Y-2865130D01*
X69702266Y-3055819D01*
X68496442Y-1849995D01*
X68496441Y-1849996D01*
X68369033Y-1999992D01*
X68168218Y-2296172D01*
X68000606Y-2612322D01*
X68000597Y-2612340D01*
X67868149Y-2944760D01*
X67868147Y-2944767D01*
X67772421Y-3289542D01*
X67772415Y-3289568D01*
X67714527Y-3642668D01*
X67714526Y-3642685D01*
X67695153Y-3999997D01*
X67695153Y-4000002D01*
X67714526Y-4357314D01*
X67714527Y-4357331D01*
X67772415Y-4710431D01*
X67772421Y-4710457D01*
X67868147Y-5055232D01*
X67868149Y-5055239D01*
X68000597Y-5387659D01*
X68000606Y-5387677D01*
X68168218Y-5703827D01*
X68369024Y-5999994D01*
X68369035Y-6000008D01*
X68496441Y-6150002D01*
X68496442Y-6150002D01*
X69702265Y-4944179D01*
X69865130Y-5134870D01*
X70055819Y-5297733D01*
X68847257Y-6506294D01*
X68860495Y-6518836D01*
X69145367Y-6735388D01*
X69145370Y-6735390D01*
X69451990Y-6919876D01*
X69776739Y-7070122D01*
X69776744Y-7070123D01*
X70115855Y-7184383D01*
X70465339Y-7261311D01*
X70821075Y-7299999D01*
X70821085Y-7300000D01*
X71178915Y-7300000D01*
X71178924Y-7299999D01*
X71534660Y-7261311D01*
X71884144Y-7184383D01*
X72223255Y-7070123D01*
X72223260Y-7070122D01*
X72548009Y-6919876D01*
X72854629Y-6735390D01*
X72854632Y-6735388D01*
X73139509Y-6518831D01*
X73152742Y-6506295D01*
X73152742Y-6506294D01*
X71944181Y-5297733D01*
X72134870Y-5134870D01*
X72297733Y-4944180D01*
X73503556Y-6150002D01*
X73630972Y-5999998D01*
X73630975Y-5999994D01*
X73831781Y-5703827D01*
X73999393Y-5387677D01*
X73999402Y-5387659D01*
X74131850Y-5055239D01*
X74131852Y-5055232D01*
X74227578Y-4710457D01*
X74227584Y-4710431D01*
X74253134Y-4554586D01*
X74283404Y-4491614D01*
X74342915Y-4455005D01*
X74412771Y-4456381D01*
X74470794Y-4495306D01*
X74498562Y-4559421D01*
X74499500Y-4574647D01*
X74499500Y-103131539D01*
X74479815Y-103198578D01*
X74440002Y-103235507D01*
X74440792Y-103236716D01*
X74436494Y-103239523D01*
X74240257Y-103392261D01*
X74071833Y-103575217D01*
X73935826Y-103783393D01*
X73848574Y-103982308D01*
X73803618Y-104035794D01*
X73736882Y-104056484D01*
X73669554Y-104037809D01*
X73632385Y-104002086D01*
X73630964Y-103999990D01*
X73503556Y-103849996D01*
X72297733Y-105055818D01*
X72134870Y-104865130D01*
X71944180Y-104702266D01*
X73152742Y-103493704D01*
X73139504Y-103481163D01*
X72854632Y-103264611D01*
X72854629Y-103264609D01*
X72548009Y-103080123D01*
X72223260Y-102929877D01*
X72223255Y-102929876D01*
X71884144Y-102815616D01*
X71534660Y-102738688D01*
X71178924Y-102700000D01*
X70821075Y-102700000D01*
X70465339Y-102738688D01*
X70115855Y-102815616D01*
X69776744Y-102929876D01*
X69776739Y-102929877D01*
X69451990Y-103080123D01*
X69145370Y-103264609D01*
X69145367Y-103264611D01*
X68860486Y-103481170D01*
X68860485Y-103481171D01*
X68847257Y-103493702D01*
X68847256Y-103493703D01*
X70055819Y-104702266D01*
X69865130Y-104865130D01*
X69702266Y-105055819D01*
X68496442Y-103849995D01*
X68496441Y-103849996D01*
X68369033Y-103999992D01*
X68168218Y-104296172D01*
X68000606Y-104612322D01*
X68000597Y-104612340D01*
X67868149Y-104944760D01*
X67868147Y-104944767D01*
X67772421Y-105289542D01*
X67772415Y-105289568D01*
X67714527Y-105642668D01*
X67714526Y-105642685D01*
X67695153Y-105999997D01*
X67695153Y-106000002D01*
X67714526Y-106357314D01*
X67714527Y-106357331D01*
X67772415Y-106710431D01*
X67772421Y-106710457D01*
X67868147Y-107055232D01*
X67868149Y-107055239D01*
X68000597Y-107387659D01*
X68000606Y-107387677D01*
X68168218Y-107703827D01*
X68369024Y-107999994D01*
X68369035Y-108000008D01*
X68496441Y-108150002D01*
X68496442Y-108150002D01*
X69702265Y-106944179D01*
X69865130Y-107134870D01*
X70055819Y-107297733D01*
X68847257Y-108506294D01*
X68860495Y-108518836D01*
X69145367Y-108735388D01*
X69145370Y-108735390D01*
X69451990Y-108919876D01*
X69776739Y-109070122D01*
X69776744Y-109070123D01*
X70115857Y-109184384D01*
X70433934Y-109254399D01*
X70495175Y-109288035D01*
X70528509Y-109349440D01*
X70523353Y-109419120D01*
X70481344Y-109474950D01*
X70415819Y-109499205D01*
X70407278Y-109499500D01*
X4592722Y-109499500D01*
X4525683Y-109479815D01*
X4479928Y-109427011D01*
X4469984Y-109357853D01*
X4499009Y-109294297D01*
X4557787Y-109256523D01*
X4566066Y-109254399D01*
X4884142Y-109184384D01*
X5223255Y-109070123D01*
X5223260Y-109070122D01*
X5548009Y-108919876D01*
X5854629Y-108735390D01*
X5854632Y-108735388D01*
X6139509Y-108518831D01*
X6152742Y-108506295D01*
X6152742Y-108506294D01*
X4944181Y-107297733D01*
X5134870Y-107134870D01*
X5297733Y-106944180D01*
X6503556Y-108150002D01*
X6630972Y-107999998D01*
X6630975Y-107999994D01*
X6831781Y-107703827D01*
X6999393Y-107387677D01*
X6999402Y-107387659D01*
X7131850Y-107055239D01*
X7131852Y-107055232D01*
X7227578Y-106710457D01*
X7227584Y-106710431D01*
X7285472Y-106357331D01*
X7285473Y-106357314D01*
X7304847Y-106000002D01*
X7304847Y-105999997D01*
X7285473Y-105642685D01*
X7285472Y-105642668D01*
X7227584Y-105289568D01*
X7227578Y-105289542D01*
X7131852Y-104944767D01*
X7131850Y-104944760D01*
X6999402Y-104612340D01*
X6999393Y-104612322D01*
X6831781Y-104296172D01*
X6630975Y-104000005D01*
X6630964Y-103999991D01*
X6503556Y-103849996D01*
X5297733Y-105055819D01*
X5134870Y-104865130D01*
X4944180Y-104702266D01*
X6152742Y-103493704D01*
X6139504Y-103481163D01*
X5854632Y-103264611D01*
X5854629Y-103264609D01*
X5548009Y-103080123D01*
X5223260Y-102929877D01*
X5223255Y-102929876D01*
X4884144Y-102815616D01*
X4534660Y-102738688D01*
X4178924Y-102700000D01*
X3821075Y-102700000D01*
X3465339Y-102738688D01*
X3115855Y-102815616D01*
X2776744Y-102929876D01*
X2776739Y-102929877D01*
X2451990Y-103080123D01*
X2145370Y-103264609D01*
X2145367Y-103264611D01*
X1860486Y-103481170D01*
X1860485Y-103481171D01*
X1847257Y-103493702D01*
X1847256Y-103493703D01*
X3055819Y-104702266D01*
X2865130Y-104865130D01*
X2702266Y-105055819D01*
X1496442Y-103849995D01*
X1496441Y-103849996D01*
X1369033Y-103999992D01*
X1168218Y-104296172D01*
X1000606Y-104612322D01*
X1000597Y-104612340D01*
X868149Y-104944760D01*
X868147Y-104944767D01*
X772421Y-105289542D01*
X772415Y-105289568D01*
X746866Y-105445413D01*
X716595Y-105508385D01*
X657085Y-105544994D01*
X587229Y-105543618D01*
X529206Y-105504693D01*
X501438Y-105440578D01*
X500500Y-105425352D01*
X500500Y-101500000D01*
X13094540Y-101500000D01*
X13114326Y-101688256D01*
X13114327Y-101688259D01*
X13172818Y-101868277D01*
X13172821Y-101868284D01*
X13267467Y-102032216D01*
X13377874Y-102154835D01*
X13394129Y-102172888D01*
X13547265Y-102284148D01*
X13547270Y-102284151D01*
X13720192Y-102361142D01*
X13720197Y-102361144D01*
X13905354Y-102400500D01*
X13905355Y-102400500D01*
X14094644Y-102400500D01*
X14094646Y-102400500D01*
X14279803Y-102361144D01*
X14452730Y-102284151D01*
X14538629Y-102221741D01*
X14604435Y-102198260D01*
X14625207Y-102198815D01*
X17736327Y-102544496D01*
X17800782Y-102571464D01*
X17814778Y-102584760D01*
X17894129Y-102672888D01*
X17894132Y-102672890D01*
X18047265Y-102784148D01*
X18047270Y-102784151D01*
X18220192Y-102861142D01*
X18220197Y-102861144D01*
X18405354Y-102900500D01*
X18405355Y-102900500D01*
X18594644Y-102900500D01*
X18594646Y-102900500D01*
X18779803Y-102861144D01*
X18952730Y-102784151D01*
X19105871Y-102672888D01*
X19232533Y-102532216D01*
X19327179Y-102368284D01*
X19385674Y-102188256D01*
X19405460Y-102000000D01*
X19385674Y-101811744D01*
X19327179Y-101631716D01*
X19232533Y-101467784D01*
X19111146Y-101332971D01*
X19080917Y-101269981D01*
X19089542Y-101200646D01*
X19111147Y-101167028D01*
X19119685Y-101157546D01*
X19232533Y-101032216D01*
X19327179Y-100868284D01*
X19333812Y-100847870D01*
X48699500Y-100847870D01*
X48699501Y-100847876D01*
X48705908Y-100907483D01*
X48756202Y-101042328D01*
X48756206Y-101042335D01*
X48842452Y-101157544D01*
X48842455Y-101157547D01*
X48957664Y-101243793D01*
X48957671Y-101243797D01*
X49092513Y-101294090D01*
X49092514Y-101294090D01*
X49092517Y-101294091D01*
X49128353Y-101297944D01*
X49192901Y-101324679D01*
X49232751Y-101382070D01*
X49235246Y-101451896D01*
X49199595Y-101511985D01*
X49186223Y-101522805D01*
X49161182Y-101540339D01*
X49000342Y-101701179D01*
X48869865Y-101887517D01*
X48773734Y-102093673D01*
X48773730Y-102093682D01*
X48721127Y-102289999D01*
X48721128Y-102290000D01*
X49684314Y-102290000D01*
X49672359Y-102301955D01*
X49614835Y-102414852D01*
X49595014Y-102540000D01*
X49614835Y-102665148D01*
X49672359Y-102778045D01*
X49684314Y-102790000D01*
X48721128Y-102790000D01*
X48773730Y-102986317D01*
X48773734Y-102986326D01*
X48869865Y-103192482D01*
X49000342Y-103378820D01*
X49161179Y-103539657D01*
X49347517Y-103670134D01*
X49553673Y-103766265D01*
X49553682Y-103766269D01*
X49749999Y-103818872D01*
X49750000Y-103818871D01*
X49750000Y-102855686D01*
X49761955Y-102867641D01*
X49874852Y-102925165D01*
X49968519Y-102940000D01*
X50031481Y-102940000D01*
X50125148Y-102925165D01*
X50238045Y-102867641D01*
X50250000Y-102855686D01*
X50250000Y-103818872D01*
X50446317Y-103766269D01*
X50446326Y-103766265D01*
X50652482Y-103670134D01*
X50838820Y-103539657D01*
X50999657Y-103378820D01*
X51130134Y-103192482D01*
X51226265Y-102986326D01*
X51226269Y-102986317D01*
X51278872Y-102790000D01*
X50315686Y-102790000D01*
X50327641Y-102778045D01*
X50385165Y-102665148D01*
X50404986Y-102540001D01*
X56314532Y-102540001D01*
X56334364Y-102766686D01*
X56334366Y-102766697D01*
X56393258Y-102986488D01*
X56393261Y-102986497D01*
X56489431Y-103192732D01*
X56489432Y-103192734D01*
X56619954Y-103379141D01*
X56780858Y-103540045D01*
X56780861Y-103540047D01*
X56967266Y-103670568D01*
X57173504Y-103766739D01*
X57393308Y-103825635D01*
X57555230Y-103839801D01*
X57619998Y-103845468D01*
X57620000Y-103845468D01*
X57620002Y-103845468D01*
X57676673Y-103840509D01*
X57846692Y-103825635D01*
X57846703Y-103825631D01*
X57852026Y-103824694D01*
X57852378Y-103826693D01*
X57913372Y-103828134D01*
X57971242Y-103867286D01*
X57998757Y-103931510D01*
X57999325Y-103948806D01*
X57999500Y-103948806D01*
X57999500Y-106047870D01*
X57999501Y-106047876D01*
X58005908Y-106107483D01*
X58056202Y-106242328D01*
X58056206Y-106242335D01*
X58142452Y-106357544D01*
X58142455Y-106357547D01*
X58257664Y-106443793D01*
X58257671Y-106443797D01*
X58392517Y-106494091D01*
X58392516Y-106494091D01*
X58399444Y-106494835D01*
X58452127Y-106500500D01*
X61547872Y-106500499D01*
X61607483Y-106494091D01*
X61742331Y-106443796D01*
X61857546Y-106357546D01*
X61943796Y-106242331D01*
X61994091Y-106107483D01*
X62000500Y-106047873D01*
X62000499Y-103952128D01*
X61994091Y-103892517D01*
X61984680Y-103867286D01*
X61943797Y-103757671D01*
X61943793Y-103757664D01*
X61857547Y-103642455D01*
X61857544Y-103642452D01*
X61742335Y-103556206D01*
X61742328Y-103556202D01*
X61607482Y-103505908D01*
X61607483Y-103505908D01*
X61547883Y-103499501D01*
X61547881Y-103499500D01*
X61547873Y-103499500D01*
X61547865Y-103499500D01*
X58773971Y-103499500D01*
X58706932Y-103479815D01*
X58661177Y-103427011D01*
X58651233Y-103357853D01*
X58672395Y-103304378D01*
X58684634Y-103286897D01*
X58750568Y-103192734D01*
X58846739Y-102986496D01*
X58905635Y-102766692D01*
X58925468Y-102540000D01*
X58923324Y-102515499D01*
X58913263Y-102400500D01*
X58905635Y-102313308D01*
X58846739Y-102093504D01*
X58832454Y-102062870D01*
X65519500Y-102062870D01*
X65519501Y-102062876D01*
X65525908Y-102122483D01*
X65576202Y-102257328D01*
X65576206Y-102257335D01*
X65662452Y-102372544D01*
X65662455Y-102372547D01*
X65777664Y-102458793D01*
X65777671Y-102458797D01*
X65912517Y-102509091D01*
X65912516Y-102509091D01*
X65919444Y-102509835D01*
X65972127Y-102515500D01*
X70027872Y-102515499D01*
X70087483Y-102509091D01*
X70222331Y-102458796D01*
X70337546Y-102372546D01*
X70423796Y-102257331D01*
X70474091Y-102122483D01*
X70480500Y-102062873D01*
X70480499Y-99987128D01*
X70474091Y-99927517D01*
X70459850Y-99889336D01*
X70423797Y-99792671D01*
X70423793Y-99792664D01*
X70337547Y-99677455D01*
X70337544Y-99677452D01*
X70222335Y-99591206D01*
X70222328Y-99591202D01*
X70087482Y-99540908D01*
X70087483Y-99540908D01*
X70027883Y-99534501D01*
X70027881Y-99534500D01*
X70027873Y-99534500D01*
X70027864Y-99534500D01*
X65972129Y-99534500D01*
X65972123Y-99534501D01*
X65912516Y-99540908D01*
X65777671Y-99591202D01*
X65777664Y-99591206D01*
X65662455Y-99677452D01*
X65662452Y-99677455D01*
X65576206Y-99792664D01*
X65576202Y-99792671D01*
X65525908Y-99927517D01*
X65519501Y-99987116D01*
X65519501Y-99987123D01*
X65519500Y-99987135D01*
X65519500Y-102062870D01*
X58832454Y-102062870D01*
X58750568Y-101887266D01*
X58620047Y-101700861D01*
X58620045Y-101700858D01*
X58459141Y-101539954D01*
X58272734Y-101409432D01*
X58272728Y-101409429D01*
X58214725Y-101382382D01*
X58162285Y-101336210D01*
X58143133Y-101269017D01*
X58163348Y-101202135D01*
X58214725Y-101157618D01*
X58272734Y-101130568D01*
X58459139Y-101000047D01*
X58620047Y-100839139D01*
X58750568Y-100652734D01*
X58846739Y-100446496D01*
X58905635Y-100226692D01*
X58925468Y-100000000D01*
X58924342Y-99987135D01*
X58907329Y-99792671D01*
X58905635Y-99773308D01*
X58846739Y-99553504D01*
X58750568Y-99347266D01*
X58620047Y-99160861D01*
X58620045Y-99160858D01*
X58459141Y-98999954D01*
X58272734Y-98869432D01*
X58272732Y-98869431D01*
X58066497Y-98773261D01*
X58066488Y-98773258D01*
X57846697Y-98714366D01*
X57846693Y-98714365D01*
X57846692Y-98714365D01*
X57846691Y-98714364D01*
X57846686Y-98714364D01*
X57620002Y-98694532D01*
X57619998Y-98694532D01*
X57393313Y-98714364D01*
X57393302Y-98714366D01*
X57173511Y-98773258D01*
X57173502Y-98773261D01*
X56967267Y-98869431D01*
X56967265Y-98869432D01*
X56780858Y-98999954D01*
X56619954Y-99160858D01*
X56489432Y-99347265D01*
X56489431Y-99347267D01*
X56393261Y-99553502D01*
X56393258Y-99553511D01*
X56334366Y-99773302D01*
X56334364Y-99773313D01*
X56314532Y-99999998D01*
X56314532Y-100000001D01*
X56334364Y-100226686D01*
X56334366Y-100226697D01*
X56393258Y-100446488D01*
X56393261Y-100446497D01*
X56489431Y-100652732D01*
X56489432Y-100652734D01*
X56619954Y-100839141D01*
X56780858Y-101000045D01*
X56780861Y-101000047D01*
X56967266Y-101130568D01*
X57025275Y-101157618D01*
X57077714Y-101203791D01*
X57096866Y-101270984D01*
X57076650Y-101337865D01*
X57025275Y-101382382D01*
X56967267Y-101409431D01*
X56967265Y-101409432D01*
X56780858Y-101539954D01*
X56619954Y-101700858D01*
X56489432Y-101887265D01*
X56489431Y-101887267D01*
X56393261Y-102093502D01*
X56393258Y-102093511D01*
X56334366Y-102313302D01*
X56334364Y-102313313D01*
X56314532Y-102539998D01*
X56314532Y-102540001D01*
X50404986Y-102540001D01*
X50404986Y-102540000D01*
X50385165Y-102414852D01*
X50327641Y-102301955D01*
X50315686Y-102290000D01*
X51278872Y-102290000D01*
X51278872Y-102289999D01*
X51226269Y-102093682D01*
X51226265Y-102093673D01*
X51130134Y-101887517D01*
X50999657Y-101701179D01*
X50838820Y-101540342D01*
X50813779Y-101522808D01*
X50770154Y-101468230D01*
X50762962Y-101398732D01*
X50794484Y-101336377D01*
X50854714Y-101300964D01*
X50871650Y-101297943D01*
X50907483Y-101294091D01*
X51042328Y-101243797D01*
X51042327Y-101243797D01*
X51042331Y-101243796D01*
X51157546Y-101157546D01*
X51243796Y-101042331D01*
X51294091Y-100907483D01*
X51300500Y-100847873D01*
X51300499Y-99152128D01*
X51294091Y-99092517D01*
X51259567Y-98999954D01*
X51243797Y-98957671D01*
X51243793Y-98957664D01*
X51157547Y-98842455D01*
X51157544Y-98842452D01*
X51042335Y-98756206D01*
X51042328Y-98756202D01*
X50907482Y-98705908D01*
X50907483Y-98705908D01*
X50847883Y-98699501D01*
X50847881Y-98699500D01*
X50847873Y-98699500D01*
X50847864Y-98699500D01*
X49152129Y-98699500D01*
X49152123Y-98699501D01*
X49092516Y-98705908D01*
X48957671Y-98756202D01*
X48957664Y-98756206D01*
X48842455Y-98842452D01*
X48842452Y-98842455D01*
X48756206Y-98957664D01*
X48756202Y-98957671D01*
X48705908Y-99092517D01*
X48699501Y-99152116D01*
X48699501Y-99152123D01*
X48699500Y-99152135D01*
X48699500Y-100847870D01*
X19333812Y-100847870D01*
X19385674Y-100688256D01*
X19405460Y-100500000D01*
X19385674Y-100311744D01*
X19327179Y-100131716D01*
X19232533Y-99967784D01*
X19105871Y-99827112D01*
X19105870Y-99827111D01*
X18952734Y-99715851D01*
X18952729Y-99715848D01*
X18779807Y-99638857D01*
X18779802Y-99638855D01*
X18634001Y-99607865D01*
X18594646Y-99599500D01*
X18405354Y-99599500D01*
X18372897Y-99606398D01*
X18220197Y-99638855D01*
X18220192Y-99638857D01*
X18047270Y-99715848D01*
X18047265Y-99715851D01*
X17894130Y-99827110D01*
X17894126Y-99827114D01*
X17888400Y-99833474D01*
X17828913Y-99870121D01*
X17796252Y-99874500D01*
X13960640Y-99874500D01*
X13843208Y-99889336D01*
X13843206Y-99889336D01*
X13696269Y-99947513D01*
X13696260Y-99947518D01*
X13568416Y-100040402D01*
X13568415Y-100040403D01*
X13467674Y-100162178D01*
X13400387Y-100305171D01*
X13400385Y-100305174D01*
X13381551Y-100403910D01*
X13370773Y-100460412D01*
X13370773Y-100460414D01*
X13370773Y-100460415D01*
X13380696Y-100618137D01*
X13380696Y-100618140D01*
X13412030Y-100714572D01*
X13414025Y-100784413D01*
X13386249Y-100835863D01*
X13267466Y-100967785D01*
X13172821Y-101131715D01*
X13172818Y-101131722D01*
X13116034Y-101306486D01*
X13114326Y-101311744D01*
X13094540Y-101500000D01*
X500500Y-101500000D01*
X500500Y-90000000D01*
X9594540Y-90000000D01*
X9614326Y-90188256D01*
X9614327Y-90188259D01*
X9672818Y-90368277D01*
X9672821Y-90368284D01*
X9767467Y-90532216D01*
X9880585Y-90657846D01*
X9894129Y-90672888D01*
X10047265Y-90784148D01*
X10047270Y-90784151D01*
X10220192Y-90861142D01*
X10220197Y-90861144D01*
X10405354Y-90900500D01*
X10405355Y-90900500D01*
X10594644Y-90900500D01*
X10594646Y-90900500D01*
X10779803Y-90861144D01*
X10952730Y-90784151D01*
X11105871Y-90672888D01*
X11108788Y-90669647D01*
X11111600Y-90666526D01*
X11171087Y-90629879D01*
X11203748Y-90625500D01*
X15539348Y-90625500D01*
X15539350Y-90625500D01*
X15539355Y-90625499D01*
X15539359Y-90625499D01*
X15552088Y-90623890D01*
X15656792Y-90610664D01*
X15803732Y-90552486D01*
X15931587Y-90459594D01*
X16032324Y-90337823D01*
X16099614Y-90194826D01*
X16129227Y-90039588D01*
X16119304Y-89881862D01*
X16070467Y-89731559D01*
X15985786Y-89598123D01*
X15870582Y-89489938D01*
X15870579Y-89489936D01*
X15870577Y-89489934D01*
X15732095Y-89413804D01*
X15732087Y-89413801D01*
X15579021Y-89374500D01*
X15579019Y-89374500D01*
X11203748Y-89374500D01*
X11136709Y-89354815D01*
X11111600Y-89333474D01*
X11105873Y-89327114D01*
X11105869Y-89327110D01*
X10952734Y-89215851D01*
X10952729Y-89215848D01*
X10779807Y-89138857D01*
X10779802Y-89138855D01*
X10634001Y-89107865D01*
X10594646Y-89099500D01*
X10405354Y-89099500D01*
X10391024Y-89102546D01*
X10220197Y-89138855D01*
X10220192Y-89138857D01*
X10047270Y-89215848D01*
X10047265Y-89215851D01*
X9894129Y-89327111D01*
X9767466Y-89467785D01*
X9672821Y-89631715D01*
X9672818Y-89631722D01*
X9614327Y-89811740D01*
X9614326Y-89811744D01*
X9594540Y-90000000D01*
X500500Y-90000000D01*
X500500Y-87000000D01*
X9594540Y-87000000D01*
X9614326Y-87188256D01*
X9614327Y-87188259D01*
X9672818Y-87368277D01*
X9672821Y-87368284D01*
X9767467Y-87532216D01*
X9856996Y-87631648D01*
X9894129Y-87672888D01*
X10047265Y-87784148D01*
X10047270Y-87784151D01*
X10220192Y-87861142D01*
X10220197Y-87861144D01*
X10405354Y-87900500D01*
X10405355Y-87900500D01*
X10594644Y-87900500D01*
X10594646Y-87900500D01*
X10779803Y-87861144D01*
X10952730Y-87784151D01*
X11105871Y-87672888D01*
X11108788Y-87669647D01*
X11111600Y-87666526D01*
X11171087Y-87629879D01*
X11203748Y-87625500D01*
X15539348Y-87625500D01*
X15539350Y-87625500D01*
X15539355Y-87625499D01*
X15539359Y-87625499D01*
X15552088Y-87623890D01*
X15656792Y-87610664D01*
X15803732Y-87552486D01*
X15931587Y-87459594D01*
X16032324Y-87337823D01*
X16099614Y-87194826D01*
X16129227Y-87039588D01*
X16119304Y-86881862D01*
X16070467Y-86731559D01*
X15985786Y-86598123D01*
X15870582Y-86489938D01*
X15870579Y-86489936D01*
X15870577Y-86489934D01*
X15732095Y-86413804D01*
X15732087Y-86413801D01*
X15579021Y-86374500D01*
X15579019Y-86374500D01*
X11203748Y-86374500D01*
X11136709Y-86354815D01*
X11111600Y-86333474D01*
X11105873Y-86327114D01*
X11105869Y-86327110D01*
X10952734Y-86215851D01*
X10952729Y-86215848D01*
X10779807Y-86138857D01*
X10779802Y-86138855D01*
X10634001Y-86107865D01*
X10594646Y-86099500D01*
X10405354Y-86099500D01*
X10372897Y-86106398D01*
X10220197Y-86138855D01*
X10220192Y-86138857D01*
X10047270Y-86215848D01*
X10047265Y-86215851D01*
X9894129Y-86327111D01*
X9767466Y-86467785D01*
X9672821Y-86631715D01*
X9672818Y-86631722D01*
X9617274Y-86802671D01*
X9614326Y-86811744D01*
X9594540Y-87000000D01*
X500500Y-87000000D01*
X500500Y-84000000D01*
X9594540Y-84000000D01*
X9614326Y-84188256D01*
X9614327Y-84188259D01*
X9672818Y-84368277D01*
X9672821Y-84368284D01*
X9767467Y-84532216D01*
X9860035Y-84635023D01*
X9894129Y-84672888D01*
X10047265Y-84784148D01*
X10047270Y-84784151D01*
X10220192Y-84861142D01*
X10220197Y-84861144D01*
X10405354Y-84900500D01*
X10405355Y-84900500D01*
X10594644Y-84900500D01*
X10594646Y-84900500D01*
X10779803Y-84861144D01*
X10952730Y-84784151D01*
X11105871Y-84672888D01*
X11108788Y-84669647D01*
X11111600Y-84666526D01*
X11171087Y-84629879D01*
X11203748Y-84625500D01*
X15539348Y-84625500D01*
X15539350Y-84625500D01*
X15539355Y-84625499D01*
X15539359Y-84625499D01*
X15552088Y-84623890D01*
X15656792Y-84610664D01*
X15803732Y-84552486D01*
X15803739Y-84552481D01*
X15931583Y-84459597D01*
X15931584Y-84459596D01*
X15931583Y-84459596D01*
X15931587Y-84459594D01*
X16032324Y-84337823D01*
X16099614Y-84194826D01*
X16129227Y-84039588D01*
X16119304Y-83881862D01*
X16070467Y-83731559D01*
X15985786Y-83598123D01*
X15870582Y-83489938D01*
X15870579Y-83489936D01*
X15870577Y-83489934D01*
X15732095Y-83413804D01*
X15732087Y-83413801D01*
X15579021Y-83374500D01*
X15579019Y-83374500D01*
X11203748Y-83374500D01*
X11136709Y-83354815D01*
X11111600Y-83333474D01*
X11105873Y-83327114D01*
X11105869Y-83327110D01*
X10952734Y-83215851D01*
X10952729Y-83215848D01*
X10779807Y-83138857D01*
X10779802Y-83138855D01*
X10634001Y-83107865D01*
X10594646Y-83099500D01*
X10405354Y-83099500D01*
X10372897Y-83106398D01*
X10220197Y-83138855D01*
X10220192Y-83138857D01*
X10047270Y-83215848D01*
X10047265Y-83215851D01*
X9894129Y-83327111D01*
X9767466Y-83467785D01*
X9672821Y-83631715D01*
X9672818Y-83631722D01*
X9622641Y-83786152D01*
X9614326Y-83811744D01*
X9594540Y-84000000D01*
X500500Y-84000000D01*
X500500Y-69980196D01*
X8369840Y-69980196D01*
X8384713Y-70137533D01*
X8384714Y-70137535D01*
X8384715Y-70137540D01*
X8438243Y-70286222D01*
X8438247Y-70286230D01*
X8496789Y-70372372D01*
X8527076Y-70416938D01*
X8527078Y-70416940D01*
X8527081Y-70416943D01*
X8645618Y-70521447D01*
X8645619Y-70521447D01*
X8645622Y-70521450D01*
X8786435Y-70593198D01*
X8940667Y-70627673D01*
X9098627Y-70622709D01*
X9250390Y-70578618D01*
X9386420Y-70498170D01*
X11447772Y-68436819D01*
X11509095Y-68403334D01*
X11535453Y-68400500D01*
X11594644Y-68400500D01*
X11594646Y-68400500D01*
X11779803Y-68361144D01*
X11952730Y-68284151D01*
X12105871Y-68172888D01*
X12232533Y-68032216D01*
X12327179Y-67868284D01*
X12385674Y-67688256D01*
X12405460Y-67500000D01*
X12385674Y-67311744D01*
X12327179Y-67131716D01*
X12232533Y-66967784D01*
X12105871Y-66827112D01*
X12105870Y-66827111D01*
X11952734Y-66715851D01*
X11952729Y-66715848D01*
X11779807Y-66638857D01*
X11779802Y-66638855D01*
X11634001Y-66607865D01*
X11594646Y-66599500D01*
X11405354Y-66599500D01*
X11372897Y-66606398D01*
X11220197Y-66638855D01*
X11220192Y-66638857D01*
X11047270Y-66715848D01*
X11047265Y-66715851D01*
X10894129Y-66827111D01*
X10767466Y-66967785D01*
X10672821Y-67131715D01*
X10672818Y-67131722D01*
X10621147Y-67290751D01*
X10614326Y-67311744D01*
X10596679Y-67479649D01*
X10570094Y-67544263D01*
X10561039Y-67554368D01*
X8529878Y-69585529D01*
X8457330Y-69679058D01*
X8457326Y-69679065D01*
X8394562Y-69824100D01*
X8394561Y-69824105D01*
X8369840Y-69980192D01*
X8369840Y-69980193D01*
X8369840Y-69980196D01*
X500500Y-69980196D01*
X500500Y-65000000D01*
X10594540Y-65000000D01*
X10614326Y-65188256D01*
X10614327Y-65188259D01*
X10672818Y-65368277D01*
X10672821Y-65368284D01*
X10767467Y-65532216D01*
X10857063Y-65631722D01*
X10894129Y-65672888D01*
X11047265Y-65784148D01*
X11047270Y-65784151D01*
X11220192Y-65861142D01*
X11220197Y-65861144D01*
X11405354Y-65900500D01*
X11405355Y-65900500D01*
X11594644Y-65900500D01*
X11594646Y-65900500D01*
X11779803Y-65861144D01*
X11952730Y-65784151D01*
X12105871Y-65672888D01*
X12200826Y-65567428D01*
X12260312Y-65530780D01*
X12276583Y-65527489D01*
X14999745Y-65164401D01*
X15068795Y-65175052D01*
X15121127Y-65221346D01*
X15134061Y-65248995D01*
X15172818Y-65368277D01*
X15172821Y-65368284D01*
X15267466Y-65532215D01*
X15388851Y-65667028D01*
X15419081Y-65730020D01*
X15410455Y-65799355D01*
X15388851Y-65832972D01*
X15267466Y-65967784D01*
X15172821Y-66131715D01*
X15172818Y-66131722D01*
X15114327Y-66311740D01*
X15114326Y-66311744D01*
X15094540Y-66500000D01*
X15114326Y-66688256D01*
X15114327Y-66688259D01*
X15172818Y-66868277D01*
X15172821Y-66868284D01*
X15267467Y-67032216D01*
X15357063Y-67131722D01*
X15386255Y-67164143D01*
X15416485Y-67227134D01*
X15409558Y-67292355D01*
X15388787Y-67345360D01*
X15369532Y-67502214D01*
X15389891Y-67658938D01*
X15389892Y-67658942D01*
X16433848Y-70268831D01*
X16433856Y-70268850D01*
X16491242Y-70372370D01*
X16491246Y-70372375D01*
X16599832Y-70487195D01*
X16599833Y-70487196D01*
X16733565Y-70571407D01*
X16839643Y-70605461D01*
X16884035Y-70619713D01*
X16884036Y-70619713D01*
X16884039Y-70619714D01*
X17041799Y-70629084D01*
X17196932Y-70598925D01*
X17339692Y-70531134D01*
X17351315Y-70521450D01*
X17459164Y-70431587D01*
X17461107Y-70429968D01*
X17553550Y-70301787D01*
X17611211Y-70154644D01*
X17630467Y-69997784D01*
X17610109Y-69841062D01*
X17110308Y-68591559D01*
X16646838Y-67432884D01*
X16640217Y-67363329D01*
X16672251Y-67301236D01*
X16732770Y-67266319D01*
X16782350Y-67264519D01*
X18431286Y-67539341D01*
X18494177Y-67569779D01*
X18530628Y-67629387D01*
X18529067Y-67699239D01*
X18489988Y-67757158D01*
X18483786Y-67761972D01*
X18394127Y-67827113D01*
X18267466Y-67967785D01*
X18172821Y-68131715D01*
X18172818Y-68131722D01*
X18120157Y-68293798D01*
X18114326Y-68311744D01*
X18094540Y-68500000D01*
X18114326Y-68688256D01*
X18114327Y-68688259D01*
X18172818Y-68868277D01*
X18172821Y-68868284D01*
X18267467Y-69032216D01*
X18301908Y-69070466D01*
X18342650Y-69115715D01*
X18372880Y-69178706D01*
X18374500Y-69198687D01*
X18374500Y-70039359D01*
X18389336Y-70156791D01*
X18389336Y-70156793D01*
X18447513Y-70303730D01*
X18447518Y-70303739D01*
X18540402Y-70431583D01*
X18540403Y-70431584D01*
X18540405Y-70431585D01*
X18540406Y-70431587D01*
X18559792Y-70447624D01*
X18662178Y-70532325D01*
X18704160Y-70552080D01*
X18805174Y-70599614D01*
X18960412Y-70629227D01*
X19118138Y-70619304D01*
X19268441Y-70570467D01*
X19401877Y-70485786D01*
X19510062Y-70370582D01*
X19586197Y-70232092D01*
X19625500Y-70079019D01*
X19625500Y-70027656D01*
X19636785Y-69989223D01*
X19626620Y-69966468D01*
X19625500Y-69949839D01*
X19625500Y-69198687D01*
X19645185Y-69131648D01*
X19657350Y-69115715D01*
X19675891Y-69095122D01*
X19732533Y-69032216D01*
X19827179Y-68868284D01*
X19885674Y-68688256D01*
X19905460Y-68500000D01*
X19885674Y-68311744D01*
X19827179Y-68131716D01*
X19732533Y-67967784D01*
X19605871Y-67827112D01*
X19605870Y-67827111D01*
X19452734Y-67715851D01*
X19452732Y-67715850D01*
X19417039Y-67699958D01*
X19363802Y-67654707D01*
X19343482Y-67587857D01*
X19362528Y-67520634D01*
X19386222Y-67493011D01*
X19469543Y-67420740D01*
X19485404Y-67397800D01*
X19539719Y-67353856D01*
X19609174Y-67346251D01*
X19671714Y-67377404D01*
X19694783Y-67406324D01*
X19767465Y-67532214D01*
X19894129Y-67672888D01*
X20047265Y-67784148D01*
X20047270Y-67784151D01*
X20220192Y-67861142D01*
X20220197Y-67861144D01*
X20405354Y-67900500D01*
X20405355Y-67900500D01*
X20594644Y-67900500D01*
X20594646Y-67900500D01*
X20779803Y-67861144D01*
X20779804Y-67861143D01*
X20783946Y-67860263D01*
X20853613Y-67865579D01*
X20909347Y-67907716D01*
X20933452Y-67973296D01*
X20918275Y-68041497D01*
X20916836Y-68044033D01*
X19939877Y-69718820D01*
X19939875Y-69718825D01*
X19893518Y-69827737D01*
X19893517Y-69827742D01*
X19872087Y-69968502D01*
X19864020Y-69985785D01*
X19868477Y-69992721D01*
X19872876Y-70015239D01*
X19885548Y-70141220D01*
X19938739Y-70286228D01*
X19939974Y-70289593D01*
X20029582Y-70419764D01*
X20029586Y-70419768D01*
X20113898Y-70493205D01*
X20151522Y-70552080D01*
X20151342Y-70621949D01*
X20113417Y-70680630D01*
X20082894Y-70699987D01*
X20047269Y-70715849D01*
X20047265Y-70715851D01*
X19894129Y-70827111D01*
X19767466Y-70967785D01*
X19672821Y-71131715D01*
X19672818Y-71131722D01*
X19614327Y-71311740D01*
X19614326Y-71311744D01*
X19594540Y-71500000D01*
X19614326Y-71688256D01*
X19614327Y-71688259D01*
X19672818Y-71868277D01*
X19672821Y-71868284D01*
X19767467Y-72032216D01*
X19894129Y-72172888D01*
X20047265Y-72284148D01*
X20047270Y-72284151D01*
X20220192Y-72361142D01*
X20220197Y-72361144D01*
X20405354Y-72400500D01*
X20405355Y-72400500D01*
X20594644Y-72400500D01*
X20594646Y-72400500D01*
X20779803Y-72361144D01*
X20952730Y-72284151D01*
X21105871Y-72172888D01*
X21232533Y-72032216D01*
X21327179Y-71868284D01*
X21385674Y-71688256D01*
X21405460Y-71500000D01*
X21397223Y-71421633D01*
X21409792Y-71352905D01*
X21422661Y-71332547D01*
X23900722Y-68146469D01*
X23957417Y-68105639D01*
X24027188Y-68101941D01*
X24087883Y-68136551D01*
X24120232Y-68198481D01*
X24122483Y-68217214D01*
X24844729Y-84828859D01*
X24827975Y-84896690D01*
X24812997Y-84917216D01*
X24767468Y-84967782D01*
X24767464Y-84967787D01*
X24672821Y-85131715D01*
X24672818Y-85131722D01*
X24620301Y-85293354D01*
X24614326Y-85311744D01*
X24594540Y-85500000D01*
X24614326Y-85688256D01*
X24614327Y-85688259D01*
X24672818Y-85868277D01*
X24672821Y-85868284D01*
X24767467Y-86032216D01*
X24863487Y-86138857D01*
X24894129Y-86172888D01*
X24894133Y-86172891D01*
X24935304Y-86202803D01*
X24977970Y-86258132D01*
X24983951Y-86327745D01*
X24963323Y-86375196D01*
X20897017Y-92068023D01*
X20842033Y-92111133D01*
X20821895Y-92117239D01*
X20720197Y-92138855D01*
X20720192Y-92138857D01*
X20547270Y-92215848D01*
X20547265Y-92215851D01*
X20394129Y-92327111D01*
X20267466Y-92467785D01*
X20172821Y-92631715D01*
X20172818Y-92631722D01*
X20114327Y-92811740D01*
X20114326Y-92811744D01*
X20094540Y-93000000D01*
X20114326Y-93188256D01*
X20114327Y-93188259D01*
X20172818Y-93368277D01*
X20172821Y-93368284D01*
X20267467Y-93532216D01*
X20351460Y-93625499D01*
X20394129Y-93672888D01*
X20547265Y-93784148D01*
X20547270Y-93784151D01*
X20720192Y-93861142D01*
X20720197Y-93861144D01*
X20905354Y-93900500D01*
X20905355Y-93900500D01*
X21094644Y-93900500D01*
X21094646Y-93900500D01*
X21279803Y-93861144D01*
X21452730Y-93784151D01*
X21605871Y-93672888D01*
X21657851Y-93615158D01*
X21717336Y-93578510D01*
X21787193Y-93579840D01*
X21842148Y-93615158D01*
X21851460Y-93625499D01*
X21894129Y-93672888D01*
X22047265Y-93784148D01*
X22047270Y-93784151D01*
X22220192Y-93861142D01*
X22220197Y-93861144D01*
X22405354Y-93900500D01*
X22405355Y-93900500D01*
X22594644Y-93900500D01*
X22594646Y-93900500D01*
X22779803Y-93861144D01*
X22952730Y-93784151D01*
X23105871Y-93672888D01*
X23232533Y-93532216D01*
X23327179Y-93368284D01*
X23383542Y-93194817D01*
X23422978Y-93137144D01*
X23432679Y-93129970D01*
X23687012Y-92960415D01*
X24870773Y-92960415D01*
X24880696Y-93118137D01*
X24880696Y-93118140D01*
X24886871Y-93137144D01*
X24929533Y-93268441D01*
X25014214Y-93401877D01*
X25129418Y-93510062D01*
X25129420Y-93510063D01*
X25129422Y-93510065D01*
X25267904Y-93586195D01*
X25267908Y-93586197D01*
X25420981Y-93625500D01*
X28796252Y-93625500D01*
X28863291Y-93645185D01*
X28888400Y-93666526D01*
X28894126Y-93672885D01*
X28894130Y-93672889D01*
X29047265Y-93784148D01*
X29047270Y-93784151D01*
X29220192Y-93861142D01*
X29220197Y-93861144D01*
X29302839Y-93878710D01*
X29364321Y-93911902D01*
X29398097Y-93973065D01*
X29393445Y-94042780D01*
X29351840Y-94098912D01*
X29302839Y-94121290D01*
X29220197Y-94138855D01*
X29220192Y-94138857D01*
X29047270Y-94215848D01*
X29047265Y-94215851D01*
X28894129Y-94327111D01*
X28767466Y-94467785D01*
X28672821Y-94631715D01*
X28672818Y-94631722D01*
X28614327Y-94811740D01*
X28614326Y-94811744D01*
X28594540Y-94999999D01*
X28594540Y-95000000D01*
X28602852Y-95079086D01*
X28590282Y-95147816D01*
X28542550Y-95198839D01*
X28474809Y-95215957D01*
X28429095Y-95205326D01*
X28279806Y-95138857D01*
X28279802Y-95138855D01*
X28134001Y-95107865D01*
X28094646Y-95099500D01*
X27905354Y-95099500D01*
X27872897Y-95106398D01*
X27720197Y-95138855D01*
X27720192Y-95138857D01*
X27547270Y-95215848D01*
X27547265Y-95215851D01*
X27394129Y-95327111D01*
X27267466Y-95467785D01*
X27172821Y-95631715D01*
X27172818Y-95631722D01*
X27114327Y-95811740D01*
X27114326Y-95811744D01*
X27094540Y-96000000D01*
X27114326Y-96188256D01*
X27114327Y-96188259D01*
X27172818Y-96368277D01*
X27172820Y-96368281D01*
X27172821Y-96368284D01*
X27172823Y-96368287D01*
X27213072Y-96438001D01*
X27229543Y-96505901D01*
X27213072Y-96561999D01*
X27172820Y-96631718D01*
X27172818Y-96631722D01*
X27118616Y-96798541D01*
X27114326Y-96811744D01*
X27094540Y-97000000D01*
X27114326Y-97188256D01*
X27114327Y-97188259D01*
X27172818Y-97368277D01*
X27172821Y-97368284D01*
X27267467Y-97532216D01*
X27350411Y-97624334D01*
X27394129Y-97672888D01*
X27547265Y-97784148D01*
X27547270Y-97784151D01*
X27720192Y-97861142D01*
X27720197Y-97861144D01*
X27905354Y-97900500D01*
X27905355Y-97900500D01*
X28094644Y-97900500D01*
X28094646Y-97900500D01*
X28279803Y-97861144D01*
X28452730Y-97784151D01*
X28605871Y-97672888D01*
X28732533Y-97532216D01*
X28751133Y-97500000D01*
X31094540Y-97500000D01*
X31114326Y-97688256D01*
X31114327Y-97688259D01*
X31172818Y-97868277D01*
X31172821Y-97868284D01*
X31267467Y-98032216D01*
X31332832Y-98104811D01*
X31394129Y-98172888D01*
X31547265Y-98284148D01*
X31547270Y-98284151D01*
X31720192Y-98361142D01*
X31720197Y-98361144D01*
X31905354Y-98400500D01*
X31905355Y-98400500D01*
X32094644Y-98400500D01*
X32094646Y-98400500D01*
X32279803Y-98361144D01*
X32452730Y-98284151D01*
X32605871Y-98172888D01*
X32732533Y-98032216D01*
X32827179Y-97868284D01*
X32885674Y-97688256D01*
X32892392Y-97624334D01*
X57999500Y-97624334D01*
X58040429Y-97869616D01*
X58121169Y-98104802D01*
X58121172Y-98104811D01*
X58239524Y-98323506D01*
X58239526Y-98323509D01*
X58392262Y-98519744D01*
X58551744Y-98666557D01*
X58575217Y-98688166D01*
X58783393Y-98824173D01*
X59011118Y-98924063D01*
X59143825Y-98957669D01*
X59252179Y-98985108D01*
X59252181Y-98985108D01*
X59252186Y-98985109D01*
X59405589Y-98997819D01*
X59437933Y-99000500D01*
X59437937Y-99000500D01*
X60562063Y-99000500D01*
X60562067Y-99000500D01*
X60624677Y-98995311D01*
X60747813Y-98985109D01*
X60747816Y-98985108D01*
X60747821Y-98985108D01*
X60988881Y-98924063D01*
X61216607Y-98824173D01*
X61424785Y-98688164D01*
X61607738Y-98519744D01*
X61760474Y-98323509D01*
X61878828Y-98104810D01*
X61959571Y-97869614D01*
X62000500Y-97624335D01*
X62000500Y-97375665D01*
X61959571Y-97130386D01*
X61878828Y-96895190D01*
X61841985Y-96827111D01*
X61760475Y-96676493D01*
X61760474Y-96676491D01*
X61607738Y-96480256D01*
X61424785Y-96311836D01*
X61424782Y-96311833D01*
X61216606Y-96175826D01*
X61154323Y-96148506D01*
X65519500Y-96148506D01*
X65524059Y-96175826D01*
X65560157Y-96392153D01*
X65640359Y-96625771D01*
X65640362Y-96625780D01*
X65757928Y-96843022D01*
X65757932Y-96843028D01*
X65909639Y-97037941D01*
X65909641Y-97037943D01*
X65909645Y-97037948D01*
X66091379Y-97205245D01*
X66298169Y-97340348D01*
X66524377Y-97439572D01*
X66763831Y-97500210D01*
X66948355Y-97515500D01*
X66948359Y-97515500D01*
X69051641Y-97515500D01*
X69051645Y-97515500D01*
X69236169Y-97500210D01*
X69475623Y-97439572D01*
X69701831Y-97340348D01*
X69908621Y-97205245D01*
X70090355Y-97037948D01*
X70242073Y-96843020D01*
X70359638Y-96625779D01*
X70439843Y-96392150D01*
X70480500Y-96148506D01*
X70480500Y-95901494D01*
X70439843Y-95657850D01*
X70430873Y-95631722D01*
X70381238Y-95487139D01*
X70359638Y-95424221D01*
X70242073Y-95206980D01*
X70242071Y-95206977D01*
X70242067Y-95206971D01*
X70090360Y-95012058D01*
X70090357Y-95012055D01*
X70090355Y-95012052D01*
X69908621Y-94844755D01*
X69908618Y-94844753D01*
X69908617Y-94844752D01*
X69828659Y-94792513D01*
X69701831Y-94709652D01*
X69701828Y-94709650D01*
X69701827Y-94709650D01*
X69475623Y-94610428D01*
X69236165Y-94549789D01*
X69051656Y-94534500D01*
X69051645Y-94534500D01*
X66948355Y-94534500D01*
X66948343Y-94534500D01*
X66763834Y-94549789D01*
X66524376Y-94610428D01*
X66298172Y-94709650D01*
X66091382Y-94844752D01*
X65909642Y-95012055D01*
X65909639Y-95012058D01*
X65757932Y-95206971D01*
X65757928Y-95206977D01*
X65640362Y-95424219D01*
X65640359Y-95424228D01*
X65560157Y-95657846D01*
X65534116Y-95813905D01*
X65519500Y-95901494D01*
X65519500Y-96148506D01*
X61154323Y-96148506D01*
X60988881Y-96075936D01*
X60747824Y-96014892D01*
X60747813Y-96014890D01*
X60562077Y-95999500D01*
X60562067Y-95999500D01*
X59437933Y-95999500D01*
X59437922Y-95999500D01*
X59252186Y-96014890D01*
X59252175Y-96014892D01*
X59011118Y-96075936D01*
X58783393Y-96175826D01*
X58575217Y-96311833D01*
X58392261Y-96480257D01*
X58239524Y-96676493D01*
X58121172Y-96895188D01*
X58121169Y-96895197D01*
X58040429Y-97130383D01*
X57999500Y-97375665D01*
X57999500Y-97624334D01*
X32892392Y-97624334D01*
X32905460Y-97500000D01*
X32885674Y-97311744D01*
X32827179Y-97131716D01*
X32826486Y-97130517D01*
X32826297Y-97129737D01*
X32824538Y-97125786D01*
X32825260Y-97125464D01*
X32810010Y-97062619D01*
X32816231Y-97029306D01*
X32874028Y-96855914D01*
X32913903Y-96798541D01*
X32978466Y-96771832D01*
X33042101Y-96781849D01*
X33047267Y-96784149D01*
X33047270Y-96784151D01*
X33220197Y-96861144D01*
X33405354Y-96900500D01*
X33405355Y-96900500D01*
X33594644Y-96900500D01*
X33594646Y-96900500D01*
X33779803Y-96861144D01*
X33952730Y-96784151D01*
X34105871Y-96672888D01*
X34232533Y-96532216D01*
X34327179Y-96368284D01*
X34385674Y-96188256D01*
X34405460Y-96000000D01*
X34385674Y-95811744D01*
X34327179Y-95631716D01*
X34286927Y-95561999D01*
X34270454Y-95494101D01*
X34286927Y-95438001D01*
X34327179Y-95368284D01*
X34385674Y-95188256D01*
X34405460Y-95000000D01*
X34385674Y-94811744D01*
X34327179Y-94631716D01*
X34232533Y-94467784D01*
X34105871Y-94327112D01*
X34105870Y-94327111D01*
X33952734Y-94215851D01*
X33952729Y-94215848D01*
X33779807Y-94138857D01*
X33779802Y-94138855D01*
X33634001Y-94107865D01*
X33594646Y-94099500D01*
X33405354Y-94099500D01*
X33372897Y-94106398D01*
X33220197Y-94138855D01*
X33220192Y-94138857D01*
X33047270Y-94215848D01*
X33047265Y-94215851D01*
X32894129Y-94327111D01*
X32767466Y-94467785D01*
X32672821Y-94631715D01*
X32672818Y-94631722D01*
X32614327Y-94811740D01*
X32614326Y-94811744D01*
X32594540Y-95000000D01*
X32614326Y-95188256D01*
X32614326Y-95188258D01*
X32614327Y-95188260D01*
X32622103Y-95212193D01*
X32624098Y-95282034D01*
X32588017Y-95341867D01*
X32525316Y-95372694D01*
X32503231Y-95374506D01*
X32425738Y-95373918D01*
X32425730Y-95373919D01*
X32272364Y-95412058D01*
X32224317Y-95437999D01*
X32133301Y-95487139D01*
X32133300Y-95487139D01*
X32133298Y-95487141D01*
X32133296Y-95487142D01*
X32017279Y-95594444D01*
X31931586Y-95727235D01*
X31628875Y-96635368D01*
X31589000Y-96692743D01*
X31561676Y-96709434D01*
X31547270Y-96715848D01*
X31394129Y-96827111D01*
X31267466Y-96967785D01*
X31172821Y-97131715D01*
X31172818Y-97131722D01*
X31114327Y-97311740D01*
X31114326Y-97311744D01*
X31094540Y-97500000D01*
X28751133Y-97500000D01*
X28827179Y-97368284D01*
X28885674Y-97188256D01*
X28905460Y-97000000D01*
X28885674Y-96811744D01*
X28827179Y-96631716D01*
X28786927Y-96561999D01*
X28770454Y-96494101D01*
X28786927Y-96438001D01*
X28827179Y-96368284D01*
X28882069Y-96199351D01*
X28921506Y-96141675D01*
X28985865Y-96114477D01*
X29054711Y-96126392D01*
X29106187Y-96173636D01*
X29117931Y-96199351D01*
X29172818Y-96368277D01*
X29172820Y-96368281D01*
X29172821Y-96368284D01*
X29267467Y-96532216D01*
X29357059Y-96631718D01*
X29394129Y-96672888D01*
X29547265Y-96784148D01*
X29547270Y-96784151D01*
X29720192Y-96861142D01*
X29720197Y-96861144D01*
X29905354Y-96900500D01*
X29905355Y-96900500D01*
X30094644Y-96900500D01*
X30094646Y-96900500D01*
X30279803Y-96861144D01*
X30452730Y-96784151D01*
X30605871Y-96672888D01*
X30732533Y-96532216D01*
X30827179Y-96368284D01*
X30885674Y-96188256D01*
X30905460Y-96000000D01*
X30885674Y-95811744D01*
X30827179Y-95631716D01*
X30732533Y-95467784D01*
X30605871Y-95327112D01*
X30605870Y-95327111D01*
X30447473Y-95212029D01*
X30448907Y-95210054D01*
X30408302Y-95167476D01*
X30395073Y-95098870D01*
X30395168Y-95097922D01*
X30405460Y-95000000D01*
X30385674Y-94811744D01*
X30327179Y-94631716D01*
X30232533Y-94467784D01*
X30105871Y-94327112D01*
X30105870Y-94327111D01*
X29952734Y-94215851D01*
X29952729Y-94215848D01*
X29779807Y-94138857D01*
X29779800Y-94138855D01*
X29697161Y-94121290D01*
X29635679Y-94088098D01*
X29601902Y-94026935D01*
X29606554Y-93957221D01*
X29648158Y-93901088D01*
X29697161Y-93878710D01*
X29703201Y-93877426D01*
X29779803Y-93861144D01*
X29952730Y-93784151D01*
X30105871Y-93672888D01*
X30232533Y-93532216D01*
X30251133Y-93500000D01*
X36094540Y-93500000D01*
X36114326Y-93688256D01*
X36114327Y-93688259D01*
X36172818Y-93868277D01*
X36172821Y-93868284D01*
X36267467Y-94032216D01*
X36363487Y-94138857D01*
X36394129Y-94172888D01*
X36547265Y-94284148D01*
X36547270Y-94284151D01*
X36720192Y-94361142D01*
X36720197Y-94361144D01*
X36905354Y-94400500D01*
X36905355Y-94400500D01*
X37094644Y-94400500D01*
X37094646Y-94400500D01*
X37279803Y-94361144D01*
X37452730Y-94284151D01*
X37605871Y-94172888D01*
X37732533Y-94032216D01*
X37827179Y-93868284D01*
X37885674Y-93688256D01*
X37905460Y-93500000D01*
X37885674Y-93311744D01*
X37827179Y-93131716D01*
X37742495Y-92985040D01*
X37726023Y-92917141D01*
X37727398Y-92903718D01*
X37745677Y-92787951D01*
X37775576Y-92724805D01*
X37834870Y-92687845D01*
X37904733Y-92688809D01*
X37941044Y-92706974D01*
X37947435Y-92711617D01*
X38047270Y-92784151D01*
X38220192Y-92861142D01*
X38220197Y-92861144D01*
X38405354Y-92900500D01*
X38405355Y-92900500D01*
X38594644Y-92900500D01*
X38594646Y-92900500D01*
X38779803Y-92861144D01*
X38952730Y-92784151D01*
X39105871Y-92672888D01*
X39232533Y-92532216D01*
X39327179Y-92368284D01*
X39385674Y-92188256D01*
X39405460Y-92000000D01*
X39385674Y-91811744D01*
X39327179Y-91631716D01*
X39232533Y-91467784D01*
X39203665Y-91435723D01*
X39157350Y-91384284D01*
X39127120Y-91321292D01*
X39125500Y-91301312D01*
X39125500Y-91148504D01*
X65519500Y-91148504D01*
X65560157Y-91392153D01*
X65640359Y-91625771D01*
X65640362Y-91625780D01*
X65757928Y-91843022D01*
X65757932Y-91843028D01*
X65909639Y-92037941D01*
X65909641Y-92037943D01*
X65909645Y-92037948D01*
X66091379Y-92205245D01*
X66298169Y-92340348D01*
X66524377Y-92439572D01*
X66763831Y-92500210D01*
X66948355Y-92515500D01*
X66948359Y-92515500D01*
X69051641Y-92515500D01*
X69051645Y-92515500D01*
X69236169Y-92500210D01*
X69475623Y-92439572D01*
X69701831Y-92340348D01*
X69908621Y-92205245D01*
X70090355Y-92037948D01*
X70242073Y-91843020D01*
X70359638Y-91625779D01*
X70439843Y-91392150D01*
X70480500Y-91148506D01*
X70480500Y-90901494D01*
X70439843Y-90657850D01*
X70359638Y-90424221D01*
X70242073Y-90206980D01*
X70242071Y-90206977D01*
X70242067Y-90206971D01*
X70090360Y-90012058D01*
X70090357Y-90012055D01*
X70090355Y-90012052D01*
X69908621Y-89844755D01*
X69908618Y-89844753D01*
X69908617Y-89844752D01*
X69828659Y-89792513D01*
X69701831Y-89709652D01*
X69701828Y-89709650D01*
X69701827Y-89709650D01*
X69475623Y-89610428D01*
X69236165Y-89549789D01*
X69051656Y-89534500D01*
X69051645Y-89534500D01*
X66948355Y-89534500D01*
X66948343Y-89534500D01*
X66763834Y-89549789D01*
X66524376Y-89610428D01*
X66298172Y-89709650D01*
X66091382Y-89844752D01*
X65909642Y-90012055D01*
X65909639Y-90012058D01*
X65757932Y-90206971D01*
X65757928Y-90206977D01*
X65640362Y-90424219D01*
X65640359Y-90424228D01*
X65560157Y-90657846D01*
X65519500Y-90901495D01*
X65519500Y-91148504D01*
X39125500Y-91148504D01*
X39125500Y-88792870D01*
X58649500Y-88792870D01*
X58649501Y-88792876D01*
X58655908Y-88852483D01*
X58706202Y-88987328D01*
X58706206Y-88987335D01*
X58792452Y-89102544D01*
X58792455Y-89102547D01*
X58907664Y-89188793D01*
X58907671Y-89188797D01*
X59042517Y-89239091D01*
X59042516Y-89239091D01*
X59049444Y-89239835D01*
X59102127Y-89245500D01*
X60897872Y-89245499D01*
X60957483Y-89239091D01*
X61092331Y-89188796D01*
X61207546Y-89102546D01*
X61293796Y-88987331D01*
X61342810Y-88855916D01*
X61384681Y-88799984D01*
X61450145Y-88775566D01*
X61518418Y-88790417D01*
X61546673Y-88811569D01*
X61668599Y-88933495D01*
X61765384Y-89001265D01*
X61862165Y-89069032D01*
X61862167Y-89069033D01*
X61862170Y-89069035D01*
X62076337Y-89168903D01*
X62304592Y-89230063D01*
X62481034Y-89245500D01*
X62539999Y-89250659D01*
X62540000Y-89250659D01*
X62540001Y-89250659D01*
X62598966Y-89245500D01*
X62775408Y-89230063D01*
X63003663Y-89168903D01*
X63217830Y-89069035D01*
X63411401Y-88933495D01*
X63578495Y-88766401D01*
X63708730Y-88580405D01*
X63763307Y-88536781D01*
X63832805Y-88529587D01*
X63895160Y-88561110D01*
X63911879Y-88580405D01*
X64041890Y-88766078D01*
X64208917Y-88933105D01*
X64402421Y-89068600D01*
X64616507Y-89168429D01*
X64616516Y-89168433D01*
X64830000Y-89225634D01*
X64830000Y-88330501D01*
X64937685Y-88379680D01*
X65044237Y-88395000D01*
X65115763Y-88395000D01*
X65222315Y-88379680D01*
X65330000Y-88330501D01*
X65330000Y-89225633D01*
X65543483Y-89168433D01*
X65543492Y-89168429D01*
X65757578Y-89068600D01*
X65951082Y-88933105D01*
X66118105Y-88766082D01*
X66248119Y-88580405D01*
X66302696Y-88536781D01*
X66372195Y-88529588D01*
X66434549Y-88561110D01*
X66451269Y-88580405D01*
X66581505Y-88766401D01*
X66748599Y-88933495D01*
X66845384Y-89001265D01*
X66942165Y-89069032D01*
X66942167Y-89069033D01*
X66942170Y-89069035D01*
X67156337Y-89168903D01*
X67384592Y-89230063D01*
X67561034Y-89245500D01*
X67619999Y-89250659D01*
X67620000Y-89250659D01*
X67620001Y-89250659D01*
X67678966Y-89245500D01*
X67855408Y-89230063D01*
X68083663Y-89168903D01*
X68297830Y-89069035D01*
X68491401Y-88933495D01*
X68658495Y-88766401D01*
X68788425Y-88580842D01*
X68843002Y-88537217D01*
X68912500Y-88530023D01*
X68974855Y-88561546D01*
X68991575Y-88580842D01*
X69121500Y-88766395D01*
X69121505Y-88766401D01*
X69288599Y-88933495D01*
X69385384Y-89001265D01*
X69482165Y-89069032D01*
X69482167Y-89069033D01*
X69482170Y-89069035D01*
X69696337Y-89168903D01*
X69924592Y-89230063D01*
X70101034Y-89245500D01*
X70159999Y-89250659D01*
X70160000Y-89250659D01*
X70160001Y-89250659D01*
X70218966Y-89245500D01*
X70395408Y-89230063D01*
X70623663Y-89168903D01*
X70837830Y-89069035D01*
X71031401Y-88933495D01*
X71198495Y-88766401D01*
X71328425Y-88580842D01*
X71383002Y-88537217D01*
X71452500Y-88530023D01*
X71514855Y-88561546D01*
X71531575Y-88580842D01*
X71661500Y-88766395D01*
X71661505Y-88766401D01*
X71828599Y-88933495D01*
X71925384Y-89001265D01*
X72022165Y-89069032D01*
X72022167Y-89069033D01*
X72022170Y-89069035D01*
X72236337Y-89168903D01*
X72464592Y-89230063D01*
X72641034Y-89245500D01*
X72699999Y-89250659D01*
X72700000Y-89250659D01*
X72700001Y-89250659D01*
X72758966Y-89245500D01*
X72935408Y-89230063D01*
X73163663Y-89168903D01*
X73377830Y-89069035D01*
X73571401Y-88933495D01*
X73738495Y-88766401D01*
X73874035Y-88572830D01*
X73973903Y-88358663D01*
X74035063Y-88130408D01*
X74055659Y-87895000D01*
X74035063Y-87659592D01*
X73973903Y-87431337D01*
X73874035Y-87217171D01*
X73868731Y-87209595D01*
X73738494Y-87023597D01*
X73571402Y-86856506D01*
X73571395Y-86856501D01*
X73377834Y-86720967D01*
X73377830Y-86720965D01*
X73377828Y-86720964D01*
X73163663Y-86621097D01*
X73163659Y-86621096D01*
X73163655Y-86621094D01*
X72935413Y-86559938D01*
X72935403Y-86559936D01*
X72700001Y-86539341D01*
X72699999Y-86539341D01*
X72464596Y-86559936D01*
X72464586Y-86559938D01*
X72236344Y-86621094D01*
X72236335Y-86621098D01*
X72022171Y-86720964D01*
X72022169Y-86720965D01*
X71828597Y-86856505D01*
X71661505Y-87023597D01*
X71531575Y-87209158D01*
X71476998Y-87252783D01*
X71407500Y-87259977D01*
X71345145Y-87228454D01*
X71328425Y-87209158D01*
X71198494Y-87023597D01*
X71031402Y-86856506D01*
X71031395Y-86856501D01*
X70837834Y-86720967D01*
X70837830Y-86720965D01*
X70837828Y-86720964D01*
X70623663Y-86621097D01*
X70623659Y-86621096D01*
X70623655Y-86621094D01*
X70395413Y-86559938D01*
X70395403Y-86559936D01*
X70160001Y-86539341D01*
X70159999Y-86539341D01*
X69924596Y-86559936D01*
X69924586Y-86559938D01*
X69696344Y-86621094D01*
X69696335Y-86621098D01*
X69482171Y-86720964D01*
X69482169Y-86720965D01*
X69288597Y-86856505D01*
X69121505Y-87023597D01*
X68991575Y-87209158D01*
X68936998Y-87252783D01*
X68867500Y-87259977D01*
X68805145Y-87228454D01*
X68788425Y-87209158D01*
X68658494Y-87023597D01*
X68491402Y-86856506D01*
X68491395Y-86856501D01*
X68297834Y-86720967D01*
X68297830Y-86720965D01*
X68297828Y-86720964D01*
X68083663Y-86621097D01*
X68083659Y-86621096D01*
X68083655Y-86621094D01*
X67855413Y-86559938D01*
X67855403Y-86559936D01*
X67620001Y-86539341D01*
X67619999Y-86539341D01*
X67384596Y-86559936D01*
X67384586Y-86559938D01*
X67156344Y-86621094D01*
X67156335Y-86621098D01*
X66942171Y-86720964D01*
X66942169Y-86720965D01*
X66748597Y-86856505D01*
X66581508Y-87023594D01*
X66451269Y-87209595D01*
X66396692Y-87253219D01*
X66327193Y-87260412D01*
X66264839Y-87228890D01*
X66248119Y-87209594D01*
X66118113Y-87023926D01*
X66118108Y-87023920D01*
X65951082Y-86856894D01*
X65757578Y-86721399D01*
X65543492Y-86621570D01*
X65543486Y-86621567D01*
X65330000Y-86564364D01*
X65330000Y-87459498D01*
X65222315Y-87410320D01*
X65115763Y-87395000D01*
X65044237Y-87395000D01*
X64937685Y-87410320D01*
X64830000Y-87459498D01*
X64830000Y-86564364D01*
X64829999Y-86564364D01*
X64616513Y-86621567D01*
X64616507Y-86621570D01*
X64402422Y-86721399D01*
X64402420Y-86721400D01*
X64208926Y-86856886D01*
X64208920Y-86856891D01*
X64041891Y-87023920D01*
X64041890Y-87023922D01*
X63911880Y-87209595D01*
X63857303Y-87253219D01*
X63787804Y-87260412D01*
X63725450Y-87228890D01*
X63708730Y-87209594D01*
X63578494Y-87023597D01*
X63411402Y-86856506D01*
X63411395Y-86856501D01*
X63217834Y-86720967D01*
X63217830Y-86720965D01*
X63217828Y-86720964D01*
X63003663Y-86621097D01*
X63003659Y-86621096D01*
X63003655Y-86621094D01*
X62775413Y-86559938D01*
X62775403Y-86559936D01*
X62540001Y-86539341D01*
X62539999Y-86539341D01*
X62304596Y-86559936D01*
X62304586Y-86559938D01*
X62076344Y-86621094D01*
X62076335Y-86621098D01*
X61862171Y-86720964D01*
X61862169Y-86720965D01*
X61668600Y-86856503D01*
X61546673Y-86978430D01*
X61485350Y-87011914D01*
X61415658Y-87006930D01*
X61359725Y-86965058D01*
X61342810Y-86934081D01*
X61293797Y-86802671D01*
X61293793Y-86802664D01*
X61207547Y-86687455D01*
X61207544Y-86687452D01*
X61092335Y-86601206D01*
X61092328Y-86601202D01*
X60957482Y-86550908D01*
X60957483Y-86550908D01*
X60897883Y-86544501D01*
X60897881Y-86544500D01*
X60897873Y-86544500D01*
X60897864Y-86544500D01*
X59102129Y-86544500D01*
X59102123Y-86544501D01*
X59042516Y-86550908D01*
X58907671Y-86601202D01*
X58907664Y-86601206D01*
X58792455Y-86687452D01*
X58792452Y-86687455D01*
X58706206Y-86802664D01*
X58706202Y-86802671D01*
X58655908Y-86937517D01*
X58649501Y-86997116D01*
X58649500Y-86997135D01*
X58649500Y-88792870D01*
X39125500Y-88792870D01*
X39125500Y-87698687D01*
X39145185Y-87631648D01*
X39157350Y-87615715D01*
X39203732Y-87564202D01*
X39232533Y-87532216D01*
X39327179Y-87368284D01*
X39385674Y-87188256D01*
X39405460Y-87000000D01*
X39385674Y-86811744D01*
X39327179Y-86631716D01*
X39232533Y-86467784D01*
X39105871Y-86327112D01*
X39105870Y-86327111D01*
X38952734Y-86215851D01*
X38952732Y-86215850D01*
X38881379Y-86184081D01*
X38828143Y-86138830D01*
X38807822Y-86071981D01*
X38809333Y-86051463D01*
X38812372Y-86032216D01*
X38896406Y-85500000D01*
X41094540Y-85500000D01*
X41114326Y-85688256D01*
X41114327Y-85688259D01*
X41172818Y-85868277D01*
X41172821Y-85868284D01*
X41267467Y-86032216D01*
X41363487Y-86138857D01*
X41394129Y-86172888D01*
X41547265Y-86284148D01*
X41547270Y-86284151D01*
X41720192Y-86361142D01*
X41720197Y-86361144D01*
X41905354Y-86400500D01*
X41905355Y-86400500D01*
X42094644Y-86400500D01*
X42094646Y-86400500D01*
X42279803Y-86361144D01*
X42452730Y-86284151D01*
X42605871Y-86172888D01*
X42657851Y-86115158D01*
X42717336Y-86078510D01*
X42787193Y-86079840D01*
X42842148Y-86115158D01*
X42869379Y-86145400D01*
X42894129Y-86172888D01*
X43047265Y-86284148D01*
X43047270Y-86284151D01*
X43220192Y-86361142D01*
X43220197Y-86361144D01*
X43405354Y-86400500D01*
X43405355Y-86400500D01*
X43594644Y-86400500D01*
X43594646Y-86400500D01*
X43779803Y-86361144D01*
X43952730Y-86284151D01*
X44105871Y-86172888D01*
X44232533Y-86032216D01*
X44327179Y-85868284D01*
X44385674Y-85688256D01*
X44405460Y-85500000D01*
X45594540Y-85500000D01*
X45614326Y-85688256D01*
X45614327Y-85688259D01*
X45672818Y-85868277D01*
X45672821Y-85868284D01*
X45767467Y-86032216D01*
X45863487Y-86138857D01*
X45894129Y-86172888D01*
X46047265Y-86284148D01*
X46047270Y-86284151D01*
X46220192Y-86361142D01*
X46220197Y-86361144D01*
X46405354Y-86400500D01*
X46405355Y-86400500D01*
X46594644Y-86400500D01*
X46594646Y-86400500D01*
X46779803Y-86361144D01*
X46952730Y-86284151D01*
X47105871Y-86172888D01*
X47232533Y-86032216D01*
X47327179Y-85868284D01*
X47385674Y-85688256D01*
X47405460Y-85500000D01*
X47385674Y-85311744D01*
X47327179Y-85131716D01*
X47232533Y-84967784D01*
X47189672Y-84920182D01*
X47169559Y-84897844D01*
X53650000Y-84897844D01*
X53656401Y-84957372D01*
X53656403Y-84957379D01*
X53706645Y-85092086D01*
X53706649Y-85092093D01*
X53792809Y-85207187D01*
X53792812Y-85207190D01*
X53907906Y-85293350D01*
X53907913Y-85293354D01*
X54042620Y-85343596D01*
X54042627Y-85343598D01*
X54102155Y-85349999D01*
X54102172Y-85350000D01*
X54750000Y-85350000D01*
X54750000Y-84435501D01*
X54857685Y-84484680D01*
X54964237Y-84500000D01*
X55035763Y-84500000D01*
X55142315Y-84484680D01*
X55250000Y-84435501D01*
X55250000Y-85350000D01*
X55897828Y-85350000D01*
X55897844Y-85349999D01*
X55957372Y-85343598D01*
X55957379Y-85343596D01*
X56092086Y-85293354D01*
X56092093Y-85293350D01*
X56207187Y-85207190D01*
X56207190Y-85207187D01*
X56293350Y-85092093D01*
X56293354Y-85092086D01*
X56342422Y-84960529D01*
X56384293Y-84904595D01*
X56449757Y-84880178D01*
X56518030Y-84895030D01*
X56546285Y-84916181D01*
X56668599Y-85038495D01*
X56745135Y-85092086D01*
X56862165Y-85174032D01*
X56862167Y-85174033D01*
X56862170Y-85174035D01*
X57076337Y-85273903D01*
X57304592Y-85335063D01*
X57475319Y-85350000D01*
X57539999Y-85355659D01*
X57540000Y-85355659D01*
X57540001Y-85355659D01*
X57604681Y-85350000D01*
X57775408Y-85335063D01*
X58003663Y-85273903D01*
X58217830Y-85174035D01*
X58411401Y-85038495D01*
X58578495Y-84871401D01*
X58708425Y-84685842D01*
X58763002Y-84642217D01*
X58832500Y-84635023D01*
X58894855Y-84666546D01*
X58911575Y-84685842D01*
X59041500Y-84871395D01*
X59041505Y-84871401D01*
X59208599Y-85038495D01*
X59285135Y-85092086D01*
X59402165Y-85174032D01*
X59402167Y-85174033D01*
X59402170Y-85174035D01*
X59616337Y-85273903D01*
X59844592Y-85335063D01*
X60015319Y-85350000D01*
X60079999Y-85355659D01*
X60080000Y-85355659D01*
X60080001Y-85355659D01*
X60144681Y-85350000D01*
X60315408Y-85335063D01*
X60543663Y-85273903D01*
X60757830Y-85174035D01*
X60951401Y-85038495D01*
X61118495Y-84871401D01*
X61248425Y-84685842D01*
X61303002Y-84642217D01*
X61372500Y-84635023D01*
X61434855Y-84666546D01*
X61451575Y-84685842D01*
X61581500Y-84871395D01*
X61581505Y-84871401D01*
X61748599Y-85038495D01*
X61825135Y-85092086D01*
X61942165Y-85174032D01*
X61942167Y-85174033D01*
X61942170Y-85174035D01*
X62156337Y-85273903D01*
X62384592Y-85335063D01*
X62555319Y-85350000D01*
X62619999Y-85355659D01*
X62620000Y-85355659D01*
X62620001Y-85355659D01*
X62684681Y-85350000D01*
X62855408Y-85335063D01*
X63083663Y-85273903D01*
X63297830Y-85174035D01*
X63491401Y-85038495D01*
X63658495Y-84871401D01*
X63794035Y-84677830D01*
X63893903Y-84463663D01*
X63955063Y-84235408D01*
X63975659Y-84000000D01*
X63955063Y-83764592D01*
X63904275Y-83575048D01*
X63893905Y-83536344D01*
X63893904Y-83536343D01*
X63893903Y-83536337D01*
X63794035Y-83322171D01*
X63788425Y-83314158D01*
X63658494Y-83128597D01*
X63491402Y-82961506D01*
X63491395Y-82961501D01*
X63297834Y-82825967D01*
X63297830Y-82825965D01*
X63226727Y-82792809D01*
X63083663Y-82726097D01*
X63083659Y-82726096D01*
X63083655Y-82726094D01*
X62855413Y-82664938D01*
X62855403Y-82664936D01*
X62620001Y-82644341D01*
X62619999Y-82644341D01*
X62384596Y-82664936D01*
X62384586Y-82664938D01*
X62156344Y-82726094D01*
X62156335Y-82726098D01*
X61942171Y-82825964D01*
X61942169Y-82825965D01*
X61748597Y-82961505D01*
X61581505Y-83128597D01*
X61451575Y-83314158D01*
X61396998Y-83357783D01*
X61327500Y-83364977D01*
X61265145Y-83333454D01*
X61248425Y-83314158D01*
X61118494Y-83128597D01*
X60951402Y-82961506D01*
X60951393Y-82961498D01*
X60900688Y-82925994D01*
X60857063Y-82871417D01*
X60849871Y-82801919D01*
X60853877Y-82786115D01*
X60885674Y-82688256D01*
X60905460Y-82500000D01*
X60885674Y-82311744D01*
X60827179Y-82131716D01*
X60732533Y-81967784D01*
X60690849Y-81921489D01*
X60657350Y-81884284D01*
X60627120Y-81821292D01*
X60625500Y-81801312D01*
X60625500Y-71198687D01*
X60645185Y-71131648D01*
X60657350Y-71115715D01*
X60675891Y-71095122D01*
X60732533Y-71032216D01*
X60827179Y-70868284D01*
X60885674Y-70688256D01*
X60905460Y-70500000D01*
X60885674Y-70311744D01*
X60827179Y-70131716D01*
X60732533Y-69967784D01*
X60605871Y-69827112D01*
X60605870Y-69827111D01*
X60452734Y-69715851D01*
X60452729Y-69715848D01*
X60279807Y-69638857D01*
X60279802Y-69638855D01*
X60134001Y-69607865D01*
X60094646Y-69599500D01*
X59905354Y-69599500D01*
X59872897Y-69606398D01*
X59720197Y-69638855D01*
X59720192Y-69638857D01*
X59547270Y-69715848D01*
X59547265Y-69715851D01*
X59394129Y-69827111D01*
X59267466Y-69967785D01*
X59172821Y-70131715D01*
X59172818Y-70131722D01*
X59122616Y-70286230D01*
X59114326Y-70311744D01*
X59094540Y-70500000D01*
X59114326Y-70688256D01*
X59114327Y-70688259D01*
X59172818Y-70868277D01*
X59172821Y-70868284D01*
X59267467Y-71032216D01*
X59310772Y-71080310D01*
X59342650Y-71115715D01*
X59372880Y-71178706D01*
X59374500Y-71198687D01*
X59374500Y-81801312D01*
X59354815Y-81868351D01*
X59342650Y-81884284D01*
X59267466Y-81967784D01*
X59172821Y-82131715D01*
X59172818Y-82131722D01*
X59114327Y-82311740D01*
X59114326Y-82311744D01*
X59094540Y-82500000D01*
X59114326Y-82688256D01*
X59114327Y-82688259D01*
X59172821Y-82868286D01*
X59175464Y-82874222D01*
X59174194Y-82874787D01*
X59188934Y-82935583D01*
X59166072Y-83001606D01*
X59152757Y-83017346D01*
X59041503Y-83128600D01*
X58911575Y-83314158D01*
X58856998Y-83357783D01*
X58787500Y-83364977D01*
X58725145Y-83333454D01*
X58708425Y-83314158D01*
X58578494Y-83128597D01*
X58411402Y-82961506D01*
X58411395Y-82961501D01*
X58217834Y-82825967D01*
X58217830Y-82825965D01*
X58146727Y-82792809D01*
X58003663Y-82726097D01*
X58003659Y-82726096D01*
X58003655Y-82726094D01*
X57775413Y-82664938D01*
X57775403Y-82664936D01*
X57540001Y-82644341D01*
X57539999Y-82644341D01*
X57304596Y-82664936D01*
X57304586Y-82664938D01*
X57076344Y-82726094D01*
X57076335Y-82726098D01*
X56862171Y-82825964D01*
X56862169Y-82825965D01*
X56668600Y-82961503D01*
X56546284Y-83083819D01*
X56484961Y-83117303D01*
X56415269Y-83112319D01*
X56359336Y-83070447D01*
X56342421Y-83039470D01*
X56293354Y-82907913D01*
X56293350Y-82907906D01*
X56207190Y-82792812D01*
X56207187Y-82792809D01*
X56092093Y-82706649D01*
X56092086Y-82706645D01*
X55957379Y-82656403D01*
X55957372Y-82656401D01*
X55897844Y-82650000D01*
X55250000Y-82650000D01*
X55250000Y-83564498D01*
X55142315Y-83515320D01*
X55035763Y-83500000D01*
X54964237Y-83500000D01*
X54857685Y-83515320D01*
X54750000Y-83564498D01*
X54750000Y-82650000D01*
X54102155Y-82650000D01*
X54042627Y-82656401D01*
X54042620Y-82656403D01*
X53907913Y-82706645D01*
X53907906Y-82706649D01*
X53792812Y-82792809D01*
X53792809Y-82792812D01*
X53706649Y-82907906D01*
X53706645Y-82907913D01*
X53656403Y-83042620D01*
X53656401Y-83042627D01*
X53650000Y-83102155D01*
X53650000Y-83750000D01*
X54566314Y-83750000D01*
X54540507Y-83790156D01*
X54500000Y-83928111D01*
X54500000Y-84071889D01*
X54540507Y-84209844D01*
X54566314Y-84250000D01*
X53650000Y-84250000D01*
X53650000Y-84897844D01*
X47169559Y-84897844D01*
X47157350Y-84884284D01*
X47127120Y-84821292D01*
X47125500Y-84801312D01*
X47125500Y-83198687D01*
X47145185Y-83131648D01*
X47157350Y-83115715D01*
X47198109Y-83070447D01*
X47232533Y-83032216D01*
X47327179Y-82868284D01*
X47385674Y-82688256D01*
X47405460Y-82500000D01*
X47385674Y-82311744D01*
X47327179Y-82131716D01*
X47232533Y-81967784D01*
X47105871Y-81827112D01*
X47105867Y-81827109D01*
X46952734Y-81715851D01*
X46952729Y-81715848D01*
X46779807Y-81638857D01*
X46779802Y-81638855D01*
X46634001Y-81607865D01*
X46594646Y-81599500D01*
X46405354Y-81599500D01*
X46372897Y-81606398D01*
X46220197Y-81638855D01*
X46220192Y-81638857D01*
X46047270Y-81715848D01*
X46047265Y-81715851D01*
X45894129Y-81827111D01*
X45767466Y-81967785D01*
X45672821Y-82131715D01*
X45672818Y-82131722D01*
X45614327Y-82311740D01*
X45614326Y-82311744D01*
X45594540Y-82500000D01*
X45614326Y-82688256D01*
X45614327Y-82688259D01*
X45672818Y-82868277D01*
X45672821Y-82868284D01*
X45767467Y-83032216D01*
X45801891Y-83070447D01*
X45842650Y-83115715D01*
X45872880Y-83178706D01*
X45874500Y-83198687D01*
X45874500Y-84801312D01*
X45854815Y-84868351D01*
X45842650Y-84884284D01*
X45767466Y-84967784D01*
X45672821Y-85131715D01*
X45672818Y-85131722D01*
X45620301Y-85293354D01*
X45614326Y-85311744D01*
X45594540Y-85500000D01*
X44405460Y-85500000D01*
X44385674Y-85311744D01*
X44327179Y-85131716D01*
X44232533Y-84967784D01*
X44189672Y-84920182D01*
X44157350Y-84884284D01*
X44127120Y-84821292D01*
X44125500Y-84801312D01*
X44125500Y-83198687D01*
X44145185Y-83131648D01*
X44157350Y-83115715D01*
X44198109Y-83070447D01*
X44232533Y-83032216D01*
X44327179Y-82868284D01*
X44385674Y-82688256D01*
X44405460Y-82500000D01*
X44385674Y-82311744D01*
X44327179Y-82131716D01*
X44232533Y-81967784D01*
X44105871Y-81827112D01*
X44105867Y-81827109D01*
X43952734Y-81715851D01*
X43952729Y-81715848D01*
X43779807Y-81638857D01*
X43779802Y-81638855D01*
X43634001Y-81607865D01*
X43594646Y-81599500D01*
X43405354Y-81599500D01*
X43372897Y-81606398D01*
X43220197Y-81638855D01*
X43220192Y-81638857D01*
X43047270Y-81715848D01*
X43047265Y-81715851D01*
X42894132Y-81827109D01*
X42894129Y-81827111D01*
X42894129Y-81827112D01*
X42842148Y-81884841D01*
X42782663Y-81921489D01*
X42712806Y-81920158D01*
X42657851Y-81884841D01*
X42605871Y-81827112D01*
X42605867Y-81827109D01*
X42452734Y-81715851D01*
X42452729Y-81715848D01*
X42279807Y-81638857D01*
X42279802Y-81638855D01*
X42134001Y-81607865D01*
X42094646Y-81599500D01*
X41905354Y-81599500D01*
X41872897Y-81606398D01*
X41720197Y-81638855D01*
X41720192Y-81638857D01*
X41547270Y-81715848D01*
X41547265Y-81715851D01*
X41394129Y-81827111D01*
X41267466Y-81967785D01*
X41172821Y-82131715D01*
X41172818Y-82131722D01*
X41114327Y-82311740D01*
X41114326Y-82311744D01*
X41094540Y-82500000D01*
X41114326Y-82688256D01*
X41114327Y-82688259D01*
X41172818Y-82868277D01*
X41172821Y-82868284D01*
X41267467Y-83032216D01*
X41301891Y-83070447D01*
X41342650Y-83115715D01*
X41372880Y-83178706D01*
X41374500Y-83198687D01*
X41374500Y-84801312D01*
X41354815Y-84868351D01*
X41342650Y-84884284D01*
X41267466Y-84967784D01*
X41172821Y-85131715D01*
X41172818Y-85131722D01*
X41120301Y-85293354D01*
X41114326Y-85311744D01*
X41094540Y-85500000D01*
X38896406Y-85500000D01*
X39123983Y-84058686D01*
X39127645Y-83940367D01*
X39093096Y-83786152D01*
X39021281Y-83645374D01*
X38916712Y-83526878D01*
X38862301Y-83489938D01*
X38785957Y-83438107D01*
X38637237Y-83384646D01*
X38479900Y-83369848D01*
X38479896Y-83369849D01*
X38323814Y-83394646D01*
X38178806Y-83457480D01*
X38178798Y-83457485D01*
X38053981Y-83554398D01*
X38053979Y-83554400D01*
X38053978Y-83554401D01*
X38053977Y-83554402D01*
X37957174Y-83679323D01*
X37957173Y-83679324D01*
X37957173Y-83679325D01*
X37957171Y-83679327D01*
X37894478Y-83824391D01*
X36491232Y-92711617D01*
X36461332Y-92774766D01*
X36441636Y-92792595D01*
X36394128Y-92827112D01*
X36394123Y-92827116D01*
X36267466Y-92967785D01*
X36172821Y-93131715D01*
X36172818Y-93131722D01*
X36152317Y-93194819D01*
X36114326Y-93311744D01*
X36094540Y-93500000D01*
X30251133Y-93500000D01*
X30327179Y-93368284D01*
X30385674Y-93188256D01*
X30405460Y-93000000D01*
X30385674Y-92811744D01*
X30327179Y-92631716D01*
X30232533Y-92467784D01*
X30105871Y-92327112D01*
X30105870Y-92327111D01*
X29952734Y-92215851D01*
X29952729Y-92215848D01*
X29779807Y-92138857D01*
X29779802Y-92138855D01*
X29621119Y-92105127D01*
X29594646Y-92099500D01*
X29405354Y-92099500D01*
X29378881Y-92105127D01*
X29220197Y-92138855D01*
X29220192Y-92138857D01*
X29047270Y-92215848D01*
X29047265Y-92215851D01*
X28894130Y-92327110D01*
X28894126Y-92327114D01*
X28888400Y-92333474D01*
X28828913Y-92370121D01*
X28796252Y-92374500D01*
X25460640Y-92374500D01*
X25343208Y-92389336D01*
X25343206Y-92389336D01*
X25196269Y-92447513D01*
X25196260Y-92447518D01*
X25068416Y-92540402D01*
X25068415Y-92540403D01*
X24967674Y-92662178D01*
X24900387Y-92805171D01*
X24900385Y-92805174D01*
X24889709Y-92861144D01*
X24870773Y-92960412D01*
X24870773Y-92960414D01*
X24870773Y-92960415D01*
X23687012Y-92960415D01*
X24379706Y-92498620D01*
X24469195Y-92421130D01*
X24559185Y-92291216D01*
X24614039Y-92143004D01*
X24630311Y-91985805D01*
X24606979Y-91829499D01*
X24599481Y-91811740D01*
X24545509Y-91683908D01*
X24501243Y-91625780D01*
X24449761Y-91558175D01*
X24449758Y-91558173D01*
X24449756Y-91558170D01*
X24325753Y-91460205D01*
X24181278Y-91396152D01*
X24181275Y-91396151D01*
X24025410Y-91370040D01*
X23867950Y-91383512D01*
X23765888Y-91419233D01*
X23718783Y-91435720D01*
X23718782Y-91435720D01*
X23718781Y-91435721D01*
X23718778Y-91435723D01*
X22735522Y-92091226D01*
X22668822Y-92112034D01*
X22640964Y-92109344D01*
X22621120Y-92105127D01*
X22559636Y-92071937D01*
X22525857Y-92010775D01*
X22530506Y-91941060D01*
X22545992Y-91911761D01*
X22595087Y-91843028D01*
X26054392Y-87000000D01*
X28594540Y-87000000D01*
X28614326Y-87188256D01*
X28614327Y-87188259D01*
X28672818Y-87368277D01*
X28672821Y-87368284D01*
X28767467Y-87532216D01*
X28856996Y-87631648D01*
X28894129Y-87672888D01*
X29047265Y-87784148D01*
X29047270Y-87784151D01*
X29220192Y-87861142D01*
X29220197Y-87861144D01*
X29405354Y-87900500D01*
X29405355Y-87900500D01*
X29594644Y-87900500D01*
X29594646Y-87900500D01*
X29779803Y-87861144D01*
X29952730Y-87784151D01*
X30105871Y-87672888D01*
X30108788Y-87669647D01*
X30111600Y-87666526D01*
X30171087Y-87629879D01*
X30203748Y-87625500D01*
X31296252Y-87625500D01*
X31363291Y-87645185D01*
X31388400Y-87666526D01*
X31394126Y-87672885D01*
X31394130Y-87672889D01*
X31547265Y-87784148D01*
X31547270Y-87784151D01*
X31720192Y-87861142D01*
X31720197Y-87861144D01*
X31905354Y-87900500D01*
X31905355Y-87900500D01*
X32094644Y-87900500D01*
X32094646Y-87900500D01*
X32279803Y-87861144D01*
X32452730Y-87784151D01*
X32605871Y-87672888D01*
X32732533Y-87532216D01*
X32827179Y-87368284D01*
X32885674Y-87188256D01*
X32905460Y-87000000D01*
X32885674Y-86811744D01*
X32827179Y-86631716D01*
X32732533Y-86467784D01*
X32605871Y-86327112D01*
X32605870Y-86327111D01*
X32452734Y-86215851D01*
X32452729Y-86215848D01*
X32279807Y-86138857D01*
X32279802Y-86138855D01*
X32134001Y-86107865D01*
X32094646Y-86099500D01*
X31905354Y-86099500D01*
X31872897Y-86106398D01*
X31720197Y-86138855D01*
X31720192Y-86138857D01*
X31547270Y-86215848D01*
X31547265Y-86215851D01*
X31394130Y-86327110D01*
X31394126Y-86327114D01*
X31388400Y-86333474D01*
X31328913Y-86370121D01*
X31296252Y-86374500D01*
X30203748Y-86374500D01*
X30136709Y-86354815D01*
X30111600Y-86333474D01*
X30105873Y-86327114D01*
X30105869Y-86327110D01*
X29952734Y-86215851D01*
X29952729Y-86215848D01*
X29779807Y-86138857D01*
X29779802Y-86138855D01*
X29634001Y-86107865D01*
X29594646Y-86099500D01*
X29405354Y-86099500D01*
X29372897Y-86106398D01*
X29220197Y-86138855D01*
X29220192Y-86138857D01*
X29047270Y-86215848D01*
X29047265Y-86215851D01*
X28894129Y-86327111D01*
X28767466Y-86467785D01*
X28672821Y-86631715D01*
X28672818Y-86631722D01*
X28617274Y-86802671D01*
X28614326Y-86811744D01*
X28594540Y-87000000D01*
X26054392Y-87000000D01*
X28602982Y-83431974D01*
X28657964Y-83388866D01*
X28678089Y-83382763D01*
X28779803Y-83361144D01*
X28952730Y-83284151D01*
X29105871Y-83172888D01*
X29232533Y-83032216D01*
X29327179Y-82868284D01*
X29385674Y-82688256D01*
X29405460Y-82500000D01*
X29385674Y-82311744D01*
X29327179Y-82131716D01*
X29232533Y-81967784D01*
X29105871Y-81827112D01*
X29105867Y-81827109D01*
X28952734Y-81715851D01*
X28952729Y-81715848D01*
X28779807Y-81638857D01*
X28779802Y-81638855D01*
X28634001Y-81607865D01*
X28594646Y-81599500D01*
X28405354Y-81599500D01*
X28372897Y-81606398D01*
X28220197Y-81638855D01*
X28220192Y-81638857D01*
X28047270Y-81715848D01*
X28047265Y-81715851D01*
X27894129Y-81827111D01*
X27767466Y-81967785D01*
X27672821Y-82131715D01*
X27672818Y-82131722D01*
X27614327Y-82311740D01*
X27614326Y-82311744D01*
X27594540Y-82500000D01*
X27607168Y-82620162D01*
X27594598Y-82688892D01*
X27584750Y-82705196D01*
X26304398Y-84497690D01*
X26249414Y-84540800D01*
X26179851Y-84547341D01*
X26117795Y-84515235D01*
X26082948Y-84454675D01*
X26079612Y-84431002D01*
X26075255Y-84330798D01*
X25604351Y-73500000D01*
X28594540Y-73500000D01*
X28614326Y-73688256D01*
X28614327Y-73688259D01*
X28672818Y-73868277D01*
X28672821Y-73868284D01*
X28767467Y-74032216D01*
X28894129Y-74172888D01*
X29047265Y-74284148D01*
X29047270Y-74284151D01*
X29220192Y-74361142D01*
X29220197Y-74361144D01*
X29405354Y-74400500D01*
X29405355Y-74400500D01*
X29594644Y-74400500D01*
X29594646Y-74400500D01*
X29779803Y-74361144D01*
X29952730Y-74284151D01*
X30105871Y-74172888D01*
X30232533Y-74032216D01*
X30327179Y-73868284D01*
X30385674Y-73688256D01*
X30405460Y-73500000D01*
X30385674Y-73311744D01*
X30327179Y-73131716D01*
X30299778Y-73084256D01*
X30283306Y-73016359D01*
X30287534Y-72989636D01*
X30928471Y-70639533D01*
X30965100Y-70580039D01*
X31028083Y-70549790D01*
X31097421Y-70558393D01*
X31124430Y-70575086D01*
X31124488Y-70575004D01*
X31125923Y-70576008D01*
X31127805Y-70577172D01*
X31128918Y-70578106D01*
X31322421Y-70713600D01*
X31536507Y-70813429D01*
X31536516Y-70813433D01*
X31750000Y-70870634D01*
X31750000Y-69975501D01*
X31857685Y-70024680D01*
X31964237Y-70040000D01*
X32035763Y-70040000D01*
X32142315Y-70024680D01*
X32250000Y-69975501D01*
X32250000Y-70870633D01*
X32463483Y-70813433D01*
X32463492Y-70813429D01*
X32677578Y-70713600D01*
X32871082Y-70578105D01*
X33038105Y-70411082D01*
X33173600Y-70217578D01*
X33273429Y-70003492D01*
X33273432Y-70003486D01*
X33330636Y-69790000D01*
X32433686Y-69790000D01*
X32459493Y-69749844D01*
X32500000Y-69611889D01*
X32500000Y-69468111D01*
X32459493Y-69330156D01*
X32433686Y-69290000D01*
X33330636Y-69290000D01*
X33330635Y-69289999D01*
X33273432Y-69076513D01*
X33273429Y-69076507D01*
X33173600Y-68862422D01*
X33173599Y-68862420D01*
X33038113Y-68668926D01*
X33038108Y-68668920D01*
X32916053Y-68546865D01*
X32882568Y-68485542D01*
X32887552Y-68415850D01*
X32929424Y-68359917D01*
X32960400Y-68343002D01*
X33092331Y-68293796D01*
X33207546Y-68207546D01*
X33293796Y-68092331D01*
X33344091Y-67957483D01*
X33350500Y-67897873D01*
X33350499Y-66102128D01*
X33344091Y-66042517D01*
X33328233Y-66000000D01*
X37594540Y-66000000D01*
X37614326Y-66188256D01*
X37614327Y-66188259D01*
X37672818Y-66368277D01*
X37672821Y-66368284D01*
X37767467Y-66532216D01*
X37894129Y-66672888D01*
X38047265Y-66784148D01*
X38047270Y-66784151D01*
X38220192Y-66861142D01*
X38220197Y-66861144D01*
X38405354Y-66900500D01*
X38524416Y-66900500D01*
X38591455Y-66920185D01*
X38606797Y-66931821D01*
X38981082Y-67264519D01*
X41304924Y-69330156D01*
X41332881Y-69355006D01*
X41369909Y-69414257D01*
X41374500Y-69447685D01*
X41374500Y-72801312D01*
X41354815Y-72868351D01*
X41342650Y-72884284D01*
X41267466Y-72967784D01*
X41172821Y-73131715D01*
X41172818Y-73131722D01*
X41114327Y-73311740D01*
X41114326Y-73311744D01*
X41094540Y-73500000D01*
X41114326Y-73688256D01*
X41114327Y-73688259D01*
X41172818Y-73868277D01*
X41172821Y-73868284D01*
X41267467Y-74032216D01*
X41394129Y-74172888D01*
X41547265Y-74284148D01*
X41547270Y-74284151D01*
X41720192Y-74361142D01*
X41720197Y-74361144D01*
X41905354Y-74400500D01*
X41905355Y-74400500D01*
X42094644Y-74400500D01*
X42094646Y-74400500D01*
X42279803Y-74361144D01*
X42452730Y-74284151D01*
X42605871Y-74172888D01*
X42732533Y-74032216D01*
X42827179Y-73868284D01*
X42885674Y-73688256D01*
X42905460Y-73500000D01*
X44094540Y-73500000D01*
X44114326Y-73688256D01*
X44114327Y-73688259D01*
X44172818Y-73868277D01*
X44172821Y-73868284D01*
X44267467Y-74032216D01*
X44394129Y-74172888D01*
X44547265Y-74284148D01*
X44547270Y-74284151D01*
X44720192Y-74361142D01*
X44720197Y-74361144D01*
X44905354Y-74400500D01*
X44905355Y-74400500D01*
X45094644Y-74400500D01*
X45094646Y-74400500D01*
X45279803Y-74361144D01*
X45452730Y-74284151D01*
X45605871Y-74172888D01*
X45657851Y-74115158D01*
X45717336Y-74078510D01*
X45787193Y-74079840D01*
X45842148Y-74115158D01*
X45894129Y-74172888D01*
X46047265Y-74284148D01*
X46047270Y-74284151D01*
X46220192Y-74361142D01*
X46220197Y-74361144D01*
X46405354Y-74400500D01*
X46405355Y-74400500D01*
X46594644Y-74400500D01*
X46594646Y-74400500D01*
X46779803Y-74361144D01*
X46952730Y-74284151D01*
X47105871Y-74172888D01*
X47232533Y-74032216D01*
X47327179Y-73868284D01*
X47385674Y-73688256D01*
X47405460Y-73500000D01*
X53594540Y-73500000D01*
X53614326Y-73688256D01*
X53614327Y-73688259D01*
X53672818Y-73868277D01*
X53672821Y-73868284D01*
X53767467Y-74032216D01*
X53894129Y-74172888D01*
X54047265Y-74284148D01*
X54047270Y-74284151D01*
X54220192Y-74361142D01*
X54220197Y-74361144D01*
X54405354Y-74400500D01*
X54405355Y-74400500D01*
X54594644Y-74400500D01*
X54594646Y-74400500D01*
X54779803Y-74361144D01*
X54952730Y-74284151D01*
X55105871Y-74172888D01*
X55232533Y-74032216D01*
X55327179Y-73868284D01*
X55385674Y-73688256D01*
X55405460Y-73500000D01*
X55385674Y-73311744D01*
X55327179Y-73131716D01*
X55232533Y-72967784D01*
X55189672Y-72920182D01*
X55157350Y-72884284D01*
X55127120Y-72821292D01*
X55125500Y-72801312D01*
X55125500Y-69198687D01*
X55145185Y-69131648D01*
X55157350Y-69115715D01*
X55190157Y-69079279D01*
X55232533Y-69032216D01*
X55305759Y-68905383D01*
X55356322Y-68857172D01*
X55424928Y-68843948D01*
X55489794Y-68869916D01*
X55513461Y-68894501D01*
X55540404Y-68931585D01*
X55662178Y-69032325D01*
X55711045Y-69055320D01*
X55805174Y-69099614D01*
X55960412Y-69129227D01*
X56118138Y-69119304D01*
X56268441Y-69070467D01*
X56401877Y-68985786D01*
X56510062Y-68870582D01*
X56511326Y-68868284D01*
X56586195Y-68732095D01*
X56586197Y-68732092D01*
X56625500Y-68579019D01*
X56625500Y-63698687D01*
X56645185Y-63631648D01*
X56657350Y-63615715D01*
X56675891Y-63595122D01*
X56732533Y-63532216D01*
X56827179Y-63368284D01*
X56885674Y-63188256D01*
X56905460Y-63000000D01*
X56885674Y-62811744D01*
X56827179Y-62631716D01*
X56732533Y-62467784D01*
X56605871Y-62327112D01*
X56584719Y-62311744D01*
X56452734Y-62215851D01*
X56452729Y-62215848D01*
X56279807Y-62138857D01*
X56279802Y-62138855D01*
X56134001Y-62107865D01*
X56094646Y-62099500D01*
X55905354Y-62099500D01*
X55872897Y-62106398D01*
X55720197Y-62138855D01*
X55720192Y-62138857D01*
X55547270Y-62215848D01*
X55547265Y-62215851D01*
X55394129Y-62327111D01*
X55267466Y-62467785D01*
X55172821Y-62631715D01*
X55172818Y-62631722D01*
X55114327Y-62811740D01*
X55114326Y-62811744D01*
X55094540Y-63000000D01*
X55114326Y-63188256D01*
X55114327Y-63188259D01*
X55172818Y-63368277D01*
X55172821Y-63368284D01*
X55267467Y-63532216D01*
X55310772Y-63580310D01*
X55342650Y-63615715D01*
X55372880Y-63678706D01*
X55374500Y-63698687D01*
X55374500Y-67802423D01*
X55354815Y-67869462D01*
X55302011Y-67915217D01*
X55232853Y-67925161D01*
X55169297Y-67896136D01*
X55158351Y-67885396D01*
X55105871Y-67827112D01*
X55105870Y-67827111D01*
X54952734Y-67715851D01*
X54952729Y-67715848D01*
X54779807Y-67638857D01*
X54779802Y-67638855D01*
X54634001Y-67607865D01*
X54594646Y-67599500D01*
X54405354Y-67599500D01*
X54372897Y-67606398D01*
X54220197Y-67638855D01*
X54220192Y-67638857D01*
X54047270Y-67715848D01*
X54047265Y-67715851D01*
X53894129Y-67827111D01*
X53767466Y-67967785D01*
X53672821Y-68131715D01*
X53672818Y-68131722D01*
X53620157Y-68293798D01*
X53614326Y-68311744D01*
X53594540Y-68500000D01*
X53614326Y-68688256D01*
X53614327Y-68688259D01*
X53672818Y-68868277D01*
X53672821Y-68868284D01*
X53767467Y-69032216D01*
X53801908Y-69070466D01*
X53842650Y-69115715D01*
X53872880Y-69178706D01*
X53874500Y-69198687D01*
X53874500Y-72801312D01*
X53854815Y-72868351D01*
X53842650Y-72884284D01*
X53767466Y-72967784D01*
X53672821Y-73131715D01*
X53672818Y-73131722D01*
X53614327Y-73311740D01*
X53614326Y-73311744D01*
X53594540Y-73500000D01*
X47405460Y-73500000D01*
X47385674Y-73311744D01*
X47327179Y-73131716D01*
X47232533Y-72967784D01*
X47189672Y-72920182D01*
X47157350Y-72884284D01*
X47127120Y-72821292D01*
X47125500Y-72801312D01*
X47125500Y-65000000D01*
X49594540Y-65000000D01*
X49614326Y-65188256D01*
X49614327Y-65188259D01*
X49672818Y-65368277D01*
X49672821Y-65368284D01*
X49767467Y-65532216D01*
X49857063Y-65631722D01*
X49894129Y-65672888D01*
X50047265Y-65784148D01*
X50047270Y-65784151D01*
X50193804Y-65849393D01*
X50247041Y-65894643D01*
X50254277Y-65907217D01*
X51060112Y-67518884D01*
X51458134Y-68314928D01*
X51523925Y-68413336D01*
X51641675Y-68518745D01*
X51781938Y-68591560D01*
X51935904Y-68627204D01*
X51935905Y-68627203D01*
X51935906Y-68627204D01*
X51942778Y-68627040D01*
X52093898Y-68623440D01*
X52245990Y-68580502D01*
X52382627Y-68501089D01*
X52495222Y-68390191D01*
X52576700Y-68254775D01*
X52621943Y-68103352D01*
X52628105Y-67945434D01*
X52594803Y-67790945D01*
X51372074Y-65345490D01*
X51359700Y-65276725D01*
X51365051Y-65251724D01*
X51385674Y-65188256D01*
X51405460Y-65000000D01*
X51385674Y-64811744D01*
X51327179Y-64631716D01*
X51232533Y-64467784D01*
X51105871Y-64327112D01*
X51084719Y-64311744D01*
X50952734Y-64215851D01*
X50952729Y-64215848D01*
X50779807Y-64138857D01*
X50779802Y-64138855D01*
X50634001Y-64107865D01*
X50594646Y-64099500D01*
X50405354Y-64099500D01*
X50372897Y-64106398D01*
X50220197Y-64138855D01*
X50220192Y-64138857D01*
X50047270Y-64215848D01*
X50047265Y-64215851D01*
X49894129Y-64327111D01*
X49767466Y-64467785D01*
X49672821Y-64631715D01*
X49672818Y-64631722D01*
X49617830Y-64800960D01*
X49614326Y-64811744D01*
X49594540Y-65000000D01*
X47125500Y-65000000D01*
X47125500Y-63698687D01*
X47145185Y-63631648D01*
X47157350Y-63615715D01*
X47175891Y-63595122D01*
X47232533Y-63532216D01*
X47327179Y-63368284D01*
X47385674Y-63188256D01*
X47405460Y-63000000D01*
X47385674Y-62811744D01*
X47327179Y-62631716D01*
X47232533Y-62467784D01*
X47105871Y-62327112D01*
X47084719Y-62311744D01*
X46952734Y-62215851D01*
X46952729Y-62215848D01*
X46779807Y-62138857D01*
X46779802Y-62138855D01*
X46634001Y-62107865D01*
X46594646Y-62099500D01*
X46405354Y-62099500D01*
X46372897Y-62106398D01*
X46220197Y-62138855D01*
X46220192Y-62138857D01*
X46047270Y-62215848D01*
X46047265Y-62215851D01*
X45894129Y-62327111D01*
X45767466Y-62467785D01*
X45672821Y-62631715D01*
X45672818Y-62631722D01*
X45614327Y-62811740D01*
X45614326Y-62811744D01*
X45594540Y-63000000D01*
X45614326Y-63188256D01*
X45614327Y-63188259D01*
X45672818Y-63368277D01*
X45672821Y-63368284D01*
X45767467Y-63532216D01*
X45810772Y-63580310D01*
X45842650Y-63615715D01*
X45872880Y-63678706D01*
X45874500Y-63698687D01*
X45874500Y-67802423D01*
X45854815Y-67869462D01*
X45802011Y-67915217D01*
X45732853Y-67925161D01*
X45669297Y-67896136D01*
X45658351Y-67885396D01*
X45605871Y-67827112D01*
X45605870Y-67827111D01*
X45452734Y-67715851D01*
X45452729Y-67715848D01*
X45279807Y-67638857D01*
X45279802Y-67638855D01*
X45134001Y-67607865D01*
X45094646Y-67599500D01*
X44905354Y-67599500D01*
X44872897Y-67606398D01*
X44720197Y-67638855D01*
X44720192Y-67638857D01*
X44547270Y-67715848D01*
X44547265Y-67715851D01*
X44394129Y-67827111D01*
X44267466Y-67967785D01*
X44172821Y-68131715D01*
X44172818Y-68131722D01*
X44120157Y-68293798D01*
X44114326Y-68311744D01*
X44094540Y-68500000D01*
X44114326Y-68688256D01*
X44114327Y-68688259D01*
X44172818Y-68868277D01*
X44172821Y-68868284D01*
X44267467Y-69032216D01*
X44301908Y-69070466D01*
X44342650Y-69115715D01*
X44372880Y-69178706D01*
X44374500Y-69198687D01*
X44374500Y-72801312D01*
X44354815Y-72868351D01*
X44342650Y-72884284D01*
X44267466Y-72967784D01*
X44172821Y-73131715D01*
X44172818Y-73131722D01*
X44114327Y-73311740D01*
X44114326Y-73311744D01*
X44094540Y-73500000D01*
X42905460Y-73500000D01*
X42885674Y-73311744D01*
X42827179Y-73131716D01*
X42732533Y-72967784D01*
X42689672Y-72920182D01*
X42657350Y-72884284D01*
X42627120Y-72821292D01*
X42625500Y-72801312D01*
X42625500Y-70706430D01*
X42645185Y-70639391D01*
X42697989Y-70593636D01*
X42767147Y-70583692D01*
X42791978Y-70589933D01*
X42800928Y-70593197D01*
X42859950Y-70614719D01*
X42859955Y-70614720D01*
X42859960Y-70614722D01*
X43017234Y-70630235D01*
X43173426Y-70606149D01*
X43318722Y-70543976D01*
X43443989Y-70447624D01*
X43541360Y-70323146D01*
X43541362Y-70323142D01*
X43604716Y-70178361D01*
X43627207Y-70040000D01*
X43630073Y-70022372D01*
X43630072Y-70022368D01*
X43630073Y-70022366D01*
X43615843Y-69864980D01*
X43615843Y-69864976D01*
X43562916Y-69716064D01*
X43562773Y-69715851D01*
X43474620Y-69584993D01*
X42667119Y-68867214D01*
X42630091Y-68807963D01*
X42625500Y-68774535D01*
X42625500Y-65198687D01*
X42645185Y-65131648D01*
X42657350Y-65115715D01*
X42675891Y-65095122D01*
X42732533Y-65032216D01*
X42827179Y-64868284D01*
X42885674Y-64688256D01*
X42905460Y-64500000D01*
X42885674Y-64311744D01*
X42827179Y-64131716D01*
X42732533Y-63967784D01*
X42605871Y-63827112D01*
X42570000Y-63801050D01*
X42452734Y-63715851D01*
X42452729Y-63715848D01*
X42279807Y-63638857D01*
X42279802Y-63638855D01*
X42134001Y-63607865D01*
X42094646Y-63599500D01*
X41905354Y-63599500D01*
X41872897Y-63606398D01*
X41720197Y-63638855D01*
X41720192Y-63638857D01*
X41547270Y-63715848D01*
X41547265Y-63715851D01*
X41394129Y-63827111D01*
X41267466Y-63967785D01*
X41172821Y-64131715D01*
X41172818Y-64131722D01*
X41114327Y-64311740D01*
X41114326Y-64311744D01*
X41094540Y-64500000D01*
X41114326Y-64688256D01*
X41114327Y-64688259D01*
X41172818Y-64868277D01*
X41172821Y-64868284D01*
X41267467Y-65032216D01*
X41310772Y-65080310D01*
X41342650Y-65115715D01*
X41372880Y-65178706D01*
X41374500Y-65198687D01*
X41374500Y-67442091D01*
X41354815Y-67509130D01*
X41302011Y-67554885D01*
X41232853Y-67564829D01*
X41169297Y-67535804D01*
X41168119Y-67534770D01*
X39437662Y-65996587D01*
X39400634Y-65937336D01*
X39396722Y-65916868D01*
X39395755Y-65907671D01*
X39385674Y-65811744D01*
X39327179Y-65631716D01*
X39232533Y-65467784D01*
X39105871Y-65327112D01*
X39084719Y-65311744D01*
X38952734Y-65215851D01*
X38952729Y-65215848D01*
X38779807Y-65138857D01*
X38779802Y-65138855D01*
X38634001Y-65107865D01*
X38594646Y-65099500D01*
X38405354Y-65099500D01*
X38372897Y-65106398D01*
X38220197Y-65138855D01*
X38220192Y-65138857D01*
X38047270Y-65215848D01*
X38047265Y-65215851D01*
X37894129Y-65327111D01*
X37767466Y-65467785D01*
X37672821Y-65631715D01*
X37672818Y-65631722D01*
X37620593Y-65792455D01*
X37614326Y-65811744D01*
X37594540Y-66000000D01*
X33328233Y-66000000D01*
X33293797Y-65907671D01*
X33293793Y-65907664D01*
X33207547Y-65792455D01*
X33207544Y-65792452D01*
X33092335Y-65706206D01*
X33092328Y-65706202D01*
X32957482Y-65655908D01*
X32957483Y-65655908D01*
X32897883Y-65649501D01*
X32897881Y-65649500D01*
X32897873Y-65649500D01*
X32897865Y-65649500D01*
X32451737Y-65649500D01*
X32384698Y-65629815D01*
X32338943Y-65577011D01*
X32328999Y-65507853D01*
X32332106Y-65492874D01*
X32918504Y-63342745D01*
X32955133Y-63283249D01*
X32965243Y-63275059D01*
X33105871Y-63172888D01*
X33232533Y-63032216D01*
X33327179Y-62868284D01*
X33385674Y-62688256D01*
X33405460Y-62500000D01*
X33385674Y-62311744D01*
X33327179Y-62131716D01*
X33232533Y-61967784D01*
X33105871Y-61827112D01*
X33105870Y-61827111D01*
X32952734Y-61715851D01*
X32952729Y-61715848D01*
X32779807Y-61638857D01*
X32779802Y-61638855D01*
X32634001Y-61607865D01*
X32594646Y-61599500D01*
X32405354Y-61599500D01*
X32372897Y-61606398D01*
X32220197Y-61638855D01*
X32220192Y-61638857D01*
X32047270Y-61715848D01*
X32047265Y-61715851D01*
X31894129Y-61827111D01*
X31767466Y-61967785D01*
X31672821Y-62131715D01*
X31672818Y-62131722D01*
X31614327Y-62311740D01*
X31614326Y-62311744D01*
X31594540Y-62500000D01*
X31614326Y-62688256D01*
X31614327Y-62688259D01*
X31672818Y-62868277D01*
X31672820Y-62868281D01*
X31672821Y-62868284D01*
X31700220Y-62915740D01*
X31716692Y-62983640D01*
X31712463Y-63010366D01*
X31001841Y-65615982D01*
X30965211Y-65675479D01*
X30925547Y-65699535D01*
X30907669Y-65706203D01*
X30907665Y-65706205D01*
X30792455Y-65792452D01*
X30792452Y-65792455D01*
X30706206Y-65907664D01*
X30706202Y-65907671D01*
X30655908Y-66042517D01*
X30649501Y-66102116D01*
X30649501Y-66102123D01*
X30649500Y-66102135D01*
X30649500Y-66891291D01*
X30645131Y-66923918D01*
X29081494Y-72657254D01*
X29044864Y-72716751D01*
X29034749Y-72724945D01*
X28894127Y-72827113D01*
X28767466Y-72967785D01*
X28672821Y-73131715D01*
X28672818Y-73131722D01*
X28614327Y-73311740D01*
X28614326Y-73311744D01*
X28594540Y-73500000D01*
X25604351Y-73500000D01*
X25155270Y-63171139D01*
X25172024Y-63103309D01*
X25187003Y-63082782D01*
X25193741Y-63075298D01*
X25232533Y-63032216D01*
X25327179Y-62868284D01*
X25385674Y-62688256D01*
X25405460Y-62500000D01*
X25385674Y-62311744D01*
X25327179Y-62131716D01*
X25232533Y-61967784D01*
X25105871Y-61827112D01*
X25105870Y-61827111D01*
X24952734Y-61715851D01*
X24952729Y-61715848D01*
X24779807Y-61638857D01*
X24779802Y-61638855D01*
X24634001Y-61607865D01*
X24594646Y-61599500D01*
X24405354Y-61599500D01*
X24372897Y-61606398D01*
X24220197Y-61638855D01*
X24220192Y-61638857D01*
X24047270Y-61715848D01*
X24047265Y-61715851D01*
X23894129Y-61827111D01*
X23767466Y-61967785D01*
X23672821Y-62131715D01*
X23672818Y-62131722D01*
X23614327Y-62311740D01*
X23614326Y-62311744D01*
X23594540Y-62500000D01*
X23614326Y-62688256D01*
X23614327Y-62688259D01*
X23672818Y-62868277D01*
X23672820Y-62868281D01*
X23672821Y-62868284D01*
X23767467Y-63032216D01*
X23856996Y-63131648D01*
X23873824Y-63150337D01*
X23904054Y-63213328D01*
X23905557Y-63227924D01*
X23907689Y-63276967D01*
X23890935Y-63344798D01*
X23840168Y-63392803D01*
X23819114Y-63401219D01*
X23746147Y-63422892D01*
X23746146Y-63422893D01*
X23610600Y-63504156D01*
X23610597Y-63504158D01*
X23499524Y-63616570D01*
X23499522Y-63616573D01*
X21614123Y-66848682D01*
X21563340Y-66896671D01*
X21494675Y-66909587D01*
X21429927Y-66883328D01*
X21389654Y-66826233D01*
X21385720Y-66811965D01*
X21385675Y-66811754D01*
X21385674Y-66811744D01*
X21327179Y-66631716D01*
X21232533Y-66467784D01*
X21222740Y-66456908D01*
X21157350Y-66384284D01*
X21127120Y-66321292D01*
X21125500Y-66301312D01*
X21125500Y-63198687D01*
X21145185Y-63131648D01*
X21157350Y-63115715D01*
X21175891Y-63095122D01*
X21232533Y-63032216D01*
X21327179Y-62868284D01*
X21385674Y-62688256D01*
X21405460Y-62500000D01*
X21385674Y-62311744D01*
X21327179Y-62131716D01*
X21232533Y-61967784D01*
X21105871Y-61827112D01*
X21105870Y-61827111D01*
X20952734Y-61715851D01*
X20952729Y-61715848D01*
X20779807Y-61638857D01*
X20779802Y-61638855D01*
X20634001Y-61607865D01*
X20594646Y-61599500D01*
X20405354Y-61599500D01*
X20372897Y-61606398D01*
X20220197Y-61638855D01*
X20220192Y-61638857D01*
X20047270Y-61715848D01*
X20047265Y-61715851D01*
X19894129Y-61827111D01*
X19767466Y-61967785D01*
X19672821Y-62131715D01*
X19672818Y-62131722D01*
X19614327Y-62311740D01*
X19614326Y-62311744D01*
X19594540Y-62500000D01*
X19614326Y-62688256D01*
X19614327Y-62688259D01*
X19672818Y-62868277D01*
X19672820Y-62868281D01*
X19672821Y-62868284D01*
X19767467Y-63032216D01*
X19810772Y-63080310D01*
X19842650Y-63115715D01*
X19872880Y-63178706D01*
X19874500Y-63198687D01*
X19874500Y-63931605D01*
X19865021Y-63963884D01*
X19871244Y-63974873D01*
X19874500Y-64003101D01*
X19874500Y-66301312D01*
X19854815Y-66368351D01*
X19842650Y-66384284D01*
X19767466Y-66467785D01*
X19693933Y-66595148D01*
X19643366Y-66643364D01*
X19574759Y-66656587D01*
X19509894Y-66630619D01*
X19487956Y-66608354D01*
X19449395Y-66557803D01*
X19449390Y-66557798D01*
X19325306Y-66459935D01*
X19325302Y-66459932D01*
X19180777Y-66396001D01*
X18294572Y-66248300D01*
X18231681Y-66217862D01*
X18195230Y-66158254D01*
X18196791Y-66088402D01*
X18222808Y-66043016D01*
X18232533Y-66032216D01*
X18327179Y-65868284D01*
X18385674Y-65688256D01*
X18405460Y-65500000D01*
X18385674Y-65311744D01*
X18327179Y-65131716D01*
X18232533Y-64967784D01*
X18201472Y-64933287D01*
X18171242Y-64870295D01*
X18179868Y-64800960D01*
X18224609Y-64747295D01*
X18277231Y-64727404D01*
X19121673Y-64614812D01*
X19236124Y-64584585D01*
X19348779Y-64521637D01*
X19374083Y-64507499D01*
X19374084Y-64507497D01*
X19374086Y-64507497D01*
X19488543Y-64398522D01*
X19572302Y-64264506D01*
X19620103Y-64113870D01*
X19626694Y-63996167D01*
X19635194Y-63972253D01*
X19631523Y-63966540D01*
X19628859Y-63955678D01*
X19624095Y-63931605D01*
X19598258Y-63801049D01*
X19562798Y-63727022D01*
X19529986Y-63658520D01*
X19507442Y-63631648D01*
X19428411Y-63537445D01*
X19421106Y-63532214D01*
X19299921Y-63445435D01*
X19299919Y-63445434D01*
X19152585Y-63388272D01*
X19152575Y-63388269D01*
X18995661Y-63369542D01*
X18995657Y-63369543D01*
X12109750Y-64287664D01*
X12040697Y-64277013D01*
X12020481Y-64265073D01*
X11952730Y-64215849D01*
X11952729Y-64215848D01*
X11779807Y-64138857D01*
X11779802Y-64138855D01*
X11634001Y-64107865D01*
X11594646Y-64099500D01*
X11405354Y-64099500D01*
X11372897Y-64106398D01*
X11220197Y-64138855D01*
X11220192Y-64138857D01*
X11047270Y-64215848D01*
X11047265Y-64215851D01*
X10894129Y-64327111D01*
X10767466Y-64467785D01*
X10672821Y-64631715D01*
X10672818Y-64631722D01*
X10617830Y-64800960D01*
X10614326Y-64811744D01*
X10594540Y-65000000D01*
X500500Y-65000000D01*
X500500Y-55533986D01*
X2870445Y-55533986D01*
X2898676Y-55689482D01*
X2964690Y-55833072D01*
X2964691Y-55833073D01*
X2964691Y-55833074D01*
X3019468Y-55900500D01*
X3064340Y-55955734D01*
X3191363Y-56049761D01*
X3191365Y-56049762D01*
X3191367Y-56049763D01*
X3337770Y-56109241D01*
X3337773Y-56109241D01*
X3337779Y-56109244D01*
X3494388Y-56130446D01*
X3651350Y-56112035D01*
X3798802Y-56055167D01*
X3927480Y-55963417D01*
X4029296Y-55842548D01*
X4097856Y-55700155D01*
X4976368Y-51307587D01*
X5008818Y-51245711D01*
X5025076Y-51231588D01*
X5105871Y-51172888D01*
X5232533Y-51032216D01*
X5240439Y-51018521D01*
X5291004Y-50970304D01*
X5359611Y-50957079D01*
X5424476Y-50983045D01*
X5465007Y-51039958D01*
X5471149Y-51093480D01*
X5466511Y-51137611D01*
X5459953Y-51200000D01*
X5478092Y-51372576D01*
X5478093Y-51372579D01*
X5531712Y-51537608D01*
X5618477Y-51687887D01*
X5618476Y-51687887D01*
X5618478Y-51687889D01*
X5734590Y-51816845D01*
X5866417Y-51912623D01*
X5909081Y-51967952D01*
X5915454Y-52035537D01*
X5909767Y-52066215D01*
X6126081Y-52282529D01*
X6159566Y-52343852D01*
X6161721Y-52383166D01*
X6159953Y-52399994D01*
X6159953Y-52399996D01*
X6159953Y-52400000D01*
X6178092Y-52572576D01*
X6178093Y-52572579D01*
X6193796Y-52620911D01*
X6129613Y-52672095D01*
X6090000Y-52754351D01*
X6090000Y-52845649D01*
X6129613Y-52927905D01*
X6155304Y-52948392D01*
X6118490Y-52951908D01*
X6056387Y-52919891D01*
X6054277Y-52917830D01*
X5556649Y-52420202D01*
X5532173Y-52462595D01*
X5478585Y-52627523D01*
X5478584Y-52627526D01*
X5460456Y-52800000D01*
X5476104Y-52948873D01*
X5463535Y-53017603D01*
X5415803Y-53068627D01*
X5400237Y-53076396D01*
X5349769Y-53097301D01*
X5349767Y-53097302D01*
X5229549Y-53189549D01*
X5142634Y-53302819D01*
X5137300Y-53309770D01*
X5079313Y-53449763D01*
X5079312Y-53449765D01*
X5059534Y-53599999D01*
X5059534Y-53600000D01*
X5079312Y-53750234D01*
X5079313Y-53750236D01*
X5134773Y-53884129D01*
X5137302Y-53890233D01*
X5229549Y-54010451D01*
X5349767Y-54102698D01*
X5489764Y-54160687D01*
X5589033Y-54173756D01*
X5594380Y-54174460D01*
X5658276Y-54202727D01*
X5696747Y-54261051D01*
X5699484Y-54271618D01*
X5728855Y-54409802D01*
X5728857Y-54409807D01*
X5805848Y-54582729D01*
X5805851Y-54582734D01*
X5917111Y-54735870D01*
X5917112Y-54735871D01*
X6057784Y-54862533D01*
X6221716Y-54957179D01*
X6401744Y-55015674D01*
X6542808Y-55030500D01*
X6542812Y-55030500D01*
X7237188Y-55030500D01*
X7237192Y-55030500D01*
X7378256Y-55015674D01*
X7558284Y-54957179D01*
X7722216Y-54862533D01*
X7862888Y-54735871D01*
X7972760Y-54584645D01*
X11639500Y-54584645D01*
X11678855Y-54769802D01*
X11678857Y-54769807D01*
X11755848Y-54942729D01*
X11755851Y-54942734D01*
X11819617Y-55030500D01*
X11867112Y-55095871D01*
X12007784Y-55222533D01*
X12171716Y-55317179D01*
X12351744Y-55375674D01*
X12492808Y-55390500D01*
X12492812Y-55390500D01*
X13187188Y-55390500D01*
X13187192Y-55390500D01*
X13328256Y-55375674D01*
X13508284Y-55317179D01*
X13672216Y-55222533D01*
X13812888Y-55095871D01*
X13882542Y-55000000D01*
X19594540Y-55000000D01*
X19614326Y-55188256D01*
X19614327Y-55188259D01*
X19672818Y-55368277D01*
X19672821Y-55368284D01*
X19767467Y-55532216D01*
X19869185Y-55645185D01*
X19894129Y-55672888D01*
X20047265Y-55784148D01*
X20047270Y-55784151D01*
X20220192Y-55861142D01*
X20220197Y-55861144D01*
X20405354Y-55900500D01*
X20405355Y-55900500D01*
X20594644Y-55900500D01*
X20594646Y-55900500D01*
X20779803Y-55861144D01*
X20952730Y-55784151D01*
X21105871Y-55672888D01*
X21108788Y-55669647D01*
X21111600Y-55666526D01*
X21171087Y-55629879D01*
X21203748Y-55625500D01*
X42796252Y-55625500D01*
X42863291Y-55645185D01*
X42888400Y-55666526D01*
X42894126Y-55672885D01*
X42894130Y-55672889D01*
X43047265Y-55784148D01*
X43047270Y-55784151D01*
X43220192Y-55861142D01*
X43220197Y-55861144D01*
X43405354Y-55900500D01*
X43405355Y-55900500D01*
X43594644Y-55900500D01*
X43594646Y-55900500D01*
X43779803Y-55861144D01*
X43952730Y-55784151D01*
X44105871Y-55672888D01*
X44232533Y-55532216D01*
X44327179Y-55368284D01*
X44385674Y-55188256D01*
X44405460Y-55000000D01*
X44385674Y-54811744D01*
X44327179Y-54631716D01*
X44232533Y-54467784D01*
X44105871Y-54327112D01*
X44105870Y-54327111D01*
X43952734Y-54215851D01*
X43952729Y-54215848D01*
X43779807Y-54138857D01*
X43779802Y-54138855D01*
X43609696Y-54102699D01*
X43594646Y-54099500D01*
X43405354Y-54099500D01*
X43390304Y-54102699D01*
X43220197Y-54138855D01*
X43220192Y-54138857D01*
X43047270Y-54215848D01*
X43047265Y-54215851D01*
X42894130Y-54327110D01*
X42894126Y-54327114D01*
X42888400Y-54333474D01*
X42828913Y-54370121D01*
X42796252Y-54374500D01*
X21203748Y-54374500D01*
X21136709Y-54354815D01*
X21111600Y-54333474D01*
X21105873Y-54327114D01*
X21105869Y-54327110D01*
X20952734Y-54215851D01*
X20952729Y-54215848D01*
X20779807Y-54138857D01*
X20779802Y-54138855D01*
X20609696Y-54102699D01*
X20594646Y-54099500D01*
X20405354Y-54099500D01*
X20390304Y-54102699D01*
X20220197Y-54138855D01*
X20220192Y-54138857D01*
X20047270Y-54215848D01*
X20047265Y-54215851D01*
X19894129Y-54327111D01*
X19767466Y-54467785D01*
X19672821Y-54631715D01*
X19672818Y-54631722D01*
X19627952Y-54769807D01*
X19614326Y-54811744D01*
X19594540Y-55000000D01*
X13882542Y-55000000D01*
X13924151Y-54942730D01*
X14001144Y-54769803D01*
X14040500Y-54584646D01*
X14040500Y-54395354D01*
X14001144Y-54210197D01*
X13979100Y-54160687D01*
X13924151Y-54037270D01*
X13924148Y-54037265D01*
X13812888Y-53884129D01*
X13775197Y-53850192D01*
X13672216Y-53757467D01*
X13508284Y-53662821D01*
X13508277Y-53662818D01*
X13328259Y-53604327D01*
X13328256Y-53604326D01*
X13187192Y-53589500D01*
X12492808Y-53589500D01*
X12351744Y-53604326D01*
X12351741Y-53604326D01*
X12351740Y-53604327D01*
X12171722Y-53662818D01*
X12171715Y-53662821D01*
X12007785Y-53757466D01*
X11867111Y-53884129D01*
X11755851Y-54037265D01*
X11755848Y-54037270D01*
X11678857Y-54210192D01*
X11678855Y-54210197D01*
X11639500Y-54395354D01*
X11639500Y-54584645D01*
X7972760Y-54584645D01*
X7974151Y-54582730D01*
X8051144Y-54409803D01*
X8090500Y-54224646D01*
X8090500Y-54035354D01*
X8051144Y-53850197D01*
X8009857Y-53757467D01*
X7974151Y-53677270D01*
X7974148Y-53677265D01*
X7862888Y-53524129D01*
X7722216Y-53397467D01*
X7558284Y-53302821D01*
X7558280Y-53302819D01*
X7508861Y-53286762D01*
X7451186Y-53247324D01*
X7423988Y-53182965D01*
X7435903Y-53114119D01*
X7474294Y-53068513D01*
X7545410Y-53016845D01*
X7661522Y-52887889D01*
X7748286Y-52737611D01*
X7801908Y-52572576D01*
X7820047Y-52400000D01*
X7801908Y-52227424D01*
X7748286Y-52062389D01*
X7748065Y-52062007D01*
X7748005Y-52061759D01*
X7745642Y-52056451D01*
X7746612Y-52056018D01*
X7731588Y-51994110D01*
X7746342Y-51943860D01*
X7745642Y-51943549D01*
X7747968Y-51938324D01*
X7748065Y-51937993D01*
X7748286Y-51937611D01*
X7801908Y-51772576D01*
X7820047Y-51600000D01*
X7801908Y-51427424D01*
X7748286Y-51262389D01*
X7748065Y-51262007D01*
X7748005Y-51261759D01*
X7745642Y-51256451D01*
X7746612Y-51256018D01*
X7731588Y-51194110D01*
X7746342Y-51143860D01*
X7745642Y-51143549D01*
X7747968Y-51138324D01*
X7748065Y-51137993D01*
X7748286Y-51137611D01*
X7801908Y-50972576D01*
X7820047Y-50800000D01*
X7801908Y-50627424D01*
X7748286Y-50462389D01*
X7661522Y-50312111D01*
X7545410Y-50183155D01*
X7545408Y-50183153D01*
X7431395Y-50100318D01*
X7388729Y-50044988D01*
X7384865Y-50000000D01*
X15094540Y-50000000D01*
X15114326Y-50188256D01*
X15114327Y-50188259D01*
X15172818Y-50368277D01*
X15172821Y-50368284D01*
X15267467Y-50532216D01*
X15353244Y-50627481D01*
X15394129Y-50672888D01*
X15547265Y-50784148D01*
X15547270Y-50784151D01*
X15720192Y-50861142D01*
X15720197Y-50861144D01*
X15905354Y-50900500D01*
X15905355Y-50900500D01*
X16094644Y-50900500D01*
X16094646Y-50900500D01*
X16279803Y-50861144D01*
X16452730Y-50784151D01*
X16605871Y-50672888D01*
X16732533Y-50532216D01*
X16827179Y-50368284D01*
X16843159Y-50319100D01*
X16882594Y-50261428D01*
X16905628Y-50246515D01*
X18650643Y-49374007D01*
X18719407Y-49361633D01*
X18731876Y-49363627D01*
X18804946Y-49379157D01*
X18905354Y-49400500D01*
X18905355Y-49400500D01*
X19094644Y-49400500D01*
X19094646Y-49400500D01*
X19279803Y-49361144D01*
X19452730Y-49284151D01*
X19605871Y-49172888D01*
X19732533Y-49032216D01*
X19827179Y-48868284D01*
X19885674Y-48688256D01*
X19905460Y-48500000D01*
X19885674Y-48311744D01*
X19827179Y-48131716D01*
X19751133Y-48000000D01*
X21094540Y-48000000D01*
X21114326Y-48188256D01*
X21114327Y-48188259D01*
X21172818Y-48368277D01*
X21172821Y-48368284D01*
X21267467Y-48532216D01*
X21353193Y-48627424D01*
X21394129Y-48672888D01*
X21547265Y-48784148D01*
X21547270Y-48784151D01*
X21720192Y-48861142D01*
X21720197Y-48861144D01*
X21905354Y-48900500D01*
X21905355Y-48900500D01*
X22094644Y-48900500D01*
X22094646Y-48900500D01*
X22279803Y-48861144D01*
X22350050Y-48829866D01*
X22419299Y-48820581D01*
X22442860Y-48826611D01*
X23792877Y-49317527D01*
X23849152Y-49358935D01*
X23874107Y-49424197D01*
X23874500Y-49434060D01*
X23874500Y-50801312D01*
X23854815Y-50868351D01*
X23842650Y-50884284D01*
X23767466Y-50967784D01*
X23672821Y-51131715D01*
X23672818Y-51131722D01*
X23630361Y-51262393D01*
X23614326Y-51311744D01*
X23594540Y-51500000D01*
X23614326Y-51688256D01*
X23614327Y-51688259D01*
X23672818Y-51868277D01*
X23672821Y-51868284D01*
X23767467Y-52032216D01*
X23894129Y-52172888D01*
X24047265Y-52284148D01*
X24047270Y-52284151D01*
X24220192Y-52361142D01*
X24220197Y-52361144D01*
X24405354Y-52400500D01*
X24405355Y-52400500D01*
X24594644Y-52400500D01*
X24594646Y-52400500D01*
X24779803Y-52361144D01*
X24952730Y-52284151D01*
X25105871Y-52172888D01*
X25232533Y-52032216D01*
X25327179Y-51868284D01*
X25385674Y-51688256D01*
X25405460Y-51500000D01*
X25385674Y-51311744D01*
X25327179Y-51131716D01*
X25232533Y-50967784D01*
X25222894Y-50957079D01*
X25157350Y-50884284D01*
X25127120Y-50821292D01*
X25125500Y-50801312D01*
X25125500Y-49979151D01*
X25145185Y-49912112D01*
X25197989Y-49866357D01*
X25267147Y-49856413D01*
X25291872Y-49862616D01*
X27323221Y-50601288D01*
X27438662Y-50627481D01*
X27596637Y-50623021D01*
X27596640Y-50623020D01*
X27596642Y-50623020D01*
X27748534Y-50579417D01*
X27748535Y-50579416D01*
X27748540Y-50579415D01*
X27884826Y-50499402D01*
X27996933Y-50388010D01*
X28077815Y-50252239D01*
X28122391Y-50100618D01*
X28127859Y-49942674D01*
X28126746Y-49937620D01*
X28100155Y-49816846D01*
X28093877Y-49788333D01*
X28022581Y-49647291D01*
X28022579Y-49647289D01*
X28022579Y-49647288D01*
X27918445Y-49528410D01*
X27918443Y-49528408D01*
X27807938Y-49452791D01*
X27763728Y-49398687D01*
X27755787Y-49329270D01*
X27786637Y-49266580D01*
X27846482Y-49230520D01*
X27851055Y-49229412D01*
X30674103Y-48602069D01*
X30785530Y-48562109D01*
X30916350Y-48473441D01*
X31021009Y-48355025D01*
X31092932Y-48214301D01*
X31127599Y-48060112D01*
X31122831Y-47902147D01*
X31101132Y-47827111D01*
X31078929Y-47750330D01*
X31078928Y-47750328D01*
X31059551Y-47717470D01*
X30998649Y-47614200D01*
X30887038Y-47502311D01*
X30887037Y-47502310D01*
X30887036Y-47502309D01*
X30751113Y-47421696D01*
X30751108Y-47421693D01*
X30599402Y-47377414D01*
X30441444Y-47372252D01*
X26552390Y-48236487D01*
X26482677Y-48231814D01*
X26458481Y-48218895D01*
X26458363Y-48219101D01*
X26452729Y-48215848D01*
X26279807Y-48138857D01*
X26279802Y-48138855D01*
X26134001Y-48107865D01*
X26094646Y-48099500D01*
X25905354Y-48099500D01*
X25872897Y-48106398D01*
X25720197Y-48138855D01*
X25720192Y-48138857D01*
X25547270Y-48215848D01*
X25547267Y-48215850D01*
X25529402Y-48228830D01*
X25463595Y-48252308D01*
X25395542Y-48236481D01*
X25346848Y-48186374D01*
X25338588Y-48166828D01*
X25327181Y-48131722D01*
X25327180Y-48131721D01*
X25327179Y-48131716D01*
X25232533Y-47967784D01*
X25105871Y-47827112D01*
X25084719Y-47811744D01*
X24952734Y-47715851D01*
X24952729Y-47715848D01*
X24779807Y-47638857D01*
X24779802Y-47638855D01*
X24634001Y-47607865D01*
X24594646Y-47599500D01*
X24405354Y-47599500D01*
X24372897Y-47606398D01*
X24220197Y-47638855D01*
X24220192Y-47638857D01*
X24047270Y-47715848D01*
X24047265Y-47715851D01*
X23894129Y-47827111D01*
X23894128Y-47827112D01*
X23817064Y-47912699D01*
X23757577Y-47949347D01*
X23687720Y-47948016D01*
X23682539Y-47946260D01*
X22872175Y-47651582D01*
X22815899Y-47610173D01*
X22807164Y-47597048D01*
X22732534Y-47467785D01*
X22605870Y-47327111D01*
X22452734Y-47215851D01*
X22452729Y-47215848D01*
X22279807Y-47138857D01*
X22279802Y-47138855D01*
X22134001Y-47107865D01*
X22094646Y-47099500D01*
X21905354Y-47099500D01*
X21872897Y-47106398D01*
X21720197Y-47138855D01*
X21720192Y-47138857D01*
X21547270Y-47215848D01*
X21547265Y-47215851D01*
X21394129Y-47327111D01*
X21267466Y-47467785D01*
X21172821Y-47631715D01*
X21172818Y-47631722D01*
X21114327Y-47811740D01*
X21114326Y-47811744D01*
X21094540Y-48000000D01*
X19751133Y-48000000D01*
X19732533Y-47967784D01*
X19605871Y-47827112D01*
X19584719Y-47811744D01*
X19452734Y-47715851D01*
X19452729Y-47715848D01*
X19279807Y-47638857D01*
X19279802Y-47638855D01*
X19134001Y-47607865D01*
X19094646Y-47599500D01*
X18905354Y-47599500D01*
X18872897Y-47606398D01*
X18720197Y-47638855D01*
X18720192Y-47638857D01*
X18547270Y-47715848D01*
X18547267Y-47715850D01*
X18529402Y-47728830D01*
X18463595Y-47752308D01*
X18395542Y-47736481D01*
X18346848Y-47686374D01*
X18338588Y-47666828D01*
X18327181Y-47631722D01*
X18327180Y-47631721D01*
X18327179Y-47631716D01*
X18232533Y-47467784D01*
X18196189Y-47427420D01*
X18157350Y-47384284D01*
X18127120Y-47321292D01*
X18125500Y-47301312D01*
X18125500Y-46698687D01*
X18145185Y-46631648D01*
X18157350Y-46615715D01*
X18175891Y-46595122D01*
X18232533Y-46532216D01*
X18327179Y-46368284D01*
X18385674Y-46188256D01*
X18405460Y-46000000D01*
X18385674Y-45811744D01*
X18327179Y-45631716D01*
X18232533Y-45467784D01*
X18105871Y-45327112D01*
X18105870Y-45327111D01*
X17952734Y-45215851D01*
X17952729Y-45215848D01*
X17779807Y-45138857D01*
X17779802Y-45138855D01*
X17634001Y-45107865D01*
X17594646Y-45099500D01*
X17405354Y-45099500D01*
X17372897Y-45106398D01*
X17220197Y-45138855D01*
X17220192Y-45138857D01*
X17047270Y-45215848D01*
X17047265Y-45215851D01*
X16894129Y-45327111D01*
X16767466Y-45467785D01*
X16672821Y-45631715D01*
X16672818Y-45631722D01*
X16621506Y-45789645D01*
X16614326Y-45811744D01*
X16594540Y-46000000D01*
X16614326Y-46188256D01*
X16614327Y-46188259D01*
X16672818Y-46368277D01*
X16672821Y-46368284D01*
X16767467Y-46532216D01*
X16810772Y-46580310D01*
X16842650Y-46615715D01*
X16872880Y-46678706D01*
X16874500Y-46698687D01*
X16874500Y-47301312D01*
X16854815Y-47368351D01*
X16842650Y-47384284D01*
X16767466Y-47467784D01*
X16672821Y-47631715D01*
X16672818Y-47631722D01*
X16614327Y-47811740D01*
X16614326Y-47811744D01*
X16594540Y-48000000D01*
X16614326Y-48188256D01*
X16614327Y-48188259D01*
X16672818Y-48368277D01*
X16672821Y-48368284D01*
X16767467Y-48532216D01*
X16853193Y-48627424D01*
X16897347Y-48676462D01*
X16927577Y-48739453D01*
X16918952Y-48808789D01*
X16874210Y-48862454D01*
X16860651Y-48870343D01*
X16349354Y-49125991D01*
X16280589Y-49138366D01*
X16268120Y-49136372D01*
X16094646Y-49099500D01*
X15905354Y-49099500D01*
X15872897Y-49106398D01*
X15720197Y-49138855D01*
X15720192Y-49138857D01*
X15547270Y-49215848D01*
X15547265Y-49215851D01*
X15394129Y-49327111D01*
X15267466Y-49467785D01*
X15172821Y-49631715D01*
X15172818Y-49631722D01*
X15117454Y-49802117D01*
X15114326Y-49811744D01*
X15094540Y-50000000D01*
X7384865Y-50000000D01*
X7382750Y-49975375D01*
X7415356Y-49913580D01*
X7431395Y-49899682D01*
X7477263Y-49866357D01*
X7545410Y-49816845D01*
X7661522Y-49687889D01*
X7748286Y-49537611D01*
X7801908Y-49372576D01*
X7820047Y-49200000D01*
X7801908Y-49027424D01*
X7748286Y-48862389D01*
X7748065Y-48862007D01*
X7748005Y-48861759D01*
X7745642Y-48856451D01*
X7746612Y-48856018D01*
X7731588Y-48794110D01*
X7746342Y-48743860D01*
X7745642Y-48743549D01*
X7747968Y-48738324D01*
X7748065Y-48737993D01*
X7748286Y-48737611D01*
X7801908Y-48572576D01*
X7820047Y-48400000D01*
X7801908Y-48227424D01*
X7748286Y-48062389D01*
X7748065Y-48062007D01*
X7748005Y-48061759D01*
X7745642Y-48056451D01*
X7746612Y-48056018D01*
X7731588Y-47994110D01*
X7746342Y-47943860D01*
X7745642Y-47943549D01*
X7747968Y-47938324D01*
X7748065Y-47937993D01*
X7748286Y-47937611D01*
X7801908Y-47772576D01*
X7820047Y-47600000D01*
X7801908Y-47427424D01*
X7748286Y-47262389D01*
X7661522Y-47112111D01*
X7604412Y-47048683D01*
X7545411Y-46983156D01*
X7474294Y-46931486D01*
X7431629Y-46876155D01*
X7425650Y-46806542D01*
X7458256Y-46744747D01*
X7508863Y-46713237D01*
X7558275Y-46697182D01*
X7558275Y-46697181D01*
X7558284Y-46697179D01*
X7722216Y-46602533D01*
X7862888Y-46475871D01*
X7974151Y-46322730D01*
X8051144Y-46149803D01*
X8090500Y-45964646D01*
X8090500Y-45775354D01*
X8087236Y-45760000D01*
X11673033Y-45760000D01*
X11679334Y-45789645D01*
X11756286Y-45962481D01*
X11867487Y-46115535D01*
X12008081Y-46242127D01*
X12008084Y-46242129D01*
X12171915Y-46336716D01*
X12171927Y-46336721D01*
X12351845Y-46395180D01*
X12492841Y-46410000D01*
X12590000Y-46410000D01*
X12590000Y-45760000D01*
X13090000Y-45760000D01*
X13090000Y-46410000D01*
X13187159Y-46410000D01*
X13328154Y-46395180D01*
X13508072Y-46336721D01*
X13508084Y-46336716D01*
X13671915Y-46242129D01*
X13671918Y-46242127D01*
X13812509Y-46115539D01*
X13812511Y-46115536D01*
X13923717Y-45962477D01*
X14000664Y-45789648D01*
X14006967Y-45760000D01*
X13164624Y-45760000D01*
X13237545Y-45745495D01*
X13320240Y-45690240D01*
X13375495Y-45607545D01*
X13394898Y-45510000D01*
X13375495Y-45412455D01*
X13320240Y-45329760D01*
X13237545Y-45274505D01*
X13164624Y-45260000D01*
X14006967Y-45260000D01*
X14000665Y-45230354D01*
X13923713Y-45057518D01*
X13812512Y-44904464D01*
X13671918Y-44777872D01*
X13671915Y-44777870D01*
X13508084Y-44683283D01*
X13508072Y-44683278D01*
X13328154Y-44624819D01*
X13187159Y-44610000D01*
X13090000Y-44610000D01*
X13090000Y-45260000D01*
X12590000Y-45260000D01*
X12590000Y-44610000D01*
X12492841Y-44610000D01*
X12351845Y-44624819D01*
X12171927Y-44683278D01*
X12171915Y-44683283D01*
X12008084Y-44777870D01*
X12008081Y-44777872D01*
X11867490Y-44904460D01*
X11867488Y-44904463D01*
X11756282Y-45057522D01*
X11679335Y-45230351D01*
X11673033Y-45260000D01*
X12515376Y-45260000D01*
X12442455Y-45274505D01*
X12359760Y-45329760D01*
X12304505Y-45412455D01*
X12285102Y-45510000D01*
X12304505Y-45607545D01*
X12359760Y-45690240D01*
X12442455Y-45745495D01*
X12515376Y-45760000D01*
X11673033Y-45760000D01*
X8087236Y-45760000D01*
X8051144Y-45590197D01*
X7974151Y-45417270D01*
X7974148Y-45417265D01*
X7862888Y-45264129D01*
X7809270Y-45215851D01*
X7722216Y-45137467D01*
X7558284Y-45042821D01*
X7558277Y-45042818D01*
X7378259Y-44984327D01*
X7378256Y-44984326D01*
X7237192Y-44969500D01*
X6542808Y-44969500D01*
X6401744Y-44984326D01*
X6401741Y-44984326D01*
X6401740Y-44984327D01*
X6221722Y-45042818D01*
X6221715Y-45042821D01*
X6057785Y-45137466D01*
X5917111Y-45264129D01*
X5805851Y-45417265D01*
X5805848Y-45417270D01*
X5726212Y-45596134D01*
X5724099Y-45595193D01*
X5690619Y-45644138D01*
X5628328Y-45671070D01*
X5513035Y-45686249D01*
X5489764Y-45689313D01*
X5489762Y-45689313D01*
X5489757Y-45689315D01*
X5485740Y-45690979D01*
X5482079Y-45691372D01*
X5481913Y-45691417D01*
X5481906Y-45691391D01*
X5416271Y-45698445D01*
X5353793Y-45667167D01*
X5331901Y-45636493D01*
X5330429Y-45637344D01*
X5232534Y-45467785D01*
X5105870Y-45327111D01*
X4952734Y-45215851D01*
X4952729Y-45215848D01*
X4779807Y-45138857D01*
X4779802Y-45138855D01*
X4634001Y-45107865D01*
X4594646Y-45099500D01*
X4405354Y-45099500D01*
X4372897Y-45106398D01*
X4220197Y-45138855D01*
X4220192Y-45138857D01*
X4047270Y-45215848D01*
X4047265Y-45215851D01*
X3894129Y-45327111D01*
X3767466Y-45467785D01*
X3672821Y-45631715D01*
X3672818Y-45631722D01*
X3621506Y-45789645D01*
X3614326Y-45811744D01*
X3594540Y-46000000D01*
X3614326Y-46188256D01*
X3614327Y-46188259D01*
X3672818Y-46368277D01*
X3672821Y-46368284D01*
X3767467Y-46532216D01*
X3810772Y-46580310D01*
X3842650Y-46615715D01*
X3872880Y-46678706D01*
X3874500Y-46698687D01*
X3874500Y-48539359D01*
X3889336Y-48656791D01*
X3889336Y-48656793D01*
X3947513Y-48803730D01*
X3947518Y-48803739D01*
X4040402Y-48931583D01*
X4040403Y-48931584D01*
X4040405Y-48931585D01*
X4040406Y-48931587D01*
X4089954Y-48972576D01*
X4162178Y-49032325D01*
X4229909Y-49064196D01*
X4305174Y-49099614D01*
X4460412Y-49129227D01*
X4618138Y-49119304D01*
X4768441Y-49070467D01*
X4901877Y-48985786D01*
X5010062Y-48870582D01*
X5010194Y-48870343D01*
X5046814Y-48803730D01*
X5086197Y-48732092D01*
X5125500Y-48579019D01*
X5125500Y-47132058D01*
X5145185Y-47065019D01*
X5197989Y-47019264D01*
X5267147Y-47009320D01*
X5324987Y-47033683D01*
X5349767Y-47052698D01*
X5385129Y-47067345D01*
X5439529Y-47111184D01*
X5461595Y-47177478D01*
X5460996Y-47194857D01*
X5460456Y-47199997D01*
X5478584Y-47372473D01*
X5478585Y-47372476D01*
X5532174Y-47537407D01*
X5556649Y-47579797D01*
X6054278Y-47082168D01*
X6115601Y-47048683D01*
X6155401Y-47051529D01*
X6129613Y-47072095D01*
X6090000Y-47154351D01*
X6090000Y-47245649D01*
X6129613Y-47327905D01*
X6193796Y-47379088D01*
X6179953Y-47421696D01*
X6178092Y-47427424D01*
X6160006Y-47599500D01*
X6159953Y-47600003D01*
X6159953Y-47600004D01*
X6161721Y-47616832D01*
X6149149Y-47685561D01*
X6126081Y-47717470D01*
X5909767Y-47933783D01*
X5915454Y-47964463D01*
X5908316Y-48033967D01*
X5866416Y-48087378D01*
X5734588Y-48183156D01*
X5618477Y-48312112D01*
X5531712Y-48462391D01*
X5478093Y-48627420D01*
X5478092Y-48627424D01*
X5459953Y-48800000D01*
X5478092Y-48972576D01*
X5478093Y-48972579D01*
X5531713Y-49137610D01*
X5531717Y-49137620D01*
X5531944Y-49138012D01*
X5532005Y-49138267D01*
X5534359Y-49143553D01*
X5533391Y-49143983D01*
X5548409Y-49205914D01*
X5533662Y-49256136D01*
X5534359Y-49256447D01*
X5532044Y-49261646D01*
X5531944Y-49261988D01*
X5531717Y-49262379D01*
X5531713Y-49262389D01*
X5487429Y-49398687D01*
X5478092Y-49427424D01*
X5459953Y-49600000D01*
X5478092Y-49772576D01*
X5478093Y-49772579D01*
X5531713Y-49937610D01*
X5531717Y-49937620D01*
X5531944Y-49938012D01*
X5532005Y-49938267D01*
X5534359Y-49943553D01*
X5533391Y-49943983D01*
X5548409Y-50005914D01*
X5533662Y-50056136D01*
X5534359Y-50056447D01*
X5532044Y-50061646D01*
X5531944Y-50061988D01*
X5531717Y-50062379D01*
X5531712Y-50062391D01*
X5529707Y-50068564D01*
X5490269Y-50126239D01*
X5425910Y-50153436D01*
X5357063Y-50141520D01*
X5305588Y-50094275D01*
X5304390Y-50092244D01*
X5286724Y-50061646D01*
X5232533Y-49967784D01*
X5105871Y-49827112D01*
X5091740Y-49816845D01*
X4952734Y-49715851D01*
X4952729Y-49715848D01*
X4779807Y-49638857D01*
X4779802Y-49638855D01*
X4634001Y-49607865D01*
X4594646Y-49599500D01*
X4405354Y-49599500D01*
X4372897Y-49606398D01*
X4220197Y-49638855D01*
X4220192Y-49638857D01*
X4047270Y-49715848D01*
X4047265Y-49715851D01*
X3894129Y-49827111D01*
X3767466Y-49967785D01*
X3672821Y-50131715D01*
X3672818Y-50131722D01*
X3614327Y-50311740D01*
X3614326Y-50311744D01*
X3594540Y-50500000D01*
X3614326Y-50688256D01*
X3614327Y-50688259D01*
X3672821Y-50868286D01*
X3672822Y-50868288D01*
X3735331Y-50976558D01*
X3751804Y-51044458D01*
X3749536Y-51062875D01*
X2886978Y-55375674D01*
X2878930Y-55415915D01*
X2870445Y-55533986D01*
X500500Y-55533986D01*
X500500Y-37500000D01*
X19594540Y-37500000D01*
X19614326Y-37688256D01*
X19614327Y-37688259D01*
X19672818Y-37868277D01*
X19672821Y-37868284D01*
X19767467Y-38032216D01*
X19857063Y-38131722D01*
X19894129Y-38172888D01*
X20047265Y-38284148D01*
X20047270Y-38284151D01*
X20220192Y-38361142D01*
X20220197Y-38361144D01*
X20405354Y-38400500D01*
X20405355Y-38400500D01*
X20594644Y-38400500D01*
X20594646Y-38400500D01*
X20779803Y-38361144D01*
X20952730Y-38284151D01*
X21105871Y-38172888D01*
X21188817Y-38080766D01*
X21248301Y-38044119D01*
X21266633Y-38040570D01*
X29811434Y-37046989D01*
X29880298Y-37058799D01*
X29931846Y-37105964D01*
X29949711Y-37173512D01*
X29939928Y-37218540D01*
X29893245Y-37328703D01*
X29869708Y-37484979D01*
X29869707Y-37484986D01*
X29885774Y-37642198D01*
X29885775Y-37642201D01*
X29940432Y-37790479D01*
X29940435Y-37790484D01*
X29995761Y-37870580D01*
X30030255Y-37920516D01*
X30149591Y-38024126D01*
X31594364Y-38746512D01*
X31645522Y-38794098D01*
X31656840Y-38819101D01*
X31672819Y-38868280D01*
X31672821Y-38868284D01*
X31767467Y-39032216D01*
X31894129Y-39172888D01*
X32047265Y-39284148D01*
X32047270Y-39284151D01*
X32220192Y-39361142D01*
X32220197Y-39361144D01*
X32405354Y-39400500D01*
X32405355Y-39400500D01*
X32594644Y-39400500D01*
X32594646Y-39400500D01*
X32779803Y-39361144D01*
X32952730Y-39284151D01*
X33105871Y-39172888D01*
X33232533Y-39032216D01*
X33327179Y-38868284D01*
X33385674Y-38688256D01*
X33405460Y-38500000D01*
X33385674Y-38311744D01*
X33327179Y-38131716D01*
X33232533Y-37967784D01*
X33105871Y-37827112D01*
X33073701Y-37803739D01*
X32952734Y-37715851D01*
X32952729Y-37715848D01*
X32779807Y-37638857D01*
X32779802Y-37638855D01*
X32634001Y-37607865D01*
X32594646Y-37599500D01*
X32405354Y-37599500D01*
X32253078Y-37631866D01*
X32231878Y-37636373D01*
X32162211Y-37631056D01*
X32150644Y-37625991D01*
X31141835Y-37121587D01*
X31090676Y-37074000D01*
X31073366Y-37006308D01*
X31095401Y-36940004D01*
X31149785Y-36896138D01*
X31182961Y-36887509D01*
X39570967Y-35912159D01*
X39639829Y-35923969D01*
X39691377Y-35971134D01*
X39709242Y-36038682D01*
X39692675Y-36097328D01*
X39672820Y-36131717D01*
X39672818Y-36131722D01*
X39614327Y-36311740D01*
X39614326Y-36311744D01*
X39594540Y-36500000D01*
X39614326Y-36688256D01*
X39614327Y-36688259D01*
X39672818Y-36868277D01*
X39672821Y-36868284D01*
X39767467Y-37032216D01*
X39791403Y-37058799D01*
X39842650Y-37115715D01*
X39872880Y-37178706D01*
X39874500Y-37198687D01*
X39874500Y-37539359D01*
X39889336Y-37656791D01*
X39889336Y-37656793D01*
X39947513Y-37803730D01*
X39947518Y-37803739D01*
X40040402Y-37931583D01*
X40040403Y-37931584D01*
X40040405Y-37931585D01*
X40040406Y-37931587D01*
X40105921Y-37985785D01*
X40162178Y-38032325D01*
X40229909Y-38064196D01*
X40305174Y-38099614D01*
X40460412Y-38129227D01*
X40618138Y-38119304D01*
X40768441Y-38070467D01*
X40901877Y-37985786D01*
X41010062Y-37870582D01*
X41011326Y-37868284D01*
X41086195Y-37732095D01*
X41086197Y-37732092D01*
X41125500Y-37579019D01*
X41125500Y-37198687D01*
X41145185Y-37131648D01*
X41157350Y-37115715D01*
X41194910Y-37074000D01*
X41232533Y-37032216D01*
X41327179Y-36868284D01*
X41385674Y-36688256D01*
X41405460Y-36500000D01*
X41385674Y-36311744D01*
X41327179Y-36131716D01*
X41234467Y-35971134D01*
X41232535Y-35967787D01*
X41232534Y-35967786D01*
X41232533Y-35967784D01*
X41190361Y-35920948D01*
X41160133Y-35857959D01*
X41168758Y-35788624D01*
X41213499Y-35734958D01*
X41268188Y-35714808D01*
X41378431Y-35701989D01*
X41447294Y-35713798D01*
X41465629Y-35724835D01*
X41547266Y-35784148D01*
X41547270Y-35784151D01*
X41720192Y-35861142D01*
X41720197Y-35861144D01*
X41905354Y-35900500D01*
X41905355Y-35900500D01*
X42094644Y-35900500D01*
X42094646Y-35900500D01*
X42279803Y-35861144D01*
X42452730Y-35784151D01*
X42605871Y-35672888D01*
X42732533Y-35532216D01*
X42827179Y-35368284D01*
X42885674Y-35188256D01*
X42898505Y-35066165D01*
X42925089Y-35001553D01*
X42982387Y-34961568D01*
X43052206Y-34958908D01*
X43106708Y-34988736D01*
X43129418Y-35010062D01*
X43129420Y-35010063D01*
X43129422Y-35010065D01*
X43252175Y-35077548D01*
X43267908Y-35086197D01*
X43420981Y-35125500D01*
X48796252Y-35125500D01*
X48863291Y-35145185D01*
X48888400Y-35166526D01*
X48894126Y-35172885D01*
X48894130Y-35172889D01*
X49047265Y-35284148D01*
X49047270Y-35284151D01*
X49220192Y-35361142D01*
X49220197Y-35361144D01*
X49405354Y-35400500D01*
X49405355Y-35400500D01*
X49594644Y-35400500D01*
X49594646Y-35400500D01*
X49779803Y-35361144D01*
X49952730Y-35284151D01*
X50105871Y-35172888D01*
X50232533Y-35032216D01*
X50327179Y-34868284D01*
X50385674Y-34688256D01*
X50405460Y-34500000D01*
X50385674Y-34311744D01*
X50327179Y-34131716D01*
X50232533Y-33967784D01*
X50170840Y-33899267D01*
X50140086Y-33865111D01*
X50109856Y-33802119D01*
X50118481Y-33732784D01*
X50163223Y-33679119D01*
X50227068Y-33658247D01*
X50322888Y-33654255D01*
X50390684Y-33671131D01*
X50400918Y-33677820D01*
X50503358Y-33752247D01*
X50547270Y-33784151D01*
X50720192Y-33861142D01*
X50720197Y-33861144D01*
X50905354Y-33900500D01*
X50905355Y-33900500D01*
X51094644Y-33900500D01*
X51094646Y-33900500D01*
X51279803Y-33861144D01*
X51452730Y-33784151D01*
X51605871Y-33672888D01*
X51732533Y-33532216D01*
X51827179Y-33368284D01*
X51885674Y-33188256D01*
X51905460Y-33000000D01*
X51885674Y-32811744D01*
X51827179Y-32631716D01*
X51732533Y-32467784D01*
X51605871Y-32327112D01*
X51605863Y-32327106D01*
X51452734Y-32215851D01*
X51452729Y-32215848D01*
X51279807Y-32138857D01*
X51279802Y-32138855D01*
X51134001Y-32107865D01*
X51094646Y-32099500D01*
X50905354Y-32099500D01*
X50872897Y-32106398D01*
X50720197Y-32138855D01*
X50720192Y-32138857D01*
X50547270Y-32215848D01*
X50547265Y-32215851D01*
X50394135Y-32327106D01*
X50394126Y-32327114D01*
X50361575Y-32363264D01*
X50302088Y-32399911D01*
X50274590Y-32404182D01*
X39677114Y-32845743D01*
X39609313Y-32828866D01*
X39599067Y-32822168D01*
X39452734Y-32715851D01*
X39452729Y-32715848D01*
X39279807Y-32638857D01*
X39279802Y-32638855D01*
X39134001Y-32607865D01*
X39094646Y-32599500D01*
X38905354Y-32599500D01*
X38872897Y-32606398D01*
X38720197Y-32638855D01*
X38720192Y-32638857D01*
X38547270Y-32715848D01*
X38547265Y-32715851D01*
X38394129Y-32827111D01*
X38267466Y-32967785D01*
X38172821Y-33131715D01*
X38172818Y-33131722D01*
X38114327Y-33311740D01*
X38114326Y-33311744D01*
X38094540Y-33500000D01*
X38114326Y-33688256D01*
X38114327Y-33688259D01*
X38172818Y-33868277D01*
X38172821Y-33868284D01*
X38267467Y-34032216D01*
X38369185Y-34145185D01*
X38394129Y-34172888D01*
X38547265Y-34284148D01*
X38547270Y-34284151D01*
X38720192Y-34361142D01*
X38720197Y-34361144D01*
X38905354Y-34400500D01*
X38905355Y-34400500D01*
X39094644Y-34400500D01*
X39094646Y-34400500D01*
X39279803Y-34361144D01*
X39452730Y-34284151D01*
X39605871Y-34172888D01*
X39638420Y-34136737D01*
X39697904Y-34100089D01*
X39725405Y-34095816D01*
X41423200Y-34025075D01*
X41491000Y-34041952D01*
X41538913Y-34092806D01*
X41551727Y-34161490D01*
X41525373Y-34226199D01*
X41501247Y-34249286D01*
X41394127Y-34327113D01*
X41311182Y-34419232D01*
X41251695Y-34455880D01*
X41233355Y-34459429D01*
X26764698Y-36141831D01*
X26695834Y-36130021D01*
X26644286Y-36082856D01*
X26626421Y-36015308D01*
X26626762Y-36008893D01*
X26629792Y-35970743D01*
X26602730Y-35815039D01*
X26537796Y-35670957D01*
X26210530Y-35261875D01*
X26184023Y-35197230D01*
X26196673Y-35128515D01*
X26244465Y-35077548D01*
X26261695Y-35069129D01*
X26303732Y-35052486D01*
X26431587Y-34959594D01*
X26532324Y-34837823D01*
X26599614Y-34694826D01*
X26629227Y-34539588D01*
X26619304Y-34381862D01*
X26570467Y-34231559D01*
X26485786Y-34098123D01*
X26370582Y-33989938D01*
X26370579Y-33989936D01*
X26370577Y-33989934D01*
X26232095Y-33913804D01*
X26232087Y-33913801D01*
X26079021Y-33874500D01*
X26079019Y-33874500D01*
X25203748Y-33874500D01*
X25136709Y-33854815D01*
X25111600Y-33833474D01*
X25105873Y-33827114D01*
X25105872Y-33827113D01*
X25105871Y-33827112D01*
X25016337Y-33762061D01*
X24992396Y-33739206D01*
X24801031Y-33500000D01*
X26594540Y-33500000D01*
X26614326Y-33688256D01*
X26614327Y-33688259D01*
X26672818Y-33868277D01*
X26672821Y-33868284D01*
X26767467Y-34032216D01*
X26869185Y-34145185D01*
X26894129Y-34172888D01*
X27047265Y-34284148D01*
X27047270Y-34284151D01*
X27220192Y-34361142D01*
X27220197Y-34361144D01*
X27405354Y-34400500D01*
X27405355Y-34400500D01*
X27594644Y-34400500D01*
X27594646Y-34400500D01*
X27779803Y-34361144D01*
X27952730Y-34284151D01*
X28105871Y-34172888D01*
X28110926Y-34167274D01*
X28111600Y-34166526D01*
X28171087Y-34129879D01*
X28203748Y-34125500D01*
X31796252Y-34125500D01*
X31863291Y-34145185D01*
X31888400Y-34166526D01*
X31894126Y-34172885D01*
X31894130Y-34172889D01*
X32047265Y-34284148D01*
X32047270Y-34284151D01*
X32220192Y-34361142D01*
X32220197Y-34361144D01*
X32405354Y-34400500D01*
X32405355Y-34400500D01*
X32594644Y-34400500D01*
X32594646Y-34400500D01*
X32779803Y-34361144D01*
X32952730Y-34284151D01*
X33105871Y-34172888D01*
X33232533Y-34032216D01*
X33327179Y-33868284D01*
X33385674Y-33688256D01*
X33405460Y-33500000D01*
X33385674Y-33311744D01*
X33327179Y-33131716D01*
X33232533Y-32967784D01*
X33105871Y-32827112D01*
X33105870Y-32827111D01*
X32952734Y-32715851D01*
X32952729Y-32715848D01*
X32779807Y-32638857D01*
X32779802Y-32638855D01*
X32634001Y-32607865D01*
X32594646Y-32599500D01*
X32405354Y-32599500D01*
X32372897Y-32606398D01*
X32220197Y-32638855D01*
X32220192Y-32638857D01*
X32047270Y-32715848D01*
X32047265Y-32715851D01*
X31894130Y-32827110D01*
X31894126Y-32827114D01*
X31888400Y-32833474D01*
X31828913Y-32870121D01*
X31796252Y-32874500D01*
X28203748Y-32874500D01*
X28136709Y-32854815D01*
X28111600Y-32833474D01*
X28105873Y-32827114D01*
X28105869Y-32827110D01*
X27952734Y-32715851D01*
X27952729Y-32715848D01*
X27779807Y-32638857D01*
X27779802Y-32638855D01*
X27634001Y-32607865D01*
X27594646Y-32599500D01*
X27405354Y-32599500D01*
X27372897Y-32606398D01*
X27220197Y-32638855D01*
X27220192Y-32638857D01*
X27047270Y-32715848D01*
X27047265Y-32715851D01*
X26894129Y-32827111D01*
X26767466Y-32967785D01*
X26672821Y-33131715D01*
X26672818Y-33131722D01*
X26614327Y-33311740D01*
X26614326Y-33311744D01*
X26594540Y-33500000D01*
X24801031Y-33500000D01*
X22925148Y-31155146D01*
X22898641Y-31090503D01*
X22898655Y-31064734D01*
X22905460Y-31000000D01*
X40094540Y-31000000D01*
X40114326Y-31188256D01*
X40114327Y-31188259D01*
X40172818Y-31368277D01*
X40172821Y-31368284D01*
X40267467Y-31532216D01*
X40369185Y-31645185D01*
X40394129Y-31672888D01*
X40547265Y-31784148D01*
X40547270Y-31784151D01*
X40720192Y-31861142D01*
X40720197Y-31861144D01*
X40905354Y-31900500D01*
X40905355Y-31900500D01*
X41094644Y-31900500D01*
X41094646Y-31900500D01*
X41279803Y-31861144D01*
X41452730Y-31784151D01*
X41605871Y-31672888D01*
X41608788Y-31669647D01*
X41611600Y-31666526D01*
X41671087Y-31629879D01*
X41703748Y-31625500D01*
X47296252Y-31625500D01*
X47363291Y-31645185D01*
X47388400Y-31666526D01*
X47394126Y-31672885D01*
X47394130Y-31672889D01*
X47547265Y-31784148D01*
X47547270Y-31784151D01*
X47720192Y-31861142D01*
X47720197Y-31861144D01*
X47905354Y-31900500D01*
X47905355Y-31900500D01*
X48094644Y-31900500D01*
X48094646Y-31900500D01*
X48279803Y-31861144D01*
X48452730Y-31784151D01*
X48605871Y-31672888D01*
X48732533Y-31532216D01*
X48827179Y-31368284D01*
X48885674Y-31188256D01*
X48905460Y-31000000D01*
X48885674Y-30811744D01*
X48827179Y-30631716D01*
X48732533Y-30467784D01*
X48605871Y-30327112D01*
X48605870Y-30327111D01*
X48452734Y-30215851D01*
X48452729Y-30215848D01*
X48279807Y-30138857D01*
X48279802Y-30138855D01*
X48134001Y-30107865D01*
X48094646Y-30099500D01*
X47905354Y-30099500D01*
X47872897Y-30106398D01*
X47720197Y-30138855D01*
X47720192Y-30138857D01*
X47547270Y-30215848D01*
X47547265Y-30215851D01*
X47394130Y-30327110D01*
X47394126Y-30327114D01*
X47388400Y-30333474D01*
X47328913Y-30370121D01*
X47296252Y-30374500D01*
X42702847Y-30374500D01*
X42635808Y-30354815D01*
X42590053Y-30302011D01*
X42580109Y-30232853D01*
X42609134Y-30169297D01*
X42610670Y-30167557D01*
X42611625Y-30166496D01*
X42671124Y-30129869D01*
X42703748Y-30125500D01*
X43539348Y-30125500D01*
X43539350Y-30125500D01*
X43539355Y-30125499D01*
X43539359Y-30125499D01*
X43552088Y-30123890D01*
X43656792Y-30110664D01*
X43803732Y-30052486D01*
X43931587Y-29959594D01*
X44032324Y-29837823D01*
X44099614Y-29694826D01*
X44129227Y-29539588D01*
X44119304Y-29381862D01*
X44070467Y-29231559D01*
X43985786Y-29098123D01*
X43870582Y-28989938D01*
X43870579Y-28989936D01*
X43870577Y-28989934D01*
X43732095Y-28913804D01*
X43732087Y-28913801D01*
X43579021Y-28874500D01*
X43579019Y-28874500D01*
X42703748Y-28874500D01*
X42636709Y-28854815D01*
X42611600Y-28833474D01*
X42605873Y-28827114D01*
X42605869Y-28827110D01*
X42452734Y-28715851D01*
X42452729Y-28715848D01*
X42279807Y-28638857D01*
X42279802Y-28638855D01*
X42134001Y-28607865D01*
X42094646Y-28599500D01*
X41905354Y-28599500D01*
X41872897Y-28606398D01*
X41720197Y-28638855D01*
X41720192Y-28638857D01*
X41547270Y-28715848D01*
X41547265Y-28715851D01*
X41394129Y-28827111D01*
X41267466Y-28967785D01*
X41172821Y-29131715D01*
X41172818Y-29131722D01*
X41136072Y-29244816D01*
X41114326Y-29311744D01*
X41094540Y-29500000D01*
X41114326Y-29688256D01*
X41114327Y-29688259D01*
X41172818Y-29868277D01*
X41172821Y-29868284D01*
X41198927Y-29913501D01*
X41215400Y-29981400D01*
X41192548Y-30047427D01*
X41137626Y-30090617D01*
X41091540Y-30099500D01*
X40905354Y-30099500D01*
X40872897Y-30106398D01*
X40720197Y-30138855D01*
X40720192Y-30138857D01*
X40547270Y-30215848D01*
X40547265Y-30215851D01*
X40394129Y-30327111D01*
X40267466Y-30467785D01*
X40172821Y-30631715D01*
X40172818Y-30631722D01*
X40114327Y-30811740D01*
X40114326Y-30811744D01*
X40094540Y-31000000D01*
X22905460Y-31000000D01*
X22885674Y-30811744D01*
X22827179Y-30631716D01*
X22732533Y-30467784D01*
X22605871Y-30327112D01*
X22605870Y-30327111D01*
X22452734Y-30215851D01*
X22452729Y-30215848D01*
X22279807Y-30138857D01*
X22279802Y-30138855D01*
X22134001Y-30107865D01*
X22094646Y-30099500D01*
X21905354Y-30099500D01*
X21872897Y-30106398D01*
X21720197Y-30138855D01*
X21720192Y-30138857D01*
X21547270Y-30215848D01*
X21547265Y-30215851D01*
X21394129Y-30327111D01*
X21267466Y-30467785D01*
X21172821Y-30631715D01*
X21172818Y-30631722D01*
X21114327Y-30811740D01*
X21114326Y-30811744D01*
X21094540Y-31000000D01*
X21114326Y-31188256D01*
X21114327Y-31188259D01*
X21172818Y-31368277D01*
X21172821Y-31368284D01*
X21267467Y-31532216D01*
X21369185Y-31645185D01*
X21394129Y-31672888D01*
X21547265Y-31784148D01*
X21547270Y-31784151D01*
X21720192Y-31861142D01*
X21720193Y-31861142D01*
X21720197Y-31861144D01*
X21878884Y-31894873D01*
X21940365Y-31928065D01*
X21949929Y-31938698D01*
X22510055Y-32638857D01*
X23640164Y-34051494D01*
X23666672Y-34116140D01*
X23661267Y-34167274D01*
X23614327Y-34311740D01*
X23614326Y-34311744D01*
X23594540Y-34500000D01*
X23614326Y-34688256D01*
X23614327Y-34688259D01*
X23672818Y-34868277D01*
X23672821Y-34868284D01*
X23767467Y-35032216D01*
X23869185Y-35145185D01*
X23894129Y-35172888D01*
X24047265Y-35284148D01*
X24047270Y-35284151D01*
X24220192Y-35361142D01*
X24220197Y-35361144D01*
X24405354Y-35400500D01*
X24405355Y-35400500D01*
X24594643Y-35400500D01*
X24594646Y-35400500D01*
X24626419Y-35393746D01*
X24696083Y-35399061D01*
X24749027Y-35437574D01*
X25296207Y-36121548D01*
X25322715Y-36186194D01*
X25310065Y-36254909D01*
X25262273Y-36305876D01*
X25213701Y-36322180D01*
X21121568Y-36798009D01*
X21052704Y-36786199D01*
X21034366Y-36775160D01*
X20952730Y-36715849D01*
X20952729Y-36715848D01*
X20779807Y-36638857D01*
X20779802Y-36638855D01*
X20634001Y-36607865D01*
X20594646Y-36599500D01*
X20405354Y-36599500D01*
X20372897Y-36606398D01*
X20220197Y-36638855D01*
X20220192Y-36638857D01*
X20047270Y-36715848D01*
X20047265Y-36715851D01*
X19894129Y-36827111D01*
X19767466Y-36967785D01*
X19672821Y-37131715D01*
X19672818Y-37131722D01*
X19614327Y-37311740D01*
X19614326Y-37311744D01*
X19594540Y-37500000D01*
X500500Y-37500000D01*
X500500Y-27000000D01*
X21094540Y-27000000D01*
X21114326Y-27188256D01*
X21114327Y-27188259D01*
X21172818Y-27368277D01*
X21172821Y-27368284D01*
X21267467Y-27532216D01*
X21316072Y-27586197D01*
X21394129Y-27672888D01*
X21547265Y-27784148D01*
X21547270Y-27784151D01*
X21720192Y-27861142D01*
X21720197Y-27861144D01*
X21905354Y-27900500D01*
X21905355Y-27900500D01*
X22094644Y-27900500D01*
X22094646Y-27900500D01*
X22279803Y-27861144D01*
X22449566Y-27785559D01*
X22518813Y-27776275D01*
X22550430Y-27785557D01*
X22720197Y-27861144D01*
X22905354Y-27900500D01*
X22905355Y-27900500D01*
X23094644Y-27900500D01*
X23094646Y-27900500D01*
X23279803Y-27861144D01*
X23299211Y-27852503D01*
X31989435Y-27852503D01*
X32009630Y-28031749D01*
X32009631Y-28031754D01*
X32069211Y-28202023D01*
X32165184Y-28354762D01*
X32292738Y-28482316D01*
X32445478Y-28578289D01*
X32615745Y-28637868D01*
X32658030Y-28642632D01*
X32722442Y-28669697D01*
X32761998Y-28727291D01*
X32767366Y-28751967D01*
X32772130Y-28794249D01*
X32831710Y-28964521D01*
X32915658Y-29098123D01*
X32927684Y-29117262D01*
X33055238Y-29244816D01*
X33207978Y-29340789D01*
X33325358Y-29381862D01*
X33378245Y-29400368D01*
X33378250Y-29400369D01*
X33557496Y-29420565D01*
X33557500Y-29420565D01*
X33557504Y-29420565D01*
X33736749Y-29400369D01*
X33736752Y-29400368D01*
X33736755Y-29400368D01*
X33907022Y-29340789D01*
X34059762Y-29244816D01*
X34187316Y-29117262D01*
X34215006Y-29073192D01*
X34267341Y-29026902D01*
X34336394Y-29016254D01*
X34400243Y-29044629D01*
X34424992Y-29073191D01*
X34452684Y-29117262D01*
X34580238Y-29244816D01*
X34732978Y-29340789D01*
X34850358Y-29381862D01*
X34903245Y-29400368D01*
X34903250Y-29400369D01*
X35082496Y-29420565D01*
X35082500Y-29420565D01*
X35082504Y-29420565D01*
X35261749Y-29400369D01*
X35261752Y-29400368D01*
X35261755Y-29400368D01*
X35432022Y-29340789D01*
X35584762Y-29244816D01*
X35712316Y-29117262D01*
X35808289Y-28964522D01*
X35867868Y-28794255D01*
X35872632Y-28751967D01*
X35899697Y-28687557D01*
X35957291Y-28648000D01*
X35981959Y-28642633D01*
X36024255Y-28637868D01*
X36194522Y-28578289D01*
X36347262Y-28482316D01*
X36474816Y-28354762D01*
X36570789Y-28202022D01*
X36630368Y-28031755D01*
X36649591Y-27861144D01*
X36650565Y-27852503D01*
X36650565Y-27852496D01*
X36630369Y-27673250D01*
X36630368Y-27673245D01*
X36599909Y-27586198D01*
X36570789Y-27502978D01*
X36474816Y-27350238D01*
X36347262Y-27222684D01*
X36303192Y-27194993D01*
X36256902Y-27142659D01*
X36246254Y-27073606D01*
X36274629Y-27009757D01*
X36303191Y-26985007D01*
X36342330Y-26960415D01*
X42870773Y-26960415D01*
X42880696Y-27118137D01*
X42880696Y-27118140D01*
X42903479Y-27188256D01*
X42929533Y-27268441D01*
X43014214Y-27401877D01*
X43129418Y-27510062D01*
X43129420Y-27510063D01*
X43129422Y-27510065D01*
X43267904Y-27586195D01*
X43267908Y-27586197D01*
X43420981Y-27625500D01*
X45296252Y-27625500D01*
X45363291Y-27645185D01*
X45388400Y-27666526D01*
X45394126Y-27672885D01*
X45394130Y-27672889D01*
X45547265Y-27784148D01*
X45547270Y-27784151D01*
X45720192Y-27861142D01*
X45720197Y-27861144D01*
X45905354Y-27900500D01*
X45905355Y-27900500D01*
X46094644Y-27900500D01*
X46094646Y-27900500D01*
X46279803Y-27861144D01*
X46452730Y-27784151D01*
X46605871Y-27672888D01*
X46732533Y-27532216D01*
X46827179Y-27368284D01*
X46882069Y-27199351D01*
X46921506Y-27141675D01*
X46985865Y-27114477D01*
X47054711Y-27126392D01*
X47106187Y-27173636D01*
X47117931Y-27199351D01*
X47172818Y-27368277D01*
X47172821Y-27368284D01*
X47267467Y-27532216D01*
X47316072Y-27586197D01*
X47394129Y-27672888D01*
X47547265Y-27784148D01*
X47547270Y-27784151D01*
X47720192Y-27861142D01*
X47720197Y-27861144D01*
X47905354Y-27900500D01*
X47905355Y-27900500D01*
X48094644Y-27900500D01*
X48094646Y-27900500D01*
X48279803Y-27861144D01*
X48449566Y-27785559D01*
X48518813Y-27776275D01*
X48550430Y-27785557D01*
X48720197Y-27861144D01*
X48905354Y-27900500D01*
X48905355Y-27900500D01*
X49094644Y-27900500D01*
X49094646Y-27900500D01*
X49279803Y-27861144D01*
X49452730Y-27784151D01*
X49605871Y-27672888D01*
X49732533Y-27532216D01*
X49827179Y-27368284D01*
X49885674Y-27188256D01*
X49905460Y-27000000D01*
X49885674Y-26811744D01*
X49827179Y-26631716D01*
X49732533Y-26467784D01*
X49605871Y-26327112D01*
X49605870Y-26327111D01*
X49452734Y-26215851D01*
X49452729Y-26215848D01*
X49279807Y-26138857D01*
X49279802Y-26138855D01*
X49134001Y-26107865D01*
X49094646Y-26099500D01*
X48905354Y-26099500D01*
X48872897Y-26106398D01*
X48720197Y-26138855D01*
X48720192Y-26138857D01*
X48550436Y-26214439D01*
X48481186Y-26223724D01*
X48449564Y-26214439D01*
X48279807Y-26138857D01*
X48279802Y-26138855D01*
X48134001Y-26107865D01*
X48094646Y-26099500D01*
X47905354Y-26099500D01*
X47872897Y-26106398D01*
X47720197Y-26138855D01*
X47720192Y-26138857D01*
X47547270Y-26215848D01*
X47547265Y-26215851D01*
X47394129Y-26327111D01*
X47267466Y-26467785D01*
X47172821Y-26631715D01*
X47172818Y-26631722D01*
X47117931Y-26800648D01*
X47078493Y-26858324D01*
X47014135Y-26885522D01*
X46945288Y-26873607D01*
X46893813Y-26826363D01*
X46882069Y-26800648D01*
X46827181Y-26631722D01*
X46827180Y-26631721D01*
X46827179Y-26631716D01*
X46732533Y-26467784D01*
X46605871Y-26327112D01*
X46605870Y-26327111D01*
X46452734Y-26215851D01*
X46452729Y-26215848D01*
X46279807Y-26138857D01*
X46279802Y-26138855D01*
X46134001Y-26107865D01*
X46094646Y-26099500D01*
X45905354Y-26099500D01*
X45872897Y-26106398D01*
X45720197Y-26138855D01*
X45720192Y-26138857D01*
X45547270Y-26215848D01*
X45547265Y-26215851D01*
X45394130Y-26327110D01*
X45394126Y-26327114D01*
X45388400Y-26333474D01*
X45328913Y-26370121D01*
X45296252Y-26374500D01*
X43460640Y-26374500D01*
X43343208Y-26389336D01*
X43343206Y-26389336D01*
X43196269Y-26447513D01*
X43196260Y-26447518D01*
X43068416Y-26540402D01*
X43068415Y-26540403D01*
X42967674Y-26662178D01*
X42900387Y-26805171D01*
X42900385Y-26805174D01*
X42890247Y-26858324D01*
X42870773Y-26960412D01*
X42870773Y-26960414D01*
X42870773Y-26960415D01*
X36342330Y-26960415D01*
X36347262Y-26957316D01*
X36474816Y-26829762D01*
X36570789Y-26677022D01*
X36630368Y-26506755D01*
X36634759Y-26467784D01*
X36650565Y-26327503D01*
X36650565Y-26327496D01*
X36630369Y-26148250D01*
X36630368Y-26148245D01*
X36570788Y-25977976D01*
X36474815Y-25825237D01*
X36347262Y-25697684D01*
X36194521Y-25601710D01*
X36024249Y-25542130D01*
X35981967Y-25537366D01*
X35917553Y-25510298D01*
X35877999Y-25452703D01*
X35872633Y-25428036D01*
X35867868Y-25385745D01*
X35808289Y-25215478D01*
X35712316Y-25062738D01*
X35584762Y-24935184D01*
X35432023Y-24839211D01*
X35261754Y-24779631D01*
X35261749Y-24779630D01*
X35082504Y-24759435D01*
X35082496Y-24759435D01*
X34903250Y-24779630D01*
X34903245Y-24779631D01*
X34732976Y-24839211D01*
X34580237Y-24935184D01*
X34452682Y-25062739D01*
X34424993Y-25106807D01*
X34372658Y-25153097D01*
X34303605Y-25163745D01*
X34239757Y-25135370D01*
X34215007Y-25106807D01*
X34187317Y-25062739D01*
X34059762Y-24935184D01*
X33907023Y-24839211D01*
X33736754Y-24779631D01*
X33736749Y-24779630D01*
X33557504Y-24759435D01*
X33557496Y-24759435D01*
X33378250Y-24779630D01*
X33378245Y-24779631D01*
X33207976Y-24839211D01*
X33055237Y-24935184D01*
X32927684Y-25062737D01*
X32831710Y-25215478D01*
X32772130Y-25385750D01*
X32767366Y-25428032D01*
X32740298Y-25492445D01*
X32682702Y-25531999D01*
X32658032Y-25537366D01*
X32615750Y-25542130D01*
X32445478Y-25601710D01*
X32292737Y-25697684D01*
X32165184Y-25825237D01*
X32069211Y-25977976D01*
X32009631Y-26148245D01*
X32009630Y-26148250D01*
X31989435Y-26327496D01*
X31989435Y-26327503D01*
X32009630Y-26506749D01*
X32009631Y-26506754D01*
X32069211Y-26677023D01*
X32165184Y-26829762D01*
X32292739Y-26957317D01*
X32336807Y-26985007D01*
X32383097Y-27037342D01*
X32393745Y-27106395D01*
X32365370Y-27170243D01*
X32336807Y-27194993D01*
X32292739Y-27222682D01*
X32165184Y-27350237D01*
X32069211Y-27502976D01*
X32009631Y-27673245D01*
X32009630Y-27673250D01*
X31989435Y-27852496D01*
X31989435Y-27852503D01*
X23299211Y-27852503D01*
X23452730Y-27784151D01*
X23605871Y-27672888D01*
X23732533Y-27532216D01*
X23827179Y-27368284D01*
X23885674Y-27188256D01*
X23905460Y-27000000D01*
X23885674Y-26811744D01*
X23827179Y-26631716D01*
X23732533Y-26467784D01*
X23605871Y-26327112D01*
X23605870Y-26327111D01*
X23452734Y-26215851D01*
X23452729Y-26215848D01*
X23279807Y-26138857D01*
X23279802Y-26138855D01*
X23134001Y-26107865D01*
X23094646Y-26099500D01*
X22905354Y-26099500D01*
X22872897Y-26106398D01*
X22720197Y-26138855D01*
X22720192Y-26138857D01*
X22550436Y-26214439D01*
X22481186Y-26223724D01*
X22449564Y-26214439D01*
X22279807Y-26138857D01*
X22279802Y-26138855D01*
X22134001Y-26107865D01*
X22094646Y-26099500D01*
X21905354Y-26099500D01*
X21872897Y-26106398D01*
X21720197Y-26138855D01*
X21720192Y-26138857D01*
X21547270Y-26215848D01*
X21547265Y-26215851D01*
X21394129Y-26327111D01*
X21267466Y-26467785D01*
X21172821Y-26631715D01*
X21172818Y-26631722D01*
X21114327Y-26811740D01*
X21114326Y-26811744D01*
X21094540Y-27000000D01*
X500500Y-27000000D01*
X500500Y-23460415D01*
X42870773Y-23460415D01*
X42880696Y-23618137D01*
X42880696Y-23618140D01*
X42903479Y-23688256D01*
X42929533Y-23768441D01*
X43014214Y-23901877D01*
X43129418Y-24010062D01*
X43129420Y-24010063D01*
X43129422Y-24010065D01*
X43267904Y-24086195D01*
X43267908Y-24086197D01*
X43420981Y-24125500D01*
X46796252Y-24125500D01*
X46863291Y-24145185D01*
X46888400Y-24166526D01*
X46894126Y-24172885D01*
X46894130Y-24172889D01*
X47047265Y-24284148D01*
X47047270Y-24284151D01*
X47220192Y-24361142D01*
X47220197Y-24361144D01*
X47405354Y-24400500D01*
X47405355Y-24400500D01*
X47594644Y-24400500D01*
X47594646Y-24400500D01*
X47779803Y-24361144D01*
X47952730Y-24284151D01*
X48105871Y-24172888D01*
X48232533Y-24032216D01*
X48327179Y-23868284D01*
X48385674Y-23688256D01*
X48405460Y-23500000D01*
X48385674Y-23311744D01*
X48327179Y-23131716D01*
X48232533Y-22967784D01*
X48105871Y-22827112D01*
X48068303Y-22799817D01*
X47952734Y-22715851D01*
X47952729Y-22715848D01*
X47779807Y-22638857D01*
X47779802Y-22638855D01*
X47634001Y-22607865D01*
X47594646Y-22599500D01*
X47408460Y-22599500D01*
X47341421Y-22579815D01*
X47295666Y-22527011D01*
X47285722Y-22457853D01*
X47301072Y-22413502D01*
X47327179Y-22368284D01*
X47385674Y-22188256D01*
X47405460Y-22000000D01*
X47385674Y-21811744D01*
X47327179Y-21631716D01*
X47232533Y-21467784D01*
X47105871Y-21327112D01*
X47105870Y-21327111D01*
X46952734Y-21215851D01*
X46952729Y-21215848D01*
X46779807Y-21138857D01*
X46779802Y-21138855D01*
X46634001Y-21107865D01*
X46594646Y-21099500D01*
X46405354Y-21099500D01*
X46372897Y-21106398D01*
X46220197Y-21138855D01*
X46220192Y-21138857D01*
X46047270Y-21215848D01*
X46047265Y-21215851D01*
X45894130Y-21327110D01*
X45894126Y-21327114D01*
X45888400Y-21333474D01*
X45828913Y-21370121D01*
X45796252Y-21374500D01*
X43460640Y-21374500D01*
X43343208Y-21389336D01*
X43343206Y-21389336D01*
X43196269Y-21447513D01*
X43196260Y-21447518D01*
X43068416Y-21540402D01*
X43068415Y-21540403D01*
X42967674Y-21662178D01*
X42900387Y-21805171D01*
X42900385Y-21805174D01*
X42885757Y-21881862D01*
X42870773Y-21960412D01*
X42870773Y-21960414D01*
X42870773Y-21960415D01*
X42880696Y-22118137D01*
X42880696Y-22118140D01*
X42905614Y-22194828D01*
X42929533Y-22268441D01*
X43014214Y-22401877D01*
X43129418Y-22510062D01*
X43129420Y-22510063D01*
X43129422Y-22510065D01*
X43206578Y-22552481D01*
X43267908Y-22586197D01*
X43420981Y-22625500D01*
X45796252Y-22625500D01*
X45863291Y-22645185D01*
X45888373Y-22666495D01*
X45889277Y-22667499D01*
X45919526Y-22730479D01*
X45910924Y-22799817D01*
X45866200Y-22853497D01*
X45799555Y-22874477D01*
X45797153Y-22874500D01*
X43460640Y-22874500D01*
X43343208Y-22889336D01*
X43343206Y-22889336D01*
X43196269Y-22947513D01*
X43196260Y-22947518D01*
X43068416Y-23040402D01*
X43068415Y-23040403D01*
X42967674Y-23162178D01*
X42900387Y-23305171D01*
X42900385Y-23305174D01*
X42881551Y-23403910D01*
X42870773Y-23460412D01*
X42870773Y-23460414D01*
X42870773Y-23460415D01*
X500500Y-23460415D01*
X500500Y-22000000D01*
X23594540Y-22000000D01*
X23614326Y-22188256D01*
X23614327Y-22188259D01*
X23672818Y-22368277D01*
X23672821Y-22368284D01*
X23767467Y-22532216D01*
X23863487Y-22638857D01*
X23894129Y-22672888D01*
X24047265Y-22784148D01*
X24047270Y-22784151D01*
X24220192Y-22861142D01*
X24220197Y-22861144D01*
X24405354Y-22900500D01*
X24405355Y-22900500D01*
X24594644Y-22900500D01*
X24594646Y-22900500D01*
X24779803Y-22861144D01*
X24952730Y-22784151D01*
X25105871Y-22672888D01*
X25108788Y-22669647D01*
X25111600Y-22666526D01*
X25171087Y-22629879D01*
X25203748Y-22625500D01*
X26039348Y-22625500D01*
X26039350Y-22625500D01*
X26039355Y-22625499D01*
X26039359Y-22625499D01*
X26052088Y-22623890D01*
X26156792Y-22610664D01*
X26303732Y-22552486D01*
X26431587Y-22459594D01*
X26532324Y-22337823D01*
X26599614Y-22194826D01*
X26629227Y-22039588D01*
X26619304Y-21881862D01*
X26570467Y-21731559D01*
X26485786Y-21598123D01*
X26370582Y-21489938D01*
X26370579Y-21489936D01*
X26370577Y-21489934D01*
X26232095Y-21413804D01*
X26232087Y-21413801D01*
X26079021Y-21374500D01*
X26079019Y-21374500D01*
X25203748Y-21374500D01*
X25136709Y-21354815D01*
X25111600Y-21333474D01*
X25105873Y-21327114D01*
X25105869Y-21327110D01*
X24952734Y-21215851D01*
X24952729Y-21215848D01*
X24779807Y-21138857D01*
X24779802Y-21138855D01*
X24634001Y-21107865D01*
X24594646Y-21099500D01*
X24405354Y-21099500D01*
X24372897Y-21106398D01*
X24220197Y-21138855D01*
X24220192Y-21138857D01*
X24047270Y-21215848D01*
X24047265Y-21215851D01*
X23894129Y-21327111D01*
X23767466Y-21467785D01*
X23672821Y-21631715D01*
X23672818Y-21631722D01*
X23614327Y-21811740D01*
X23614326Y-21811744D01*
X23594540Y-22000000D01*
X500500Y-22000000D01*
X500500Y-19460415D01*
X42870773Y-19460415D01*
X42880696Y-19618137D01*
X42880696Y-19618140D01*
X42903479Y-19688256D01*
X42929533Y-19768441D01*
X43014214Y-19901877D01*
X43129418Y-20010062D01*
X43129420Y-20010063D01*
X43129422Y-20010065D01*
X43267904Y-20086195D01*
X43267908Y-20086197D01*
X43420981Y-20125500D01*
X44296252Y-20125500D01*
X44363291Y-20145185D01*
X44388400Y-20166526D01*
X44394126Y-20172885D01*
X44394130Y-20172889D01*
X44547265Y-20284148D01*
X44547270Y-20284151D01*
X44720192Y-20361142D01*
X44720197Y-20361144D01*
X44905354Y-20400500D01*
X44905355Y-20400500D01*
X45094644Y-20400500D01*
X45094646Y-20400500D01*
X45279803Y-20361144D01*
X45452730Y-20284151D01*
X45605871Y-20172888D01*
X45732533Y-20032216D01*
X45827179Y-19868284D01*
X45885674Y-19688256D01*
X45905460Y-19500000D01*
X45885674Y-19311744D01*
X45827179Y-19131716D01*
X45732533Y-18967784D01*
X45605871Y-18827112D01*
X45605870Y-18827111D01*
X45452734Y-18715851D01*
X45452729Y-18715848D01*
X45279807Y-18638857D01*
X45279802Y-18638855D01*
X45134001Y-18607865D01*
X45094646Y-18599500D01*
X44905354Y-18599500D01*
X44872897Y-18606398D01*
X44720197Y-18638855D01*
X44720192Y-18638857D01*
X44547270Y-18715848D01*
X44547265Y-18715851D01*
X44394130Y-18827110D01*
X44394126Y-18827114D01*
X44388400Y-18833474D01*
X44328913Y-18870121D01*
X44296252Y-18874500D01*
X43460640Y-18874500D01*
X43343208Y-18889336D01*
X43343206Y-18889336D01*
X43196269Y-18947513D01*
X43196260Y-18947518D01*
X43068416Y-19040402D01*
X43068415Y-19040403D01*
X42967674Y-19162178D01*
X42900387Y-19305171D01*
X42900385Y-19305174D01*
X42881551Y-19403910D01*
X42870773Y-19460412D01*
X42870773Y-19460414D01*
X42870773Y-19460415D01*
X500500Y-19460415D01*
X500500Y-4574647D01*
X520185Y-4507608D01*
X572989Y-4461853D01*
X642147Y-4451909D01*
X705703Y-4480934D01*
X743477Y-4539712D01*
X746866Y-4554586D01*
X772415Y-4710431D01*
X772421Y-4710457D01*
X868147Y-5055232D01*
X868149Y-5055239D01*
X1000597Y-5387659D01*
X1000606Y-5387677D01*
X1168218Y-5703827D01*
X1369024Y-5999994D01*
X1369035Y-6000008D01*
X1496441Y-6150002D01*
X1496442Y-6150002D01*
X2702265Y-4944179D01*
X2865130Y-5134870D01*
X3055819Y-5297733D01*
X1847257Y-6506294D01*
X1860495Y-6518836D01*
X2145367Y-6735388D01*
X2145370Y-6735390D01*
X2451990Y-6919876D01*
X2776739Y-7070122D01*
X2776744Y-7070123D01*
X3115855Y-7184383D01*
X3465339Y-7261311D01*
X3821075Y-7299999D01*
X3821085Y-7300000D01*
X4178915Y-7300000D01*
X4178924Y-7299999D01*
X4534660Y-7261311D01*
X4884144Y-7184383D01*
X5223255Y-7070123D01*
X5223260Y-7070122D01*
X5548009Y-6919876D01*
X5854629Y-6735390D01*
X5854632Y-6735388D01*
X6139509Y-6518831D01*
X6152742Y-6506295D01*
X6152742Y-6506294D01*
X4944181Y-5297733D01*
X5134870Y-5134870D01*
X5297733Y-4944180D01*
X6503556Y-6150002D01*
X6630972Y-5999998D01*
X6630975Y-5999994D01*
X6831781Y-5703827D01*
X6999393Y-5387677D01*
X6999402Y-5387659D01*
X7131850Y-5055239D01*
X7131852Y-5055232D01*
X7227578Y-4710457D01*
X7227584Y-4710431D01*
X7285472Y-4357331D01*
X7285473Y-4357314D01*
X7304847Y-4000002D01*
X7304847Y-3999997D01*
X7285473Y-3642685D01*
X7285472Y-3642668D01*
X7227584Y-3289568D01*
X7227578Y-3289542D01*
X7131852Y-2944767D01*
X7131850Y-2944760D01*
X6999402Y-2612340D01*
X6999393Y-2612322D01*
X6831781Y-2296172D01*
X6630975Y-2000005D01*
X6630964Y-1999991D01*
X6503556Y-1849996D01*
X5297733Y-3055819D01*
X5134870Y-2865130D01*
X4944180Y-2702266D01*
X6152742Y-1493704D01*
X6139504Y-1481163D01*
X5854632Y-1264611D01*
X5854629Y-1264609D01*
X5548009Y-1080123D01*
X5223260Y-929877D01*
X5223255Y-929876D01*
X4884142Y-815615D01*
X4566066Y-745601D01*
X4504825Y-711965D01*
X4471491Y-650560D01*
X4476647Y-580880D01*
X4518656Y-525050D01*
X4584181Y-500795D01*
X4592722Y-500500D01*
X10876000Y-500500D01*
X10943039Y-520185D01*
G37*
%TD.AperFunction*%
%TA.AperFunction,Conductor*%
G36*
X74373069Y-106715909D02*
G01*
X74399387Y-106731595D01*
X74436491Y-106760474D01*
X74436494Y-106760476D01*
X74440779Y-106763275D01*
X74439847Y-106764700D01*
X74484101Y-106808611D01*
X74499500Y-106868460D01*
X74499500Y-106996249D01*
X74499274Y-107003736D01*
X74481728Y-107293794D01*
X74479923Y-107308659D01*
X74428219Y-107590798D01*
X74424635Y-107605336D01*
X74339306Y-107879167D01*
X74333997Y-107893168D01*
X74216275Y-108154736D01*
X74209316Y-108167995D01*
X74060928Y-108413459D01*
X74052422Y-108425782D01*
X73875526Y-108651573D01*
X73865596Y-108662781D01*
X73662781Y-108865596D01*
X73651573Y-108875526D01*
X73425782Y-109052422D01*
X73413459Y-109060928D01*
X73167995Y-109209316D01*
X73154736Y-109216275D01*
X72893168Y-109333997D01*
X72879167Y-109339306D01*
X72605336Y-109424635D01*
X72590798Y-109428219D01*
X72308659Y-109479923D01*
X72293794Y-109481728D01*
X72003736Y-109499274D01*
X71996249Y-109499500D01*
X71592722Y-109499500D01*
X71525683Y-109479815D01*
X71479928Y-109427011D01*
X71469984Y-109357853D01*
X71499009Y-109294297D01*
X71557787Y-109256523D01*
X71566066Y-109254399D01*
X71884142Y-109184384D01*
X72223255Y-109070123D01*
X72223260Y-109070122D01*
X72548009Y-108919876D01*
X72854629Y-108735390D01*
X72854632Y-108735388D01*
X73139509Y-108518831D01*
X73152742Y-108506295D01*
X73152742Y-108506294D01*
X71944181Y-107297733D01*
X72134870Y-107134870D01*
X72297733Y-106944180D01*
X73503556Y-108150002D01*
X73630972Y-107999998D01*
X73630975Y-107999994D01*
X73831781Y-107703827D01*
X73999393Y-107387677D01*
X73999402Y-107387659D01*
X74131850Y-107055239D01*
X74131852Y-107055232D01*
X74203750Y-106796279D01*
X74240652Y-106736949D01*
X74303771Y-106706988D01*
X74373069Y-106715909D01*
G37*
%TD.AperFunction*%
%TA.AperFunction,Conductor*%
G36*
X72003736Y-500726D02*
G01*
X72293796Y-518271D01*
X72308657Y-520075D01*
X72335801Y-525050D01*
X72590798Y-571780D01*
X72605335Y-575363D01*
X72879172Y-660695D01*
X72893163Y-666000D01*
X73154743Y-783727D01*
X73167989Y-790680D01*
X73413465Y-939075D01*
X73425776Y-947573D01*
X73594964Y-1080123D01*
X73651573Y-1124473D01*
X73662781Y-1134403D01*
X73865596Y-1337218D01*
X73875526Y-1348426D01*
X73995481Y-1501538D01*
X74052422Y-1574217D01*
X74060928Y-1586540D01*
X74209316Y-1832004D01*
X74216275Y-1845263D01*
X74333997Y-2106831D01*
X74339306Y-2120832D01*
X74424635Y-2394663D01*
X74428219Y-2409201D01*
X74479923Y-2691340D01*
X74481728Y-2706205D01*
X74499274Y-2996263D01*
X74499500Y-3003750D01*
X74499500Y-3425352D01*
X74479815Y-3492391D01*
X74427011Y-3538146D01*
X74357853Y-3548090D01*
X74294297Y-3519065D01*
X74256523Y-3460287D01*
X74253134Y-3445413D01*
X74227584Y-3289568D01*
X74227578Y-3289542D01*
X74131852Y-2944767D01*
X74131850Y-2944760D01*
X73999402Y-2612340D01*
X73999393Y-2612322D01*
X73831781Y-2296172D01*
X73630975Y-2000005D01*
X73630964Y-1999991D01*
X73503556Y-1849996D01*
X72297733Y-3055818D01*
X72134870Y-2865130D01*
X71944180Y-2702266D01*
X73152742Y-1493704D01*
X73139504Y-1481163D01*
X72854632Y-1264611D01*
X72854629Y-1264609D01*
X72548009Y-1080123D01*
X72223260Y-929877D01*
X72223255Y-929876D01*
X71884142Y-815615D01*
X71566066Y-745601D01*
X71504825Y-711965D01*
X71471491Y-650560D01*
X71476647Y-580880D01*
X71518656Y-525050D01*
X71584181Y-500795D01*
X71592722Y-500500D01*
X71934108Y-500500D01*
X71996249Y-500500D01*
X72003736Y-500726D01*
G37*
%TD.AperFunction*%
%TA.AperFunction,Conductor*%
G36*
X3474317Y-520185D02*
G01*
X3520072Y-572989D01*
X3530016Y-642147D01*
X3500991Y-705703D01*
X3442213Y-743477D01*
X3433934Y-745601D01*
X3115857Y-815615D01*
X2776744Y-929876D01*
X2776739Y-929877D01*
X2451990Y-1080123D01*
X2145370Y-1264609D01*
X2145367Y-1264611D01*
X1860486Y-1481170D01*
X1860485Y-1481171D01*
X1847257Y-1493702D01*
X1847256Y-1493703D01*
X3055819Y-2702266D01*
X2865130Y-2865130D01*
X2702266Y-3055819D01*
X1496442Y-1849995D01*
X1496441Y-1849996D01*
X1369033Y-1999992D01*
X1168218Y-2296172D01*
X1000606Y-2612322D01*
X1000597Y-2612340D01*
X868149Y-2944760D01*
X868147Y-2944767D01*
X772421Y-3289542D01*
X772415Y-3289568D01*
X746866Y-3445413D01*
X716595Y-3508385D01*
X657085Y-3544994D01*
X587229Y-3543618D01*
X529206Y-3504693D01*
X501438Y-3440578D01*
X500500Y-3425352D01*
X500500Y-3003750D01*
X500726Y-2996263D01*
X518271Y-2706205D01*
X520076Y-2691340D01*
X534554Y-2612340D01*
X571780Y-2409197D01*
X575364Y-2394663D01*
X652096Y-2148422D01*
X660696Y-2120822D01*
X665998Y-2106841D01*
X783731Y-1845249D01*
X790676Y-1832016D01*
X939080Y-1586526D01*
X947567Y-1574230D01*
X1124480Y-1348417D01*
X1134395Y-1337226D01*
X1337226Y-1134395D01*
X1348417Y-1124480D01*
X1574230Y-947567D01*
X1586526Y-939080D01*
X1832016Y-790676D01*
X1845249Y-783731D01*
X2106841Y-665998D01*
X2120822Y-660696D01*
X2394668Y-575362D01*
X2409197Y-571780D01*
X2691344Y-520075D01*
X2706201Y-518271D01*
X2996264Y-500726D01*
X3003751Y-500500D01*
X3065892Y-500500D01*
X3407278Y-500500D01*
X3474317Y-520185D01*
G37*
%TD.AperFunction*%
%TD*%
M02*
