%TF.GenerationSoftware,KiCad,Pcbnew,7.0.11+dfsg-1build4*%
%TF.CreationDate,2026-05-20T07:12:28+00:00*%
%TF.ProjectId,paymentbox_v8_2,7061796d-656e-4746-926f-785f76385f32,rev?*%
%TF.SameCoordinates,Original*%
%TF.FileFunction,Soldermask,Bot*%
%TF.FilePolarity,Negative*%
%FSLAX46Y46*%
G04 Gerber Fmt 4.6, Leading zero omitted, Abs format (unit mm)*
G04 Created by KiCad (PCBNEW 7.0.11+dfsg-1build4) date 2026-05-20 07:12:28*
%MOMM*%
%LPD*%
G01*
G04 APERTURE LIST*
%ADD10C,5.600000*%
%ADD11R,1.700000X1.700000*%
%ADD12O,1.700000X1.700000*%
%ADD13C,0.650000*%
%ADD14O,0.650000X0.950000*%
%ADD15O,1.400000X0.800000*%
%ADD16O,2.000000X3.000000*%
%ADD17R,3.000000X2.000000*%
%ADD18O,3.000000X2.000000*%
%ADD19R,1.600000X1.600000*%
%ADD20O,1.600000X1.600000*%
%ADD21R,3.960000X1.980000*%
%ADD22O,3.960000X1.980000*%
G04 APERTURE END LIST*
D10*
%TO.C,MH1*%
X4000000Y-4000000D03*
%TD*%
%TO.C,MH2*%
X71000000Y-4000000D03*
%TD*%
D11*
%TO.C,J5*%
X32000000Y-67000000D03*
D12*
X32000000Y-69540000D03*
%TD*%
D13*
%TO.C,J1*%
X5640000Y-53600000D03*
D14*
X5640000Y-46400000D03*
D13*
X6290000Y-47200000D03*
X6990000Y-47600000D03*
X6990000Y-48400000D03*
X6290000Y-48800000D03*
X6990000Y-49200000D03*
X6290000Y-49600000D03*
X6290000Y-50400000D03*
X6990000Y-50800000D03*
X6290000Y-51200000D03*
X6990000Y-51600000D03*
X6990000Y-52400000D03*
X6290000Y-52800000D03*
D15*
X12840000Y-54490000D03*
X6890000Y-54130000D03*
X6890000Y-45870000D03*
X12840000Y-45510000D03*
%TD*%
D16*
%TO.C,K1*%
X80300000Y-97500000D03*
X75260000Y-105000000D03*
X85340000Y-105000000D03*
D17*
X60000000Y-105000000D03*
D18*
X60000000Y-97500000D03*
%TD*%
D11*
%TO.C,J2*%
X55000000Y-84000000D03*
D12*
X57540000Y-84000000D03*
X60080000Y-84000000D03*
X62620000Y-84000000D03*
%TD*%
D10*
%TO.C,MH4*%
X71000000Y-106000000D03*
%TD*%
%TO.C,MH3*%
X4000000Y-106000000D03*
%TD*%
D19*
%TO.C,OPT1*%
X50000000Y-100000000D03*
D20*
X50000000Y-102540000D03*
X57620000Y-102540000D03*
X57620000Y-100000000D03*
%TD*%
D21*
%TO.C,J4*%
X68000000Y-101025000D03*
D22*
X68000000Y-96025000D03*
X68000000Y-91025000D03*
%TD*%
D11*
%TO.C,J3*%
X60000000Y-87895000D03*
D12*
X62540000Y-87895000D03*
X65080000Y-87895000D03*
X67620000Y-87895000D03*
X70160000Y-87895000D03*
X72700000Y-87895000D03*
%TD*%
M02*
